<?xml version="1.0" encoding="utf-8"?>
<!-- Generator: Adobe Illustrator 25.3.1, SVG Export Plug-In . SVG Version: 6.00 Build 0)  -->
<svg version="1.1" id="Layer_1" xmlns="http://www.w3.org/2000/svg" xmlns:xlink="http://www.w3.org/1999/xlink" x="0px" y="0px"
	 viewBox="0 0 1600 939" style="enable-background:new 0 0 1600 939;" xml:space="preserve">
<style type="text/css">
	.st0{fill:none;stroke:#1D2445;stroke-linecap:round;stroke-linejoin:round;stroke-miterlimit:10;}
	.st1{fill:#1D2445;}
	.st2{fill:#F6F5F1;}
	.st3{enable-background:new    ;}
	.st4{fill:#99644C;}
	.st5{fill:none;}
	.st6{fill:#3269FF;}
</style>
<g>
	<g transform="translate(36.0 75.0) rotate(0.0 761.0 470.0) scale(1.9691380945419166 1.9727177334732424)">
		<g transform="translate(-0.0 -0.0)">
			<path class="st0" d="M601.7,149.4C574,120.2,540.6,97,503.6,81.2c-74.9-31.6-159.4-31.6-234.3,0c-35.6,15.1-67.8,37.2-94.9,64.8
				c-1.1,1.1-2.1,2.2-3.2,3.3C114,209.5,82.5,291.7,82.4,381.1c1.3,1.3,14,13.2,56.7,25.3c25.5,7.2,56.7,13,92.5,17.1
				c44.6,5.2,96.7,7.9,154.8,8c58.1-0.1,110.2-2.8,154.8-8c35.8-4.1,66.9-9.9,92.5-17.1c42.6-12,55.4-24,56.7-25.3
				C690.4,291.8,658.9,209.5,601.7,149.4z"/>
			<path class="st1" d="M386.4,61.5c39.7-0.1,79,7.9,115.6,23.4c36.5,15.5,69.5,38.4,96.8,67.2c56.1,58.9,87.2,139.6,87.6,227.2
				c-4,3.2-18.7,13.4-54.9,23.5c-25.4,7.1-56.3,12.7-91.8,16.8c-44.2,5.1-95.8,7.7-153.3,7.8c-57.5-0.1-109.1-2.7-153.4-7.8
				c-35.5-4.1-66.4-9.7-91.8-16.8c-36.2-10.1-50.9-20.3-54.9-23.5c0.5-87.6,31.6-168.2,87.7-227.2c27.3-28.8,60.2-51.7,96.8-67.2
				C307.4,69.3,346.7,61.4,386.4,61.5 M386.4,53.5c-82.9,0-161,33.1-218.1,93.1c-58,60.9-89.9,144.2-89.9,234.7c0,0.9,0.4,1.8,1,2.4
				c2,2.1,51.9,51.3,307,51.7c255.1-0.5,305-49.6,307-51.7c0.6-0.6,1-1.5,1-2.4c0-90.5-31.9-173.8-89.9-234.7
				C547.4,86.6,469.3,53.5,386.4,53.5z"/>
		</g>
	</g>
</g>
<g>
	<g transform="translate(281.0 174.0) rotate(0.0 521.0 303.0) scale(1.9332096474953617 1.9361022364217253)">
		<g transform="translate(-0.0 -0.0)">
			<g>
				<g>
					<path class="st2" d="M237-38.2l1,7.2c0,0.3,0.2,0.6,0.4,0.9c0.2,0.2,0.5,0.4,0.9,0.4l7.1,1l-7.2,1c-0.3,0-0.6,0.2-0.9,0.4
						c-0.2,0.2-0.4,0.5-0.4,0.9l-1,7.2l-1-7.2c-0.1-0.3-0.3-0.6-0.5-0.8c-0.2-0.2-0.5-0.4-0.9-0.4l-7.1-1l7.2-1
						c0.3-0.1,0.6-0.3,0.9-0.6c0.2-0.2,0.4-0.5,0.4-0.9L237-38.2z"/>
					<path class="st1" d="M237-18.8L237-18.8c-0.3,0-0.5-0.2-0.5-0.4l-1-7.2c0-0.1-0.2-0.3-0.3-0.5c-0.2-0.2-0.4-0.3-0.6-0.3l-7.1-1
						c-0.2,0-0.4-0.2-0.4-0.5c0-0.2,0.2-0.5,0.4-0.5l7.2-1c0.2,0,0.4-0.2,0.5-0.4c0.2-0.2,0.3-0.4,0.3-0.6l1.1-7.1
						c0-0.2,0.2-0.4,0.5-0.4l0,0c0.2,0,0.5,0.2,0.5,0.4l1,7.2c0,0.2,0.1,0.4,0.3,0.6s0.4,0.3,0.6,0.3l7.1,1c0.2,0,0.4,0.2,0.4,0.5
						c0,0.2-0.2,0.5-0.4,0.5l-7.2,1c-0.2,0-0.4,0.1-0.6,0.3c-0.2,0.2-0.3,0.4-0.3,0.6l-1,7.1C237.4-19,237.2-18.8,237-18.8z
						 M231.1-28.7l3.6,0.5c0.4,0.1,0.8,0.3,1.1,0.6c0.3,0.2,0.5,0.6,0.6,1l0.5,3.7l0.5-3.6c0.1-0.4,0.3-0.8,0.6-1.2
						c0.3-0.3,0.7-0.5,1.2-0.6l3.6-0.5l-3.6-0.5c-0.4-0.1-0.8-0.3-1.1-0.6c-0.3-0.3-0.5-0.7-0.6-1.2l-0.5-3.7l-0.6,3.7
						c-0.1,0.4-0.3,0.8-0.6,1.1c-0.2,0.3-0.6,0.6-1.1,0.7L231.1-28.7z"/>
				</g>
				<g>
					<path class="st2" d="M496,63.8l1.4,9.4c0.1,0.4,0.3,0.8,0.6,1.1c0.3,0.3,0.7,0.5,1.1,0.6l9.4,1.4l-9.4,1.4
						c-0.9,0.1-1.6,0.8-1.7,1.7l-1.4,9.4l-1.4-9.4c-0.1-0.4-0.3-0.8-0.6-1.1c-0.3-0.3-0.7-0.5-1.1-0.6l-9.4-1.4l9.4-1.4
						c0.9-0.1,1.6-0.8,1.7-1.7L496,63.8z"/>
					<path class="st1" d="M496,89.3c-0.2,0-0.5-0.2-0.5-0.4l-1.4-9.4c0-0.3-0.2-0.6-0.4-0.9c-0.2-0.2-0.5-0.4-0.9-0.4l-9.4-1.4
						c-0.2,0-0.4-0.2-0.4-0.5s0.2-0.5,0.4-0.5l9.4-1.4c0.7-0.1,1.2-0.6,1.3-1.3l1.4-9.4c0-0.2,0.2-0.4,0.5-0.4l0,0
						c0.2,0,0.5,0.2,0.5,0.4l1.4,9.4c0,0.3,0.2,0.6,0.4,0.9c0.2,0.2,0.5,0.4,0.9,0.4l9.4,1.4c0.2,0,0.4,0.2,0.4,0.5
						c0,0.2-0.2,0.5-0.4,0.5l-9.4,1.4c-0.7,0.1-1.2,0.6-1.3,1.3l-1.4,9.4C496.5,89.1,496.2,89.3,496,89.3L496,89.3z M487,76.3l6,0.9
						c0.5,0.1,1,0.3,1.4,0.7c0.4,0.4,0.6,0.9,0.7,1.4l0.9,6l0.9-6c0.2-1.1,1-2,2.1-2.1l6-0.9l-6-0.9c-0.5-0.1-1-0.3-1.4-0.7
						c-0.4-0.4-0.6-0.9-0.7-1.4l-0.9-6l-0.9,6c-0.2,1.1-1,2-2.1,2.1L487,76.3z"/>
				</g>
				<g>
					<path class="st2" d="M116,248.8l0.8,5.6c0,0.3,0.2,0.5,0.3,0.7c0.2,0.2,0.4,0.3,0.7,0.3l5.7,0.8l-5.7,0.8
						c-0.3,0-0.5,0.2-0.7,0.4c-0.2,0.2-0.3,0.4-0.3,0.7l-0.8,5.6l-0.8-5.6c0-0.3-0.2-0.5-0.3-0.7c-0.2-0.2-0.4-0.3-0.7-0.3l-5.7-0.8
						l5.7-0.8c0.3,0,0.5-0.2,0.7-0.4s0.3-0.4,0.3-0.7L116,248.8z"/>
					<path class="st1" d="M116,264.3L116,264.3c-0.2,0-0.5-0.2-0.5-0.4l-0.8-5.6c0-0.2-0.1-0.3-0.2-0.4s-0.2-0.2-0.4-0.2l-5.7-0.8
						c-0.2,0-0.4-0.2-0.4-0.5s0.2-0.5,0.4-0.5l5.7-0.8c0.2,0,0.3-0.1,0.4-0.2c0.1-0.1,0.2-0.2,0.2-0.4l0.8-5.7
						c0-0.2,0.2-0.4,0.5-0.4s0.5,0.2,0.5,0.4l0.8,5.6c0,0.2,0.1,0.3,0.2,0.4c0.1,0.1,0.2,0.2,0.4,0.2l5.7,0.8c0.2,0,0.4,0.2,0.4,0.5
						s-0.2,0.5-0.4,0.5l-5.7,0.8c-0.2,0-0.3,0.1-0.4,0.2s-0.2,0.2-0.2,0.4l-0.8,5.7C116.5,264.1,116.2,264.3,116,264.3z M112,256.3
						l2.2,0.3c0.4,0,0.7,0.2,1,0.5s0.4,0.6,0.5,1l0.3,2.2l0.3-2.2c0-0.4,0.2-0.7,0.5-1s0.6-0.4,1-0.5l2.2-0.3l-2.2-0.3
						c-0.4,0-0.7-0.2-1-0.5s-0.4-0.6-0.5-1l-0.3-2.2l-0.3,2.2c0,0.4-0.2,0.7-0.5,1s-0.6,0.4-1,0.5L112,256.3z"/>
				</g>
				<g>
					<ellipse class="st2" cx="150.5" cy="-0.2" rx="5.8" ry="5.8"/>
					<path class="st1" d="M150.5,3.3c-1.9,0-3.5-1.6-3.5-3.5s1.6-3.5,3.5-3.5s3.5,1.6,3.5,3.5S152.4,3.3,150.5,3.3z M150.5-2.7
						c-1.4,0-2.5,1.1-2.5,2.5s1.1,2.5,2.5,2.5s2.5-1.1,2.5-2.5S151.9-2.7,150.5-2.7z"/>
				</g>
				<g>
					<path class="st2" d="M268,116.8l0.6,4.1c0,0.2,0.1,0.4,0.3,0.5c0.1,0.1,0.3,0.2,0.5,0.3l4.1,0.6l-4.1,0.6
						c-0.2,0-0.4,0.1-0.5,0.3c-0.1,0.1-0.2,0.3-0.3,0.5l-0.6,4.1l-0.6-4.1c0-0.2-0.1-0.4-0.3-0.5c-0.1-0.1-0.3-0.2-0.5-0.3l-4.1-0.6
						l4.1-0.6c0.2,0,0.4-0.1,0.5-0.3c0.1-0.1,0.2-0.3,0.3-0.5L268,116.8z"/>
					<path class="st1" d="M268,128.3L268,128.3c-0.2,0-0.5-0.2-0.5-0.4l-0.6-4.1c0-0.1-0.1-0.2-0.1-0.2s-0.1-0.1-0.2-0.1l-4.1-0.6
						c-0.2,0-0.4-0.2-0.4-0.5s0.2-0.5,0.4-0.5l4.1-0.6c0.1,0,0.2-0.1,0.2-0.1s0.1-0.1,0.1-0.2l0.6-4.1c0-0.2,0.2-0.4,0.5-0.4l0,0
						c0.2,0,0.5,0.2,0.5,0.4l0.6,4.1c0,0.1,0.1,0.2,0.1,0.2s0.1,0.1,0.2,0.1l4.1,0.6c0.2,0,0.4,0.2,0.4,0.5s-0.2,0.5-0.4,0.5
						l-4.1,0.6c-0.1,0-0.2,0.1-0.2,0.1s-0.1,0.1-0.1,0.2l-0.6,4.1C268.5,128.1,268.2,128.3,268,128.3z M266,122.3l0.7,0.1
						c0.3,0.1,0.6,0.2,0.8,0.4c0.2,0.2,0.4,0.5,0.4,0.8l0.1,0.8l0.1-0.7c0-0.3,0.2-0.6,0.4-0.8c0.2-0.2,0.5-0.4,0.8-0.4l0.8-0.1
						l-0.7-0.1c-0.3-0.1-0.6-0.2-0.8-0.4c-0.2-0.2-0.4-0.5-0.4-0.8l-0.1-0.7l-0.1,0.7c-0.1,0.3-0.2,0.6-0.4,0.8
						c-0.2,0.2-0.5,0.4-0.8,0.4L266,122.3z"/>
				</g>
				<g>
					<path class="st2" d="M327,67.8l0.6,4.2c0,0.2,0.1,0.4,0.3,0.5c0.1,0.1,0.3,0.2,0.5,0.3l4.1,0.6l-4.1,0.6
						c-0.2,0-0.4,0.1-0.5,0.3c-0.1,0.1-0.2,0.3-0.3,0.5l-0.6,4.1l-0.6-4.2c0-0.2-0.1-0.4-0.3-0.5c-0.1-0.1-0.3-0.2-0.5-0.3l-4.1-0.6
						l4.1-0.6c0.2,0,0.4-0.1,0.5-0.3c0.1-0.1,0.2-0.3,0.3-0.5L327,67.8z"/>
					<path class="st1" d="M327,79.3L327,79.3c-0.2,0-0.5-0.2-0.5-0.4l-0.6-4.2c0-0.1-0.1-0.2-0.1-0.2s-0.1-0.1-0.2-0.1l-4.1-0.6
						c-0.2,0-0.4-0.2-0.4-0.5s0.2-0.5,0.4-0.5l4.1-0.6c0.1,0,0.2-0.1,0.2-0.1s0.1-0.1,0.1-0.2l0.6-4.1c0-0.2,0.2-0.4,0.5-0.4l0,0
						c0.2,0,0.5,0.2,0.5,0.4l0.6,4.2c0,0.1,0.1,0.2,0.1,0.2s0.1,0.1,0.2,0.1l4.1,0.6c0.2,0,0.4,0.2,0.4,0.5s-0.2,0.5-0.4,0.5
						l-4.1,0.6c-0.1,0-0.2,0.1-0.2,0.1s-0.1,0.1-0.1,0.2l-0.6,4.1C327.5,79.1,327.2,79.3,327,79.3z M325,73.3l0.7,0.1
						c0.3,0.1,0.6,0.2,0.8,0.4c0.2,0.2,0.4,0.5,0.4,0.8l0.1,0.8l0.1-0.7c0-0.3,0.2-0.6,0.4-0.8c0.2-0.2,0.5-0.4,0.8-0.4l0.8-0.1
						l-0.7-0.1c-0.3-0.1-0.6-0.2-0.8-0.4c-0.2-0.2-0.4-0.5-0.4-0.8l-0.1-0.7l-0.1,0.7c-0.1,0.3-0.2,0.6-0.4,0.8
						c-0.2,0.2-0.5,0.4-0.8,0.4L325,73.3z"/>
				</g>
				<g>
					<path class="st2" d="M96,153.8l1.2,7.9c0,0.4,0.2,0.7,0.5,1s0.6,0.4,1,0.5l7.9,1.1l-7.9,1.1c-0.4,0-0.7,0.2-1,0.5
						s-0.4,0.6-0.5,1l-1.1,7.9l-1.2-7.9c0-0.4-0.2-0.7-0.5-1s-0.6-0.4-1-0.5l-7.9-1.1l7.9-1.1c0.4,0,0.7-0.2,1-0.5s0.4-0.6,0.5-1
						L96,153.8z"/>
					<path class="st1" d="M96,175.3c-0.2,0-0.5-0.2-0.5-0.4l-1.2-7.9c0-0.3-0.2-0.5-0.3-0.7c-0.2-0.2-0.4-0.3-0.7-0.3l-7.9-1.1
						c-0.2,0-0.4-0.2-0.4-0.5s0.2-0.5,0.4-0.5l7.9-1.1c0.3,0,0.5-0.1,0.7-0.3s0.3-0.4,0.3-0.7l1.1-7.9c0-0.2,0.2-0.4,0.5-0.4l0,0
						c0.2,0,0.5,0.2,0.5,0.4l1.2,7.9c0,0.3,0.2,0.5,0.3,0.7c0.2,0.2,0.4,0.3,0.7,0.3l7.9,1.1c0.2,0,0.4,0.2,0.4,0.5
						c0,0.2-0.2,0.5-0.4,0.5l-7.9,1.1c-0.3,0-0.5,0.1-0.7,0.3s-0.3,0.4-0.3,0.7l-1.1,7.9C96.5,175.1,96.2,175.3,96,175.3L96,175.3z
						 M89,164.3l4.4,0.6c0.5,0.1,0.9,0.3,1.3,0.6c0.3,0.3,0.6,0.8,0.6,1.3l0.6,4.4l0.6-4.4c0.1-0.5,0.3-0.9,0.6-1.3
						c0.3-0.4,0.8-0.6,1.3-0.6l4.4-0.6l-4.4-0.6c-0.5-0.1-0.9-0.3-1.3-0.6c-0.3-0.3-0.6-0.8-0.6-1.3l-0.6-4.4l-0.6,4.4
						c-0.1,0.5-0.3,0.9-0.6,1.3c-0.3,0.4-0.8,0.6-1.3,0.6L89,164.3z"/>
				</g>
				<g>
					<path class="st2" d="M27,231.8l0.6,4.1c0,0.2,0.1,0.4,0.3,0.5c0.1,0.1,0.3,0.2,0.5,0.3l4.1,0.6l-4.1,0.6
						c-0.2,0-0.4,0.1-0.5,0.3c-0.1,0.1-0.2,0.3-0.3,0.5l-0.6,4.1l-0.6-4.1c0-0.2-0.1-0.4-0.3-0.5c-0.1-0.1-0.3-0.2-0.5-0.3l-4.1-0.6
						l4.1-0.6c0.2,0,0.4-0.1,0.5-0.3c0.1-0.1,0.2-0.3,0.3-0.5L27,231.8z"/>
					<path class="st1" d="M27,243.3L27,243.3c-0.2,0-0.5-0.2-0.5-0.4l-0.6-4.1c0-0.1-0.1-0.2-0.1-0.2s-0.1-0.1-0.2-0.1l-4.1-0.6
						c-0.2,0-0.4-0.2-0.4-0.5s0.2-0.5,0.4-0.5l4.1-0.6c0.1,0,0.2-0.1,0.2-0.1s0.1-0.1,0.1-0.2l0.6-4.1c0-0.2,0.2-0.4,0.5-0.4l0,0
						c0.2,0,0.5,0.2,0.5,0.4l0.6,4.1c0,0.1,0.1,0.2,0.1,0.2s0.1,0.1,0.2,0.1l4.1,0.6c0.2,0,0.4,0.2,0.4,0.5s-0.2,0.5-0.4,0.5
						l-4.1,0.6c-0.1,0-0.2,0.1-0.2,0.1s-0.1,0.1-0.1,0.2l-0.6,4.1C27.5,243.1,27.2,243.3,27,243.3z M25,237.3l0.7,0.1
						c0.3,0,0.6,0.2,0.8,0.4c0.2,0.2,0.4,0.5,0.4,0.8l0.1,0.8l0.1-0.7c0-0.3,0.2-0.6,0.4-0.8c0.2-0.2,0.5-0.4,0.8-0.4l0.8-0.1
						l-0.7-0.1c-0.3,0-0.6-0.2-0.8-0.4c-0.2-0.2-0.4-0.5-0.4-0.8l-0.1-0.7l-0.1,0.7c-0.1,0.3-0.2,0.6-0.4,0.8
						c-0.2,0.2-0.5,0.4-0.8,0.4H25z"/>
				</g>
				<g>
					<path class="st2" d="M417,119.8l0.6,4.2c0,0.2,0.1,0.4,0.3,0.5c0.1,0.1,0.3,0.2,0.5,0.3l4.1,0.6l-4.1,0.6
						c-0.4,0-0.7,0.4-0.8,0.8l-0.6,4.1l-0.6-4.1c0-0.2-0.1-0.4-0.3-0.5c-0.1-0.1-0.3-0.2-0.5-0.3l-4.1-0.6l4.1-0.6
						c0.4,0,0.7-0.4,0.8-0.8L417,119.8z"/>
					<path class="st1" d="M417,131.3L417,131.3c-0.2,0-0.5-0.2-0.5-0.4l-0.6-4.1c0-0.1-0.1-0.2-0.1-0.2s-0.1-0.1-0.2-0.1l-4.1-0.6
						c-0.2,0-0.4-0.2-0.4-0.5s0.2-0.5,0.4-0.5l4.1-0.6c0.2,0,0.3-0.2,0.3-0.3l0.6-4.2c0-0.2,0.2-0.4,0.5-0.4l0,0
						c0.2,0,0.5,0.2,0.5,0.4l0.6,4.2c0,0.1,0.1,0.2,0.1,0.2s0.1,0.1,0.2,0.1l4.1,0.6c0.2,0,0.4,0.2,0.4,0.5s-0.2,0.5-0.4,0.5
						l-4.1,0.6c-0.2,0-0.3,0.2-0.3,0.3l-0.6,4.2C417.5,131.1,417.2,131.3,417,131.3z M415,125.3l0.7,0.1c0.3,0.1,0.6,0.2,0.8,0.4
						c0.2,0.2,0.4,0.5,0.4,0.8l0.1,0.8l0.1-0.7c0.1-0.6,0.6-1.1,1.2-1.2l0.7-0.1l-0.7-0.1c-0.3-0.1-0.6-0.2-0.8-0.4
						c-0.2-0.2-0.4-0.5-0.4-0.8l-0.1-0.7l-0.1,0.7c-0.1,0.6-0.6,1.1-1.2,1.2L415,125.3z"/>
				</g>
				<g>
					<path class="st2" d="M85,231.8l0.6,4.1c0,0.4,0.4,0.7,0.8,0.8l4.1,0.6l-4.1,0.6c-0.4,0-0.7,0.4-0.8,0.8l-0.6,4.1l-0.6-4.1
						c0-0.2-0.1-0.4-0.3-0.5c-0.1-0.1-0.3-0.2-0.5-0.3l-4.1-0.6l4.1-0.6c0.4,0,0.7-0.4,0.8-0.8L85,231.8z"/>
					<path class="st1" d="M85,243.3L85,243.3c-0.2,0-0.5-0.2-0.5-0.4l-0.6-4.1c0-0.1-0.1-0.2-0.1-0.2s-0.1-0.1-0.2-0.1l-4.1-0.6
						c-0.2,0-0.4-0.2-0.4-0.5s0.2-0.5,0.4-0.5l4.1-0.6c0.2,0,0.3-0.2,0.3-0.3l0.6-4.2c0-0.2,0.2-0.4,0.5-0.4s0.5,0.2,0.5,0.4
						l0.6,4.1c0,0.2,0.2,0.3,0.3,0.3l4.2,0.6c0.2,0,0.4,0.2,0.4,0.5s-0.2,0.5-0.4,0.5l-4.1,0.6c-0.2,0-0.3,0.2-0.3,0.3l-0.6,4.2
						C85.5,243.1,85.2,243.3,85,243.3z M83,237.3l0.7,0.1c0.3,0,0.6,0.2,0.8,0.4c0.2,0.2,0.3,0.5,0.4,0.8l0.1,0.8l0.1-0.7
						c0.1-0.6,0.6-1.1,1.2-1.2l0.7-0.1l-0.7-0.1c-0.6-0.1-1.1-0.6-1.2-1.2l-0.1-0.7l-0.1,0.7c-0.1,0.6-0.6,1.1-1.2,1.2H83z"/>
				</g>
				<g>
					<path class="st2" d="M533,241.8l0.6,4.1c0,0.2,0.1,0.4,0.3,0.5c0.1,0.1,0.3,0.2,0.5,0.3l4.1,0.6l-4.1,0.6
						c-0.4,0-0.7,0.4-0.8,0.8l-0.6,4.1l-0.6-4.1c0-0.2-0.1-0.4-0.3-0.5c-0.1-0.1-0.3-0.2-0.5-0.3l-4.1-0.6l4.2-0.6
						c0.2,0,0.4-0.1,0.5-0.3c0.1-0.1,0.2-0.3,0.3-0.5L533,241.8z"/>
					<path class="st1" d="M533,253.3L533,253.3c-0.2,0-0.5-0.2-0.5-0.4l-0.6-4.1c0-0.1-0.1-0.2-0.1-0.2s-0.1-0.1-0.2-0.1l-4.1-0.6
						c-0.2,0-0.4-0.2-0.4-0.5s0.2-0.5,0.4-0.5l4.2-0.6c0.1,0,0.2-0.1,0.2-0.1s0.1-0.1,0.1-0.2l0.6-4.1c0-0.2,0.2-0.4,0.5-0.4l0,0
						c0.2,0,0.5,0.2,0.5,0.4l0.6,4.1c0,0.1,0.1,0.2,0.1,0.2c0.1,0.1,0.2,0.1,0.2,0.1l4.1,0.6c0.2,0,0.4,0.2,0.4,0.5
						s-0.2,0.5-0.4,0.5l-4.1,0.6c-0.2,0-0.3,0.2-0.3,0.3l-0.6,4.2C533.5,253.1,533.2,253.3,533,253.3z M531,247.3l0.7,0.1
						c0.3,0,0.6,0.2,0.8,0.4s0.4,0.5,0.4,0.8l0.1,0.8l0.1-0.7c0.1-0.6,0.6-1.1,1.2-1.2l0.7-0.1l-0.7-0.1c-0.3-0.1-0.6-0.2-0.8-0.4
						s-0.4-0.5-0.4-0.8l-0.1-0.7l-0.1,0.7c0,0.3-0.2,0.6-0.4,0.8s-0.5,0.4-0.8,0.4H531z"/>
				</g>
				<g>
					<path class="st2" d="M236,41.8l0.8,5.7c0,0.3,0.2,0.5,0.4,0.7s0.4,0.3,0.7,0.3l5.6,0.8l-5.6,0.8c-0.3,0-0.5,0.2-0.7,0.3
						c-0.2,0.2-0.3,0.4-0.3,0.7l-0.8,5.7l-0.8-5.7c0-0.3-0.2-0.5-0.4-0.7s-0.4-0.3-0.7-0.3l-5.6-0.8l5.6-0.8c0.3,0,0.5-0.2,0.7-0.3
						c0.2-0.2,0.3-0.4,0.3-0.7L236,41.8z"/>
					<path class="st1" d="M236,57.3L236,57.3c-0.2,0-0.5-0.2-0.5-0.4l-0.8-5.7c0-0.2-0.1-0.3-0.2-0.4c-0.1-0.1-0.2-0.2-0.4-0.2
						l-5.7-0.8c-0.2,0-0.4-0.2-0.4-0.5s0.2-0.5,0.4-0.5L234,48c0.1,0,0.3-0.1,0.4-0.2c0.1-0.1,0.2-0.2,0.2-0.4l0.8-5.7
						c0-0.2,0.2-0.4,0.5-0.4s0.5,0.2,0.5,0.4l0.8,5.7c0,0.2,0.1,0.3,0.2,0.4c0.1,0.1,0.2,0.2,0.4,0.2l5.7,0.8c0.2,0,0.4,0.2,0.4,0.5
						s-0.2,0.5-0.4,0.5l-5.6,0.8c-0.2,0-0.3,0.1-0.4,0.2c-0.1,0.1-0.2,0.2-0.2,0.4l-0.8,5.7C236.5,57.1,236.2,57.3,236,57.3z
						 M232,49.3l2.2,0.3c0.4,0,0.7,0.2,1,0.5s0.4,0.6,0.5,1l0.3,2.2l0.3-2.2c0-0.4,0.2-0.7,0.5-1s0.6-0.4,1-0.5l2.2-0.3l-2.2-0.3
						c-0.4,0-0.7-0.2-1-0.5s-0.4-0.6-0.5-1l-0.3-2.2l-0.3,2.2c0,0.4-0.2,0.7-0.5,1s-0.6,0.4-1,0.5L232,49.3z"/>
				</g>
				<g>
					<path class="st2" d="M467,251.8l0.8,5.7c0,0.3,0.2,0.5,0.4,0.7c0.2,0.2,0.4,0.3,0.7,0.3l5.6,0.8l-5.6,0.8
						c-0.3,0-0.5,0.2-0.7,0.4c-0.2,0.2-0.3,0.4-0.3,0.7l-0.8,5.6l-0.8-5.6c0-0.3-0.2-0.5-0.4-0.7c-0.2-0.2-0.4-0.3-0.7-0.3l-5.6-0.8
						l5.6-0.8c0.3,0,0.5-0.2,0.7-0.4c0.2-0.2,0.3-0.4,0.3-0.7L467,251.8z"/>
					<path class="st1" d="M467,267.3L467,267.3c-0.2,0-0.5-0.2-0.5-0.4l-0.8-5.6c0-0.2-0.1-0.3-0.2-0.4s-0.2-0.2-0.4-0.2l-5.7-0.8
						c-0.2,0-0.4-0.2-0.4-0.5s0.2-0.5,0.4-0.5l5.6-0.8c0.1,0,0.3-0.1,0.4-0.2s0.2-0.2,0.2-0.4l0.8-5.7c0-0.2,0.2-0.4,0.5-0.4
						s0.5,0.2,0.5,0.4l0.8,5.7c0,0.2,0.1,0.3,0.2,0.4s0.2,0.2,0.4,0.2l5.7,0.8c0.2,0,0.4,0.2,0.4,0.5s-0.2,0.5-0.4,0.5l-5.6,0.8
						c-0.2,0-0.3,0.1-0.4,0.2s-0.2,0.2-0.2,0.4l-0.8,5.7C467.5,267.1,467.2,267.3,467,267.3z M463,259.3l2.2,0.3
						c0.4,0,0.7,0.2,1,0.5s0.4,0.6,0.5,1l0.3,2.2l0.3-2.2c0-0.4,0.2-0.7,0.5-1s0.6-0.4,1-0.5l2.2-0.3l-2.2-0.3c-0.4,0-0.7-0.2-1-0.5
						s-0.4-0.6-0.5-1l-0.3-2.2l-0.3,2.2c0,0.4-0.2,0.7-0.5,1s-0.6,0.4-1,0.5L463,259.3z"/>
				</g>
				<g>
					<path class="st2" d="M348.5,110.9l0.8,5.6c0,0.3,0.2,0.5,0.4,0.7c0.2,0.2,0.4,0.3,0.7,0.3l5.6,0.8l-5.6,0.8
						c-0.3,0-0.5,0.2-0.7,0.4c-0.2,0.2-0.3,0.4-0.3,0.7l-0.8,5.6l-0.8-5.6c0-0.3-0.2-0.5-0.4-0.7c-0.2-0.2-0.4-0.3-0.7-0.3l-5.6-0.8
						l5.6-0.8c0.3,0,0.5-0.2,0.7-0.4c0.2-0.2,0.3-0.4,0.3-0.7L348.5,110.9z"/>
					<path class="st1" d="M348.5,126.4L348.5,126.4c-0.2,0-0.5-0.2-0.5-0.4l-0.8-5.6c0-0.2-0.1-0.3-0.2-0.4s-0.2-0.2-0.4-0.2
						l-5.7-0.8c-0.2,0-0.4-0.2-0.4-0.5s0.2-0.5,0.4-0.5l5.6-0.8c0.1,0,0.3-0.1,0.4-0.2s0.2-0.2,0.2-0.4l0.8-5.7
						c0-0.2,0.2-0.4,0.5-0.4s0.5,0.2,0.5,0.4l0.8,5.6c0,0.2,0.1,0.3,0.2,0.4s0.2,0.2,0.4,0.2l5.7,0.8c0.2,0,0.4,0.2,0.4,0.5
						s-0.2,0.5-0.4,0.5l-5.6,0.8c-0.2,0-0.3,0.1-0.4,0.2s-0.2,0.2-0.2,0.4L349,126C348.9,126.3,348.7,126.4,348.5,126.4z
						 M344.5,118.4l2.2,0.3c0.4,0,0.7,0.2,1,0.5s0.4,0.6,0.5,1l0.3,2.2l0.3-2.2c0-0.4,0.2-0.7,0.5-1s0.6-0.4,1-0.5l2.2-0.3l-2.2-0.3
						c-0.4,0-0.7-0.2-1-0.5s-0.4-0.6-0.5-1l-0.3-2.2l-0.3,2.2c0,0.4-0.2,0.7-0.5,1s-0.6,0.4-1,0.5L344.5,118.4z"/>
				</g>
				<g>
					<path class="st2" d="M391,74.8l1.5,10.2c0.1,0.5,0.3,0.9,0.6,1.2c0.3,0.3,0.8,0.5,1.2,0.6l10.1,1.5l-10.2,1.5
						c-1,0.1-1.7,0.9-1.9,1.9l-1.5,10.1l-1.5-10.2c-0.1-0.5-0.3-0.9-0.6-1.2c-0.3-0.3-0.8-0.5-1.2-0.6l-10.1-1.5l10.2-1.5
						c1-0.1,1.7-0.9,1.9-1.8L391,74.8z"/>
					<path class="st1" d="M391,102.3c-0.2,0-0.5-0.2-0.5-0.4L389,91.7c-0.1-0.4-0.2-0.7-0.5-1s-0.6-0.4-1-0.5l-10.1-1.5
						c-0.2,0-0.4-0.2-0.4-0.5c0-0.2,0.2-0.5,0.4-0.5l10.2-1.5c0.7-0.1,1.3-0.7,1.4-1.4l1.5-10.1c0-0.2,0.2-0.4,0.5-0.4l0,0
						c0.2,0,0.5,0.2,0.5,0.4l1.5,10.2c0.1,0.4,0.2,0.7,0.5,1s0.6,0.4,1,0.5l10.1,1.5c0.2,0,0.4,0.2,0.4,0.5s-0.2,0.5-0.4,0.5
						l-10.2,1.5c-0.7,0.1-1.3,0.7-1.4,1.4l-1.5,10.1C391.5,102.1,391.2,102.3,391,102.3L391,102.3z M381,88.3l6.8,1
						c0.6,0.1,1.1,0.4,1.5,0.8s0.7,1,0.8,1.5l1,6.8l1-6.8c0.2-1.2,1.1-2.1,2.3-2.3l6.8-1l-6.8-1c-0.6-0.1-1.1-0.4-1.5-0.8
						s-0.7-1-0.8-1.5l-1-6.8l-1,6.8c-0.2,1.2-1.1,2.1-2.3,2.3L381,88.3z"/>
				</g>
				<g>
					<ellipse class="st2" cx="387.5" cy="-30.2" rx="5.8" ry="5.8"/>
					<path class="st1" d="M387.5-26.7c-1.9,0-3.5-1.6-3.5-3.5c0-1.9,1.6-3.5,3.5-3.5s3.5,1.6,3.5,3.5S389.4-26.7,387.5-26.7z
						 M387.5-32.7c-1.4,0-2.5,1.1-2.5,2.5s1.1,2.5,2.5,2.5s2.5-1.1,2.5-2.5S388.9-32.7,387.5-32.7z"/>
				</g>
				<g>
					<ellipse class="st2" cx="343.5" cy="-10.2" rx="3.9" ry="3.9"/>
					<path class="st1" d="M343.5-7.7c-1.4,0-2.5-1.1-2.5-2.5s1.1-2.5,2.5-2.5s2.5,1.1,2.5,2.5S344.9-7.7,343.5-7.7z M343.5-11.7
						c-0.8,0-1.5,0.7-1.5,1.5c0,0.8,0.7,1.5,1.5,1.5s1.5-0.7,1.5-1.5C345-11,344.3-11.7,343.5-11.7z"/>
				</g>
				<g>
					<ellipse class="st2" cx="501.5" cy="271.8" rx="3.9" ry="3.9"/>
					<path class="st1" d="M501.5,274.3c-1.4,0-2.5-1.1-2.5-2.5s1.1-2.5,2.5-2.5s2.5,1.1,2.5,2.5S502.9,274.3,501.5,274.3z
						 M501.5,270.3c-0.8,0-1.5,0.7-1.5,1.5s0.7,1.5,1.5,1.5s1.5-0.7,1.5-1.5S502.3,270.3,501.5,270.3z"/>
				</g>
				<g>
					<ellipse class="st2" cx="445.5" cy="-4.2" rx="7.7" ry="7.7"/>
					<path class="st1" d="M445.5,0.3c-2.5,0-4.5-2-4.5-4.5s2-4.5,4.5-4.5s4.5,2,4.5,4.5S448,0.3,445.5,0.3z M445.5-7.7
						c-1.9,0-3.5,1.6-3.5,3.5s1.6,3.5,3.5,3.5s3.5-1.6,3.5-3.5S447.4-7.7,445.5-7.7z"/>
				</g>
				<g>
					<ellipse class="st2" cx="6.5" cy="185.8" rx="5.8" ry="5.8"/>
					<path class="st1" d="M6.5,189.3c-1.9,0-3.5-1.6-3.5-3.5s1.6-3.5,3.5-3.5s3.5,1.6,3.5,3.5S8.4,189.3,6.5,189.3z M6.5,183.3
						c-1.4,0-2.5,1.1-2.5,2.5s1.1,2.5,2.5,2.5s2.5-1.1,2.5-2.5S7.9,183.3,6.5,183.3z"/>
				</g>
				<g>
					<ellipse class="st2" cx="238.5" cy="149.8" rx="5.8" ry="5.8"/>
					<path class="st1" d="M238.5,153.3c-1.9,0-3.5-1.6-3.5-3.5s1.6-3.5,3.5-3.5s3.5,1.6,3.5,3.5C242,151.8,240.4,153.3,238.5,153.3z
						 M238.5,147.3c-1.4,0-2.5,1.1-2.5,2.5s1.1,2.5,2.5,2.5s2.5-1.1,2.5-2.5C241,148.5,239.9,147.3,238.5,147.3z"/>
				</g>
				<g>
					<ellipse class="st2" cx="2.5" cy="110.8" rx="3.9" ry="3.9"/>
					<path class="st1" d="M2.5,113.3c-1.4,0-2.5-1.1-2.5-2.5s1.1-2.5,2.5-2.5s2.5,1.1,2.5,2.5S3.9,113.3,2.5,113.3z M2.5,109.3
						c-0.8,0-1.5,0.7-1.5,1.5s0.7,1.5,1.5,1.5s1.5-0.7,1.5-1.5S3.3,109.3,2.5,109.3z"/>
				</g>
			</g>
		</g>
	</g>
</g>
<g>
	<g transform="translate(478.0 445.0) rotate(0.0 177.0 226.5) scale(1.9811510823576817 1.9749577106185583)">
		<g transform="translate(-0.0 -0.0)">
			<g class="st3">
				<g>
					<g>
						<path class="st2" d="M111.4,96.9v-0.7c0-3.7-2.7-6.9-6.4-7.4L12.4,75C6,74.4,0.5,79.4,0.5,85.8V91c0,13.8,11.2,25.1,25.1,25.1
							h67.8v3.5c0,9,3.3,17.7,9.2,24.5l8.4,9.7l17.7-12.8L111.4,96.9z"/>
					</g>
				</g>
				<g>
					<g>
						<path class="st1" d="M110.9,154.3c-0.1,0-0.3-0.1-0.4-0.2l-8.4-9.7c-6-6.9-9.3-15.7-9.3-24.8v-3H25.6
							C11.5,116.6,0,105.2,0,91.1v-5.2C0,79.3,5.7,74,12.4,74.6L105,88.4c3.9,0.6,6.8,4,6.8,7.9v0.6l17.3,44.1
							c0.1,0.2,0,0.5-0.2,0.6l-17.7,12.8C111.1,154.3,111,154.3,110.9,154.3z M11.4,75.5C5.6,75.5,1,80.1,1,85.8V91
							c0,13.5,11,24.6,24.6,24.6h67.8c0.3,0,0.5,0.2,0.5,0.5v3.5c0,8.9,3.2,17.4,9.1,24.1l8.1,9.4l17-12.3L111,97c0-0.1,0-0.1,0-0.2
							v-0.7c0-3.4-2.6-6.4-6-6.9L12.3,75.5C12,75.5,11.7,75.5,11.4,75.5z"/>
					</g>
				</g>
			</g>
			<g class="st3">
				<g>
					<g>
						<path class="st2" d="M99-5.3L95.8-8c-0.3-0.5-0.4-1.1-0.1-1.7l0.9-2.2c0.1-0.2,0.1-0.5,0.1-0.7v-2.1H97v-3.6
							c0-7.2-5.9-13.1-13.1-13.1h-0.5c-2.1,0-3.7,1.7-3.7,3.7v13h2.2v6.6L69.6,1.1l0,0v0.1l-0.2,0.1v0.6L67.5,10h-7.9
							c-7.6,0-14.5,4.5-17.5,11.4l-7.6,17.4c-2.4,5.5-5.9,10.4-10.2,14.4L10,66.6C4.3,71.9,0.9,79.2,0.5,87l39.3-1.7L74.7,46V31.5
							l3,5.3L84,9.3h8.9c2.1,0,3.8-1.7,3.8-3.7v-6.9l1.9-1C99.8-2.8,100-4.4,99-5.3z"/>
					</g>
				</g>
				<g>
					<g>
						<path class="st1" d="M0.5,87.5c-0.1,0-0.3-0.1-0.4-0.1C0,87.2,0,87.1,0,86.9C0.4,79,3.8,71.6,9.6,66.2l14.3-13.3
							c4.3-4,7.7-8.9,10.1-14.3l7.6-17.4c3.1-7.1,10.2-11.7,18-11.7h7.5l1.8-7.8V1.2c0-0.2,0.1-0.3,0.2-0.4l0.1-0.1
							c0.1-0.1,0.1-0.1,0.2-0.2l12-8.9v-5.9h-1.7c-0.3,0-0.5-0.2-0.5-0.5v-13c0-2.3,1.9-4.2,4.2-4.2h0.5c7.5,0,13.6,6.1,13.6,13.6
							v3.6c0,0.2-0.1,0.4-0.3,0.5v1.7c0,0.3-0.1,0.6-0.2,0.9l-0.9,2.2C96-9.1,96-8.7,96.2-8.3l3.1,2.7c0.6,0.5,0.9,1.3,0.8,2.1
							S99.5-2,98.8-1.7l-1.6,0.8v6.6c0,1.1-0.4,2.2-1.2,3c-0.8,0.8-1.9,1.2-3,1.2l0,0h-8.5l-6.2,27c0,0.2-0.2,0.4-0.4,0.4
							c-0.2,0-0.4-0.1-0.5-0.2l-2.1-3.7V46c0,0.1,0,0.2-0.1,0.3l-35,39.3c-0.1,0.1-0.2,0.2-0.4,0.2L0.5,87.5L0.5,87.5z M59.6,10.5
							c-7.4,0-14.1,4.4-17.1,11.1L34.9,39c-2.4,5.6-5.9,10.5-10.4,14.6L10.3,66.9C4.8,72.1,1.5,79,1,86.4l38.6-1.7l34.6-39V31.5
							c0-0.2,0.2-0.4,0.4-0.5c0.2-0.1,0.4,0,0.6,0.2l2.4,4.2l6-26.2c0-0.2,0.2-0.4,0.4-0.4l0,0h8.9l0,0c0.9,0,1.7-0.3,2.3-1
							s1-1.4,1-2.3v-6.9c0-0.2,0.1-0.4,0.3-0.4l1.9-1c0.4-0.2,0.7-0.6,0.7-1.1c0.1-0.5-0.1-0.9-0.5-1.2l-3.1-2.7l-0.1-0.1
							c-0.4-0.5-0.4-1.3-0.2-2l0.9-2.2c0.1-0.2,0.1-0.3,0.1-0.5v-2.1c0-0.2,0.1-0.4,0.3-0.5v-3.2c0-7-5.7-12.6-12.6-12.6h-0.5
							c-1.8,0-3.2,1.5-3.2,3.2v12.5h1.7c0.3,0,0.5,0.2,0.5,0.5v6.6c0,0.2-0.1,0.3-0.2,0.4L69.9,1.5l0,0v0.3v0.1L68,10.1
							c-0.1,0.2-0.3,0.4-0.5,0.4H59.6L59.6,10.5z"/>
					</g>
				</g>
			</g>
			<g>
				<path class="st1" d="M79.5,71.6c-0.3,0-0.5-0.2-0.5-0.5V27.7c0-0.3,0.2-0.5,0.5-0.5s0.5,0.2,0.5,0.5v43.4
					C80,71.4,79.7,71.6,79.5,71.6z"/>
			</g>
			<g class="st3">
				<g>
					<g>
						<path class="st2" d="M19.9,75.8L9.5,67l-1.1,1.1c-3.6,3.6-6.1,8-7.2,12.9c-0.5,1.1-0.7,2.3-0.7,3.6v2.2c0,0.1,0,0.1,0,0.2l0,0
							v4.1c0,13.8,11.2,25.1,25.1,25.1h54.3v-31L19.9,75.8z"/>
					</g>
				</g>
				<g>
					<g>
						<path class="st1" d="M79.9,116.6H25.6C11.5,116.6,0,105.2,0,91.1v-4C0,87,0,87,0,87v-0.1v-2.3c0-1.3,0.3-2.6,0.7-3.8
							c1.1-4.9,3.7-9.5,7.3-13.1l1.1-1.1c0.2-0.2,0.5-0.2,0.7,0l10.3,8.7L80,84.6c0.2,0,0.4,0.2,0.4,0.5v31
							C80.4,116.4,80.2,116.6,79.9,116.6z M1,86.9L1,86.9v4.2c0,13.5,11,24.6,24.6,24.6h53.8V85.5l-59.5-9.2c-0.1,0-0.2-0.1-0.2-0.1
							L9.5,67.7l-0.8,0.8C5.2,72,2.8,76.3,1.6,81.2C1.2,82.3,1,83.4,1,84.6v2.2C1,86.8,1,86.9,1,86.9L1,86.9z"/>
					</g>
				</g>
			</g>
			<g class="st3">
				<path class="st2" d="M174.1,190.9h-46.8c-0.8,0-1.5-0.7-1.5-1.5v-7.1c0-0.8,0.7-1.5,1.5-1.5h48.3c1.4,0,2.6,1.2,2.6,2.6v3.4
					C178.2,189.1,176.3,190.9,174.1,190.9z"/>
				<path class="st1" d="M174.1,191.4h-46.8c-1.1,0-2-0.9-2-2v-7.1c0-1.1,0.9-2,2-2h48.3c1.7,0,3.1,1.4,3.1,3.1v3.4
					C178.7,189.3,176.6,191.4,174.1,191.4z M127.3,181.3c-0.6,0-1,0.4-1,1v7.1c0,0.6,0.4,1,1,1h46.8c2,0,3.6-1.6,3.6-3.6v-3.4
					c0-1.2-1-2.1-2.1-2.1H127.3L127.3,181.3z"/>
			</g>
			<g>
				<path class="st1" d="M76.2-19.2c0-5.9,7.7-10.7,17.1-10.7c8.1,0,14.8,3.5,16.7,8.1c0.5,1.2-0.5,2.5-1.8,2.5h-32V-19.2z"/>
			</g>
			<g>
				<path class="st1" d="M77.4-27.6c0-5,6.5-9.1,14.6-9.1c6.9,0,12.6,3,14.2,6.9c0.4,1-0.4,2.1-1.5,2.1H77.4V-27.6z"/>
			</g>
			<g>
				<path class="st1" d="M71.1,3.1l2.2,1c2.9,1.3,6.2-0.8,6.2-4v-28.5c0-2.1-1.7-3.7-3.7-3.7H74c-8,0-14.2,7.1-13,15.1l1.3,8.8
					C63.1-3.3,66.4,1,71.1,3.1z"/>
			</g>
			<g class="st3">
				<path class="st2" d="M83.8,9.3l-2.9-0.2c-0.8,0-1.3,0.7-1.2,1.4"/>
				<path class="st1" d="M79.7,11c-0.2,0-0.4-0.1-0.5-0.4c-0.1-0.5,0-1,0.3-1.4c0.3-0.4,0.8-0.6,1.3-0.6l2.9,0.2
					c0.3,0,0.5,0.3,0.5,0.5c0,0.3-0.2,0.5-0.5,0.5l-2.9-0.2c-0.2,0-0.4,0.1-0.5,0.2c-0.1,0.2-0.2,0.4-0.1,0.6
					c0.1,0.3-0.1,0.5-0.4,0.6C79.8,11,79.8,11,79.7,11z"/>
			</g>
			<g>
				<rect x="74.1" y="-8" class="st4" width="5.4" height="8.3"/>
			</g>
			<g class="st3">
				<path class="st2" d="M93.4,0.2L93.8,1c0.2,0.5,0.6,0.8,1.1,1l1.7,0.5V0.2H93.4z"/>
				<path class="st1" d="M96.6,3L96.6,3l-1.8-0.5c-0.6-0.2-1.1-0.6-1.4-1.2L93,0.5c-0.1-0.2-0.1-0.3,0-0.5c0.1-0.1,0.2-0.2,0.4-0.2
					h3.3c0.1,0,0.3,0,0.4,0.1s0.1,0.2,0.1,0.4v2.3c0,0.2-0.1,0.3-0.2,0.4C96.8,2.9,96.7,3,96.6,3z M94.2,0.7l0.1,0.1
					c0.2,0.3,0.5,0.6,0.8,0.7l1.1,0.3V0.7H94.2z"/>
			</g>
			<g>
				<polygon class="st1" points="76.7,-12 93.3,-12 93.6,-14.7 76.7,-14.7 				"/>
			</g>
			<g>
				<path class="st4" d="M74.3-6.2h8.2v-8.5h-8.2c-1.9,0-3.4,1.5-3.4,3.4v1.8C70.9-7.7,72.4-6.2,74.3-6.2z"/>
			</g>
			<g>
				<path d="M61.3-30.1c0-4.3,5.7-7.9,12.6-7.9c6.9,0,12.6,3.5,12.6,7.9"/>
			</g>
			<g>
				<path class="st1" d="M69.4-26.7h13.1v25.3C82.5,2.7,79.2,6,75,6h-5.6V-26.7L69.4-26.7z"/>
			</g>
			<g>
				<path class="st1" d="M78-31h15.4v8.8c0,4.1-3.4,7.5-7.5,7.5H78V-31z"/>
			</g>
			<g>
				<path class="st1" d="M125.1,173.7l-1.2,5.2c-0.7,3,1.6,5.9,4.7,5.9h44.9c1.5,0,2.7-1.2,2.7-2.7l0,0c0-1.4-1-2.5-2.4-2.7
					l-7.1-0.8c-2-0.2-3.9-0.8-5.7-1.8l-16.8-9.7c-3.4-2-6.2-5-7.8-8.6l-7.7-17.4l-18.2,12L125.1,173.7z"/>
				<path class="st1" d="M173.5,185.2h-44.9c-1.6,0-3.1-0.7-4.1-2s-1.4-2.9-1-4.5l1.1-5l-14.8-20.9l19.1-12.6l8,18
					c1.6,3.6,4.2,6.5,7.6,8.4l16.8,9.7c1.7,1,3.5,1.6,5.5,1.8l7.1,0.8c1.6,0.2,2.8,1.5,2.8,3.2C176.6,183.8,175.2,185.2,173.5,185.2
					z M111.1,153.2l14.5,20.4l-1.2,5.4c-0.3,1.3,0,2.6,0.8,3.6s2,1.6,3.4,1.6h44.9c1.2,0,2.2-1,2.2-2.2c0-1.1-0.8-2.1-2-2.2
					l-7.1-0.8c-2.1-0.2-4.1-0.9-5.9-1.9l-16.8-9.7c-3.6-2.1-6.3-5.1-8-8.9l-7.5-16.9L111.1,153.2z"/>
			</g>
			<g>
				<g>
					<path class="st2" d="M93.8-7.5c-0.3,0-0.6-0.3-0.6-0.6v-5.4c0-0.3,0.3-0.6,0.6-0.6h3.6c0.3,0,0.6,0.3,0.6,0.6v5.4
						c0,0.3-0.3,0.6-0.6,0.6C97.5-7.5,93.8-7.5,93.8-7.5z"/>
				</g>
				<g>
					<path class="st1" d="M97.5-13.7c0.1,0,0.1,0.1,0.1,0.1v5.4c0,0.1-0.1,0.1-0.1,0.1h-3.6c-0.1,0-0.1-0.1-0.1-0.1v-5.4
						c0-0.1,0.1-0.1,0.1-0.1L97.5-13.7 M97.5-14.7h-3.6c-0.6,0-1.1,0.5-1.1,1.1v5.4c0,0.6,0.5,1.1,1.1,1.1h3.6
						c0.6,0,1.1-0.5,1.1-1.1v-5.4C98.6-14.2,98.1-14.7,97.5-14.7L97.5-14.7z"/>
				</g>
			</g>
			<g>
				<path class="st1" d="M80.3,73.3h-1.8c-0.6,0-0.9-0.6-0.7-1.1l0.9-1.8c0.3-0.6,1.1-0.6,1.3,0l0.9,1.8
					C81.2,72.7,80.9,73.3,80.3,73.3z"/>
			</g>
			<g class="st3">
				<path class="st2" d="M68.4,44.2c0.1-0.9,1.2-1.3,1.8-0.7l3.5,3"/>
				<path class="st1" d="M73.8,47c-0.1,0-0.2,0-0.3-0.1l-3.5-3c-0.2-0.1-0.4-0.2-0.6-0.1c-0.2,0.1-0.4,0.3-0.4,0.5
					c0,0.3-0.3,0.5-0.6,0.4c-0.3,0-0.5-0.3-0.4-0.6c0.1-0.6,0.5-1.1,1-1.3c0.6-0.2,1.2-0.1,1.6,0.3l3.5,3c0.2,0.2,0.2,0.5,0.1,0.7
					C74.1,46.9,73.9,47,73.8,47z"/>
			</g>
			<g>
				<path class="st1" d="M71.7-10.3C71.7-16.2,64-21,54.6-21c-8.1,0-14.8,3.5-16.7,8.1c-0.5,1.2,0.5,2.5,1.8,2.5L71.7-10.3
					L71.7-10.3z"/>
			</g>
			<g>
				<path class="st1" d="M78-2.8c0-5.5-7.1-9.9-15.9-9.9c-7.5,0-13.8,3.2-15.5,7.6C46.2-4,47-2.8,48.2-2.8H78z"/>
			</g>
			<g>
				<path class="st1" d="M73.9,1.7c4.6,0,6-6.2,1.9-8.2c-2.2-1.1-4.9-1.7-7.8-1.7c-6.5,0-12,3.2-13.5,7.6c-0.4,1.1,0.4,2.3,1.4,2.3
					H73.9z"/>
			</g>
			<g>
				<path class="st1" d="M76.2,6.1c3.4,0,4.4-4.5,1.4-6C76-0.8,74-1.2,71.8-1.2c-4.8,0-8.8,2.4-9.9,5.6c-0.3,0.8,0.3,1.7,1,1.7
					C62.9,6.1,76.2,6.1,76.2,6.1z"/>
			</g>
			<g>
				<path class="st1" d="M76.2-20c0-5.9-7.7-10.7-17.1-10.7c-8.1,0-14.8,3.5-16.7,8.1c-0.5,1.2,0.5,2.5,1.8,2.5h32V-20z"/>
			</g>
			<g>
				<path class="st1" d="M90.8-27.1c0-5.9-7.7-10.7-17.1-10.7c-8.1,0-14.8,3.5-16.7,8.1c-0.5,1.2,0.5,2.5,1.8,2.5
					C58.7-27.1,90.8-27.1,90.8-27.1z"/>
			</g>
			<g>
				<ellipse class="st1" cx="158" cy="183.3" rx="17.5" ry="3.7"/>
			</g>
			<g>
				<path class="st4" d="M148.2,51.4l2.1,3.5c0.6,1.1,2,1.5,3.2,1l0.3-0.1c0.4-0.2,0.5-0.6,0.4-0.9l-1.5-3.4
					c-0.4-0.9-1.5-1.3-2.4-0.9L148.2,51.4z"/>
			</g>
			<g class="st3">
				<g>
					<g>
						<path class="st2" d="M155.9,52.2h-3.7v-0.5c0-1-0.8-1.8-1.8-1.8h-3.3c-1.8,0-3.5,0.7-4.8,1.8l-1.7,1.5c-0.6,0.3-1,0.8-1.3,1.4
							L114.1,50c-1.6-0.2-3.3-0.3-4.9-0.3H95.3v12.5c0,2.1,1.7,3.7,3.7,3.7h46.3l0,0h3.7c1.5,0,2.9-0.9,3.6-2.2l3.8-7.6h-0.1
							c0.8-0.2,1.5-0.9,1.5-1.8V54C157.8,53,157,52.2,155.9,52.2z"/>
					</g>
				</g>
				<g>
					<g>
						<path class="st1" d="M145.3,66.5H99.1c-2.3,0-4.2-1.9-4.2-4.2V49.7c0-0.3,0.2-0.5,0.5-0.5h13.8c1.7,0,3.4,0.1,5,0.3l24.9,4.5
							c0.3-0.5,0.8-0.9,1.3-1.2l1.6-1.4c1.4-1.2,3.2-1.9,5.1-1.9h3.3c1.3,0,2.3,1,2.3,2.3h3.2c1.3,0,2.4,1.1,2.4,2.4v0.3
							c0,1-0.6,1.9-1.6,2.2l-3.7,7.4c-0.8,1.5-2.3,2.5-4,2.5h-3.6C145.4,66.5,145.4,66.5,145.3,66.5z M95.8,50.2v12
							c0,1.8,1.5,3.2,3.2,3.2h46.1h0.1h3.7c1.3,0,2.5-0.7,3.1-1.9l3.7-7.4c0-0.2,0.1-0.4,0.4-0.4c0.6-0.1,1.1-0.7,1.1-1.3v-0.3
							c0-0.8-0.6-1.4-1.4-1.4h-3.7c-0.3,0-0.5-0.2-0.5-0.5v-0.5c0-0.7-0.6-1.3-1.3-1.3H147c-1.6,0-3.2,0.6-4.5,1.7l-1.7,1.5
							c-0.6,0.3-1,0.7-1.2,1.2c-0.1,0.2-0.3,0.3-0.5,0.3L114,50.5c-1.6-0.2-3.2-0.3-4.9-0.3H95.8L95.8,50.2z"/>
					</g>
				</g>
			</g>
			<g class="st3">
				<g>
					<g>
						<path class="st2" d="M104.5,49.8L71.3,18.2c-0.6-0.7-1.3-1.4-2.1-2l-5.1-4.9l-1.6,2c-0.6-0.1-1.2-0.1-1.8-0.1h-1
							c-7.6,0-14.5,1.2-17.5,8.2l-7.6,17.4c-1.1,2.5-2.4,4.9-4,7.2l24.3,22.5L74,46.7l23.3,18.8L104.5,49.8z"/>
					</g>
				</g>
				<g>
					<g>
						<path class="st1" d="M54.7,68.9c-0.1,0-0.2,0-0.3-0.1L30.1,46.3c-0.2-0.2-0.2-0.4-0.1-0.7c1.5-2.2,2.8-4.6,3.9-7.1l7.6-17.4
							c3.3-7.5,10.9-8.5,18-8.5h1c0.5,0,1,0,1.6,0.1l1.5-1.8c0.1-0.1,0.2-0.2,0.4-0.2c0.1,0,0.3,0,0.4,0.1l5.1,4.9
							c0.7,0.6,1.5,1.3,2.1,2l33.2,31.6c0.2,0.1,0.2,0.4,0.1,0.6l-7.2,15.7c-0.1,0.1-0.2,0.2-0.3,0.3c-0.2,0-0.3,0-0.4-0.1L74,47.4
							L55.1,68.8C55,68.9,54.9,68.9,54.7,68.9C54.8,68.9,54.7,68.9,54.7,68.9z M31.1,45.9l23.6,21.8l18.9-21.3
							c0.2-0.2,0.5-0.2,0.7-0.1l22.8,18.4l6.8-14.8l-33-31.4c-0.6-0.7-1.3-1.4-2-1.9l-4.8-4.5l-1.3,1.6c-0.1,0.1-0.3,0.2-0.5,0.2
							c-0.7-0.1-1.2-0.1-1.8-0.1h-1c-7.1,0-14,1-17.1,7.9L34.9,39C33.9,41.4,32.6,43.7,31.1,45.9z"/>
					</g>
				</g>
			</g>
			<g class="st3">
				<path class="st2" d="M37.6,31.2l3.1-6.4c5.8-12.1,21.8-15,31.4-5.7l0,0L67,13.4c-3.2-3.5-8.1-5-12.6-3.7l-22,6.2l4.6,7.3
					L37.6,31.2z"/>
				<path class="st1" d="M37.6,31.7C37.6,31.7,37.5,31.7,37.6,31.7c-0.3-0.1-0.5-0.2-0.5-0.5l-0.6-7.8L32,16.2
					c-0.1-0.1-0.1-0.3,0-0.4c0.1-0.1,0.2-0.3,0.3-0.3l22-6.2c1.1-0.3,2.3-0.5,3.5-0.5c3.7,0,7.2,1.6,9.7,4.3l5,5.6
					c0.1,0.1,0.2,0.2,0.2,0.4c0,0.3-0.2,0.5-0.5,0.5l0,0c-0.1,0-0.3,0-0.3-0.1c-3.6-3.5-8.3-5.4-13.3-5.4c-7.5,0-14.1,4.2-17.3,10.9
					l-3.1,6.4C38,31.5,37.8,31.7,37.6,31.7z M33.2,16.2l4.3,6.7c0,0.1,0.1,0.1,0.1,0.2l0.5,6.1l2.3-4.7C43.8,17.4,50.8,13,58.6,13
					c3.5,0,6.9,0.9,9.9,2.6l-1.7-1.9c-2.3-2.5-5.5-4-8.9-4c-1.1,0-2.2,0.2-3.2,0.4L33.2,16.2z"/>
			</g>
			<g>
				<path class="st1" d="M156.5,56.6h-2.9c-0.3,0-0.5-0.2-0.5-0.5s0.2-0.5,0.5-0.5h2.9c0.3,0,0.5,0.2,0.5,0.5S156.8,56.6,156.5,56.6
					z"/>
			</g>
			<g>
				<path class="st1" d="M153,52.7h-5.8c-0.3,0-0.5-0.2-0.5-0.5s0.2-0.5,0.5-0.5h5.8c0.3,0,0.5,0.2,0.5,0.5S153.3,52.7,153,52.7z"/>
			</g>
		</g>
	</g>
</g>
<g>
	<g transform="translate(807.0 477.0) rotate(0.0 29.5 88.0) scale(2.1139376567538517 2.0845424074096006)">
		<g transform="translate(-0.0 -0.0)">
			<g>
				<g>
					<g>
						<path class="st2" d="M15.1,47.9H2.3c-1,0-1.8-0.8-1.8-1.8s0.8-1.8,1.8-1.8h12.8c1.9,0,3.8-0.1,5.6-0.5h0.1
							c0.3-0.1,3-0.6,3-3.1c-0.1-1.3-0.3-2.5-0.6-3.8c-1.9-8-3.8-14.9-5.1-19.4L18,17.1c-0.1-0.5-0.3-1.1-0.5-1.7
							C16.6,12,14.3,3.1,11.7,3.1c-1,0-1.8-0.8-1.8-1.8s0.8-1.8,1.8-1.8c5.3,0,7.6,8.6,9.3,14.9c0.2,0.6,0.3,1.2,0.5,1.7l0.1,0.5
							c1.3,4.6,3.2,11.5,5.1,19.6c0.4,1.5,0.6,3.1,0.7,4.6c0,4.5-3.8,6.3-5.9,6.6C19.4,47.8,17.2,48,15.1,47.9z"/>
						<path class="st1" d="M15.9,48.5c-0.3,0-0.5,0-0.8,0H2.3c-1.3,0-2.3-1-2.3-2.3s1-2.3,2.3-2.3h13.2c1.7,0,3.4-0.2,5.1-0.5h0.1
							h0.1c0.3-0.1,2.5-0.6,2.5-2.6c-0.1-1.2-0.3-2.4-0.6-3.6c-1.9-8.1-3.8-14.9-5.1-19.4l-0.1-0.5c-0.1-0.5-0.3-1.1-0.5-1.7
							c-2.6-9.8-4.4-11.9-5.4-11.9c-1.3,0-2.3-1-2.3-2.3s1-2.3,2.3-2.3c5.7,0,8.1,8.8,9.8,15.2c0.2,0.6,0.3,1.2,0.5,1.7l0.1,0.5
							c1.3,4.6,3.2,11.5,5.1,19.6c0.4,1.5,0.6,3.1,0.7,4.7c0,4.8-4.2,6.8-6.3,7.1C19.7,48.3,17.8,48.5,15.9,48.5z M15.1,44.9H2.3
							c-0.7,0-1.3,0.6-1.3,1.3s0.6,1.3,1.3,1.3h12.8c0.3,0,0.5,0,0.8,0c1.8,0,3.7-0.2,5.5-0.5c2.1-0.3,5.5-2,5.5-6.1
							c-0.1-1.5-0.3-3-0.7-4.5c-1.9-8.1-3.8-15-5.1-19.6L21,16.2c-0.1-0.5-0.3-1.1-0.5-1.7C18.9,8.4,16.6,0,11.7,0
							c-0.7,0-1.3,0.6-1.3,1.3s0.6,1.3,1.3,1.3c2.6,0,4.7,6.4,6.3,12.6c0.2,0.6,0.3,1.2,0.5,1.7l0.1,0.5c1.3,4.5,3.2,11.4,5.1,19.5
							c0.3,1.2,0.5,2.5,0.6,3.8c0,2.2-1.8,3.3-3.4,3.6h-0.2c-1.7,0.4-3.5,0.5-5.3,0.5L15.1,44.9z"/>
					</g>
					<g>
						<path class="st2" d="M16.4-35.1l-0.9-0.4l-15,73.6h1c2.3,0,4.3-1.6,4.8-3.8l13-64C19.7-32,18.5-34.2,16.4-35.1z"/>
						<path class="st1" d="M1.5,38.6L1.5,38.6C1.5,38.6,1.4,38.6,1.5,38.6h-1c-0.1,0-0.3-0.1-0.4-0.2C0,38.3,0,38.1,0,38l15-73.6
							c0-0.1,0.1-0.3,0.3-0.3c0.1-0.1,0.3-0.1,0.4,0l0.9,0.4c2.3,1,3.6,3.5,3.1,5.9l-13,64C6.1,36.9,4,38.6,1.5,38.6z M1.1,37.6h0.3
							l0,0c2,0,3.8-1.4,4.2-3.4l13-64c0.4-2-0.6-4-2.5-4.8l-0.3-0.1L1.1,37.6z"/>
					</g>
				</g>
			</g>
		</g>
	</g>
</g>
<g>
	<g transform="translate(738.0 570.0) rotate(0.0 20.0 29.5) scale(2.3729014652666547 2.3986665040452086)">
		<rect x="-11.6" y="-48.5" class="st5" width="40" height="59"/>
		<g transform="translate(-0.0 -0.0)">
			<g>
				<path class="st1" d="M15.9-6.7c-0.3,0-0.6-0.2-0.8-0.5L0.2-29.7c-0.3-0.5-0.2-1.1,0.3-1.4s1.1-0.2,1.4,0.3L16.7-8.2
					c0.3,0.5,0.2,1.1-0.3,1.4C16.2-6.7,16-6.7,15.9-6.7z"/>
			</g>
		</g>
	</g>
</g>
<g>
	<g transform="translate(924.0 519.0) rotate(0.0 25.5 24.0) scale(2.420388211285653 2.4)">
		<rect x="-15" y="-45.3" class="st5" width="51" height="48"/>
		<g transform="translate(-0.0 -0.0)">
			<g>
				<path class="st6" d="M10.2-14.2H5.4c-1.8,0-3.4-1.2-3.9-2.9l-1.4-5c-0.3-1-0.1-2.1,0.4-3s1.4-1.6,2.4-1.9
					c0.3-0.1,0.7-0.1,1.1-0.1h5L10.2-14.2z M4-25.3c-0.2,0-0.4,0-0.5,0.1c-1.1,0.3-1.7,1.4-1.4,2.5l0,0l0,0l1.4,5
					c0.2,0.9,1,1.5,1.9,1.5H8l-0.8-9C7.2-25.2,4-25.2,4-25.3z"/>
				<path class="st6" d="M7.1-11.2h12c1.2-6.3,1.9-12.6,2-19c0-0.6-0.4-1-1-1h-14c-0.6,0-1,0.4-1,1C5.2-23.9,5.9-17.5,7.1-11.2z"/>
			</g>
		</g>
	</g>
</g>
<g>
	<g transform="translate(996.0 492.0) rotate(0.0 126.0 119.5) scale(2.041213063763608 2.0422113987866357)">
		<g transform="translate(-0.0 -0.0)">
			<g>
				<g>
					<ellipse class="st2" cx="61.7" cy="21.8" rx="61.2" ry="58"/>
					<path class="st1" d="M61.7,80.3C27.7,80.3,0,54.1,0,21.8s27.7-58.5,61.7-58.5s61.7,26.3,61.7,58.5S95.8,80.3,61.7,80.3z
						 M61.7-35.7C28.2-35.7,1-9.9,1,21.8s27.2,57.5,60.7,57.5s60.7-25.8,60.7-57.5S95.2-35.7,61.7-35.7z"/>
				</g>
				<g>
					<ellipse class="st2" cx="61.7" cy="21.8" rx="49" ry="46.4"/>
					<path class="st1" d="M61.7,68.7c-27.3,0-49.5-21-49.5-46.9s22.2-46.9,49.5-46.9s49.5,21,49.5,46.9S89,68.7,61.7,68.7z
						 M61.7-24.1C35-24.1,13.2-3.5,13.2,21.8S35,67.7,61.7,67.7s48.5-20.6,48.5-45.9S88.5-24.1,61.7-24.1z"/>
				</g>
				<g>
					<ellipse class="st2" cx="61.7" cy="21.8" rx="36.7" ry="34.8"/>
					<path class="st1" d="M61.7,57.1c-20.5,0-37.2-15.8-37.2-35.3s16.7-35.3,37.2-35.3S99,2.3,99,21.8S82.3,57.1,61.7,57.1z
						 M61.7-12.5c-20,0-36.2,15.4-36.2,34.3s16.3,34.3,36.2,34.3S98,40.7,98,21.8S81.7-12.5,61.7-12.5z"/>
				</g>
				<g>
					<ellipse class="st2" cx="61.8" cy="22" rx="41.4" ry="41.4"/>
					<path class="st1" d="M61.8,42.8C50.4,42.8,41,33.5,41,22S50.4,1.3,61.8,1.3S82.6,10.6,82.6,22S73.3,42.8,61.8,42.8z M61.8,2.3
						C50.9,2.3,42,11.1,42,22s8.9,19.8,19.8,19.8S81.6,32.9,81.6,22S72.7,2.3,61.8,2.3z"/>
				</g>
			</g>
		</g>
	</g>
</g>
<g>
	<g transform="translate(978.0 550.0) rotate(0.0 43.5 52.0) scale(2.289473684210526 2.311111111111111)">
		<rect x="-24.5" y="-62" class="st5" width="87" height="104"/>
		<g transform="translate(-0.0 -0.0)">
			<g id="surface1_4_-i7">
				<g>
					<rect x="17.5" y="-21" class="st2" width="2" height="15"/>
					<path class="st1" d="M19.5-5.5h-2C17.2-5.5,17-5.7,17-6v-15c0-0.3,0.2-0.5,0.5-0.5h2c0.3,0,0.5,0.2,0.5,0.5v15
						C20-5.7,19.8-5.5,19.5-5.5z M18-6.5h1v-14h-1V-6.5z"/>
				</g>
				<g>
					<path class="st2" d="M18.5-5l-2-0.1c0.1-3.6-1.6-7.1-4.6-9.2l1.2-1.6C16.6-13.3,18.6-9.2,18.5-5z"/>
					<path class="st1" d="M18.5-4.5L18.5-4.5l-2-0.1c-0.1,0-0.3-0.1-0.3-0.2C16-4.8,16-4.9,16-5c0.1-3.5-1.5-6.7-4.4-8.7
						c-0.1-0.1-0.2-0.2-0.2-0.3s0-0.3,0.1-0.4l1.2-1.6c0.2-0.2,0.5-0.3,0.7-0.1C17-13.6,19.1-9.4,19-4.9C19-4.7,18.8-4.5,18.5-4.5z
						 M17-5.5h1c0-3.8-1.8-7.3-4.8-9.6l-0.6,0.8C15.4-12.2,17-9,17-5.5z"/>
				</g>
				<g>
					<path class="st2" d="M18.5-5c-0.1-4.3,1.9-8.4,5.4-10.9l1.2,1.6c-3,2.1-4.7,5.6-4.6,9.2L18.5-5L18.5-5z"/>
					<path class="st1" d="M20.5-4.5L20.5-4.5h-2C18.2-4.5,18-4.7,18-5c-0.1-4.5,2-8.7,5.6-11.3c0.2-0.2,0.5-0.1,0.7,0.1l1.2,1.6
						c0.1,0.1,0.1,0.2,0.1,0.4c0,0.1-0.1,0.2-0.2,0.3c-2.8,2-4.5,5.2-4.4,8.6c0,0,0,0.1,0,0.2C21-4.7,20.8-4.5,20.5-4.5z M19-5.5h1
						c0-3.5,1.6-6.7,4.4-8.8l-0.6-0.8C20.8-12.8,19-9.2,19-5.5z"/>
				</g>
				<g>
					<path class="st2" d="M27-23c4.3,0,9.2,3.4,10.5,4.3c-2.8,1.1-4.6,4.4-9.5,5.1c-3.3,0.4-4-0.8-4-0.8s-2.6-0.3-2.6-4
						C21.5-20.3,23.1-23,27-23z"/>
					<path class="st1" d="M26.7-13c-1.8,0-2.7-0.6-3-0.9c-0.7-0.2-2.8-1-2.8-4.5c0-2,1.7-5.1,6-5.1s9,3.1,10.8,4.4
						c0.1,0.1,0.2,0.3,0.2,0.5s-0.1,0.3-0.3,0.4c-0.9,0.4-1.8,1.1-2.8,1.8c-1.7,1.3-3.6,2.9-6.8,3.3C27.6-13,27.2-13,26.7-13z
						 M24.5-14.6c0,0,0.5,0.6,2.3,0.6c0.4,0,0.8,0,1.2-0.1c2.9-0.4,4.7-1.8,6.3-3.1c0.7-0.6,1.4-1.1,2.2-1.6c-1.9-1.3-6-3.7-9.5-3.7
						c-3.6,0-5,2.5-5,4.1c0,3.2,2,3.5,2.1,3.5C24.2-14.8,24.4-14.8,24.5-14.6L24.5-14.6z"/>
				</g>
				<g>
					<path class="st2" d="M28.3-8c4.6-0.6,6.4-9.5,9.2-10.6c-2.2-0.3-5.6,1-13.4,4.3C22.3-9.5,24.9-7.5,28.3-8z"/>
					<path class="st1" d="M27.3-7.4L27.3-7.4c-1.6,0-2.8-0.6-3.6-1.6c-0.6-0.9-1.2-2.6-0.1-5.5c0-0.1,0.1-0.2,0.3-0.3
						c8.1-3.4,11.4-4.6,13.7-4.3c0.2,0,0.4,0.2,0.4,0.4c0,0.2-0.1,0.4-0.3,0.5c-1,0.4-2,2.2-3,4c-1.6,2.9-3.4,6.2-6.3,6.6
						C28-7.5,27.6-7.4,27.3-7.4z M24.5-14c-0.6,1.9-0.6,3.4,0.1,4.3c0.5,0.8,1.5,1.2,2.8,1.2l0,0c0.3,0,0.6,0,0.9-0.1
						c2.5-0.3,4.1-3.4,5.6-6.1c0.8-1.4,1.4-2.7,2.2-3.5C33.9-17.9,30.6-16.6,24.5-14z"/>
				</g>
				<g>
					<path class="st2" d="M13-22.1c-4.2-2.1-10.9,0.3-12.5,0.9c2.5,1.5,2.1,9.5,6.6,10.9c3.2,1,5.7-0.2,5.9-4.5
						C16.6-16.8,16-20.6,13-22.1z"/>
					<path class="st1" d="M9.1-9.5L9.1-9.5C8.4-9.5,7.7-9.6,7-9.8c-2.9-1-3.9-4.2-4.8-7c-0.6-1.8-1.1-3.5-1.9-4
						C0.1-20.9,0-21.1,0-21.3c0-0.2,0.1-0.4,0.3-0.4c1.2-0.4,4.9-1.7,8.5-1.7c1.7,0,3.2,0.3,4.4,0.9c1.6,0.8,2.7,2.3,2.7,3.9
						s-0.9,3.1-2.5,4.1C13.2-10.1,10.6-9.5,9.1-9.5z M1.5-21c0.7,0.9,1.2,2.3,1.7,3.9c0.8,2.6,1.7,5.6,4.1,6.4
						c0.7,0.2,1.3,0.3,1.8,0.3c2.6,0,3.3-2.4,3.4-4.4c0-0.2,0.1-0.3,0.3-0.4c1.4-0.8,2.2-2,2.2-3.3s-0.9-2.4-2.2-3.1
						c-1.1-0.5-2.4-0.8-4-0.8C6-22.5,3-21.6,1.5-21z"/>
				</g>
				<g>
					<path class="st2" d="M7.1-10.3C2.6-11.8,3-19.8,0.5-21.2C2.7-21,5.9-19.1,13-14.8C12.8-10.5,10.4-9.3,7.1-10.3z"/>
					<path class="st1" d="M9.2-9.5C8.5-9.5,7.8-9.6,7-9.8c-2.9-1-3.9-4.2-4.8-7c-0.6-1.8-1.1-3.5-1.9-4C0-20.9,0-21.2,0-21.4
						c0.1-0.2,0.3-0.4,0.5-0.3c2.4,0.2,5.6,2.2,12.8,6.5c0.2,0.1,0.3,0.3,0.2,0.5C13.3-10.1,10.7-9.5,9.2-9.5z M1.9-20.4
						c0.5,0.9,0.9,2,1.2,3.3c0.8,2.6,1.7,5.6,4.1,6.4c0.7,0.2,1.3,0.3,1.9,0.3c2,0,3.1-1.4,3.4-4.1C7.2-17.8,4-19.7,1.9-20.4z"/>
				</g>
				<g>
					<path class="st2" d="M18.5-32c-1.8,2-2.9,4.6-3,7.4c0,4.6,3,4.6,3,4.6s3,0,3-2.8C21.5-25.1,18.5-27.3,18.5-32z"/>
					<path class="st1" d="M18.5-19.5c0,0-3.5-0.1-3.5-5.1c0.1-2.9,1.2-5.6,3.1-7.7c0.1-0.2,0.4-0.2,0.5-0.1c0.2,0.1,0.3,0.3,0.3,0.5
						c0,2.6,1,4.3,1.8,5.9c0.6,1.2,1.2,2.2,1.2,3.4C22-20.1,19.7-19.5,18.5-19.5z M18.1-30.6c-1.3,1.8-2,3.9-2.1,6.1
						c0,4,2.4,4.1,2.5,4.1c0.3,0,2.5-0.1,2.5-2.3c0-0.9-0.5-1.8-1.1-2.9C19.2-26.9,18.3-28.5,18.1-30.6z"/>
				</g>
				<g>
					<path class="st2" d="M7.5-3l3,15h16l3-15H7.5z"/>
					<path class="st1" d="M26.5,12.5h-16c-0.2,0-0.4-0.2-0.5-0.4l-3-15C7-3,7-3.2,7.1-3.3c0.1-0.1,0.2-0.2,0.4-0.2h22
						c0.1,0,0.3,0.1,0.4,0.2C30-3.2,30-3,30-2.9l-3,15C26.9,12.4,26.7,12.5,26.5,12.5z M10.9,11.5h15.2l2.8-14H8.1L10.9,11.5z"/>
				</g>
				<g>
					<path class="st2" d="M29.5,0h-22c-0.6,0-1-0.4-1-1v-4h24v4C30.5-0.4,30,0,29.5,0z"/>
					<path class="st1" d="M29.5,0.5h-22C6.7,0.5,6-0.1,6-1v-4c0-0.3,0.2-0.5,0.5-0.5h24C30.8-5.5,31-5.2,31-5v4
						C30.9-0.1,30.3,0.5,29.5,0.5L29.5,0.5z M7-4.5V-1c0,0.3,0.2,0.5,0.5,0.5h22C29.8-0.5,30-0.7,30-1v-3.5H7z"/>
				</g>
			</g>
		</g>
	</g>
</g>
<g>
	<g transform="translate(895.0 625.0) rotate(0.0 46.0 13.0) scale(2.875 2.888888888888889)">
		<rect x="-30" y="-34.5" class="st5" width="92" height="26"/>
		<g transform="translate(-0.0 -0.0)">
			<g>
				<rect y="-26" class="st1" width="32" height="9"/>
				<rect x="5" y="-26" class="st2" width="2" height="9"/>
				<rect x="25" y="-26" class="st2" width="2" height="9"/>
				<rect x="10" y="-23" class="st2" width="12" height="3"/>
			</g>
		</g>
	</g>
</g>
<g>
	<g transform="translate(891.0 592.0) rotate(0.0 50.0 16.0) scale(3.5714285714285716 3.5555555555555554)">
		<rect x="-36" y="-32.6" class="st5" width="100" height="32"/>
		<g transform="translate(-0.0 -0.0)">
			<g>
				<g>
					<rect x="0.5" y="-20.6" class="st2" width="27" height="8"/>
					<path class="st1" d="M27.5-12.1h-27c-0.3,0-0.5-0.2-0.5-0.5v-8c0-0.3,0.2-0.5,0.5-0.5h27c0.3,0,0.5,0.2,0.5,0.5v8
						C28-12.3,27.8-12.1,27.5-12.1z M1-13.1h26v-7H1V-13.1z"/>
				</g>
				<g>
					<rect x="3.5" y="-20.6" class="st2" width="2" height="8"/>
					<path class="st1" d="M5.5-12.1h-2c-0.3,0-0.5-0.2-0.5-0.5v-8c0-0.3,0.2-0.5,0.5-0.5h2c0.3,0,0.5,0.2,0.5,0.5v8
						C6-12.3,5.8-12.1,5.5-12.1z M4-13.1h1v-7H4V-13.1z"/>
				</g>
				<g>
					<rect x="22.5" y="-20.6" class="st2" width="2" height="8"/>
					<path class="st1" d="M24.5-12.1h-2c-0.3,0-0.5-0.2-0.5-0.5v-8c0-0.3,0.2-0.5,0.5-0.5h2c0.3,0,0.5,0.2,0.5,0.5v8
						C25-12.3,24.8-12.1,24.5-12.1z M23-13.1h1v-7h-1V-13.1z"/>
				</g>
				<g>
					<rect x="8.5" y="-17.9" class="st2" width="11" height="2.7"/>
					<path class="st1" d="M19.5-14.8h-11C8.2-14.8,8-15,8-15.3V-18c0-0.3,0.2-0.5,0.5-0.5h11c0.3,0,0.5,0.2,0.5,0.5v2.7
						C20-15,19.8-14.8,19.5-14.8z M9-15.8h10v-1.7H9V-15.8z"/>
				</g>
			</g>
		</g>
	</g>
</g>
<g>
	<g transform="translate(901.0 563.0) rotate(0.0 45.0 15.0) scale(2.727272727272727 2.727272727272727)">
		<rect x="-28.5" y="-37" class="st5" width="90" height="30"/>
		<g transform="translate(-0.0 -0.0)">
			<g>
				<g>
					<rect x="0.5" y="-27" class="st2" width="32" height="10"/>
					<path class="st1" d="M32.5-16.5h-32C0.2-16.5,0-16.7,0-17v-10c0-0.3,0.2-0.5,0.5-0.5h32c0.3,0,0.5,0.2,0.5,0.5v10
						C33-16.7,32.8-16.5,32.5-16.5z M1-17.5h31v-9H1V-17.5z"/>
				</g>
				<g>
					<rect x="5.5" y="-27" class="st2" width="2" height="10"/>
					<path class="st1" d="M7.5-16.5h-2C5.2-16.5,5-16.7,5-17v-10c0-0.3,0.2-0.5,0.5-0.5h2C7.8-27.5,8-27.3,8-27v10
						C8-16.7,7.8-16.5,7.5-16.5z M6-17.5h1v-9H6V-17.5z"/>
				</g>
				<g>
					<rect x="25.5" y="-27" class="st2" width="2" height="10"/>
					<path class="st1" d="M27.5-16.5h-2c-0.3,0-0.5-0.2-0.5-0.5v-10c0-0.3,0.2-0.5,0.5-0.5h2c0.3,0,0.5,0.2,0.5,0.5v10
						C28-16.7,27.8-16.5,27.5-16.5z M26-17.5h1v-9h-1V-17.5z"/>
				</g>
				<g>
					<rect x="10.5" y="-24" class="st2" width="12" height="4"/>
					<path class="st1" d="M22.5-19.5h-12c-0.3,0-0.5-0.2-0.5-0.5v-4c0-0.3,0.2-0.5,0.5-0.5h12c0.3,0,0.5,0.2,0.5,0.5v4
						C23-19.7,22.8-19.5,22.5-19.5z M11-20.5h11v-3H11V-20.5z"/>
				</g>
			</g>
		</g>
	</g>
</g>
<g>
	<g transform="translate(393.0 506.0) rotate(0.0 107.0 206.5) scale(2.067473045561696 2.0549615130089514)">
		<g transform="translate(-0.0 -0.0)">
			<g>
				<g>
					<g class="st3">
						<path class="st2" d="M6-30.5C6,11.4,19.3,19,19.3,48.2c0,23.3-1.6,45.4,29.5,45.4h46.9v-7.8c0-3.1-2.5-5.5-5.5-5.5H48.8
							c-4.3,0-10-0.5-12.5-3.1c-3.8-3.8-3.8-14.9-3.7-25.7v-3.4c0-15.3-3.2-25.7-6.4-35.7c-3.4-10.9-6.9-22.2-6.9-43l0,0
							c0-3-2.5-5.5-5.5-5.5H6V-30.5z"/>
						<path class="st1" d="M95.8,94.1h-47c-10.2,0-17.5-2.3-22.2-7.1c-7.9-7.9-7.8-21.3-7.8-35.5c0-1.1,0-2.2,0-3.3
							C18.8,35,16,26,13.1,16.6C9.6,5.3,5.5-7.6,5.5-30.5V-36c0-0.1,0.1-0.3,0.1-0.4c0.1-0.1,0.2-0.1,0.4-0.1h7.8c3.3,0,6,2.7,6,6
							c0,20.7,3.5,31.9,6.9,42.8v0.1c3.1,10,6.4,20.4,6.4,35.8v3.4c0,10.6-0.1,21.6,3.6,25.3c2.4,2.4,7.9,2.9,12.1,2.9h41.4
							c3.3,0,6,2.7,6,6v7.8C96.3,93.9,96,94.1,95.8,94.1z M6.5-35.4v5c0,22.7,4,35.5,7.5,46.8c3,9.5,5.8,18.5,5.8,31.9
							c0,1.1,0,2.2,0,3.3c0,14-0.1,27.2,7.5,34.7c4.6,4.6,11.6,6.8,21.5,6.8h46.4v-7.3c0-2.8-2.3-5-5-5H48.8
							c-4.4,0-10.2-0.6-12.8-3.2c-4-4-3.9-15.2-3.9-26v-3.4c0-15.2-3.2-25.5-6.3-35.5l0.4-0.2l-0.5,0.1c-3.4-10.9-6.9-22.2-6.9-43.1
							c0-2.7-2.3-5-5-5L6.5-35.4L6.5-35.4z"/>
					</g>
					<g class="st3">
						<path class="st2" d="M90.2,99.1H48.8c-11.6,0-20-2.8-25.8-8.6c-9.3-9.4-9.2-23.8-9.2-39v-3.3c0-12.5-2.5-20.6-5.5-30.1
							C4.6,6.4,0.5-6.8,0.5-30.5C0.5-33.5,3-36,6-36h5.5v5.5c0,21.9,3.7,33.8,7.3,45.3c3.1,9.9,6,19.2,6,33.4v3.3
							c0,12.9-0.1,25.1,6,31.2c3.6,3.6,9.5,5.3,18,5.3h46.9v5.5C95.8,96.6,93.3,99.1,90.2,99.1L90.2,99.1L90.2,99.1z"/>
						<path class="st1" d="M90.2,99.6H48.8c-11.7,0-20.3-2.9-26.2-8.8c-9.4-9.4-9.4-23.7-9.4-38.8v-3.9c0-12.5-2.6-20.6-5.5-29.9
							C4.1,6.6,0-6.7,0-30.5c0-3.3,2.7-6,6-6h5.5c0.3,0,0.5,0.2,0.5,0.5v5.5c0,21.9,3.7,33.7,7.3,45.1c3.1,9.9,6,19.3,6,33.5V52
							c0,12.6,0,24.5,5.9,30.3c3.5,3.5,9.3,5.2,17.6,5.2h46.9c0.3,0,0.5,0.2,0.5,0.5v5.5C96.2,96.8,93.6,99.4,90.2,99.6
							C90.3,99.6,90.3,99.6,90.2,99.6z M6-35.5c-2.8,0-5,2.3-5,5C1-6.9,5.1,6.3,8.7,18c3,9.4,5.6,17.6,5.6,30.2V52
							c0,14.9,0,29,9.1,38.1c5.7,5.7,14,8.5,25.5,8.5H90c0.1,0,0.1,0,0.2,0c2.8,0,5-2.3,5-5v-5H48.8c-8.6,0-14.6-1.8-18.3-5.5
							c-6.2-6.2-6.1-18.3-6.1-31v-3.8c0-14.1-2.9-23.4-6-33.2c-3.6-11.5-7.3-23.4-7.3-45.4v-5H6V-35.5z"/>
					</g>
					<g>
						<path class="st1" d="M60.3,94.7c-1.8,0-3.3-1.5-3.3-3.3c0-1.3,0.7-2.4,1.9-3C59.1,88.3,78,79.1,78,65.7c0-3-0.7-6.5-6.5-6.5
							H20.4c-1.8,0-3.3-1.5-3.3-3.3s1.5-3.3,3.3-3.3h51.1c8.1,0,13.1,5,13.1,13.1c0,17.6-22,28.2-23,28.7
							C61.3,94.6,60.8,94.7,60.3,94.7z"/>
					</g>
					<g>
						<path class="st1" d="M77,148.6c0,0-2.3-4.1-18.9-4.1c-11,0-15.7,1.8-17.5,2.9c-0.6,0.3-1,0.7-1.4,1.2l-1.4-0.5l-1.1-0.2
							l-4-0.3c0.2-2.3,2.6-9.7,25.5-9.7s25.3,7.4,25.5,9.7l-6.6,0.5C76.9,148.3,77,148.5,77,148.6z"/>
					</g>
					<g class="st3">
						<path class="st2" d="M95.8,153.9c-0.6-2.6-8.7-9.4-37.7-9.4s-37.1,6.8-37.7,9.4c0-0.1,0-0.2,0-0.2l-6.6-0.5
							c0.2-2.5,3.3-15.2,44.3-15.2s44.1,12.7,44.3,15.2l-6.6,0.5C95.7,153.8,95.7,153.8,95.8,153.9z"/>
						<path class="st1" d="M20.4,154.4L20.4,154.4c-0.3,0-0.4-0.1-0.4-0.3l-6.2-0.5c-0.3,0-0.5-0.3-0.5-0.5
							c0.2-2.6,3.3-15.7,44.8-15.7c41.4,0,44.6,13.1,44.8,15.7c0,0.1,0,0.3-0.1,0.4c-0.1,0.1-0.2,0.2-0.3,0.2l-6.2,0.5
							c-0.1,0.2-0.3,0.3-0.5,0.3s-0.4-0.1-0.5-0.4c-0.6-2.3-8.6-9-37.2-9c-28.7,0-36.6,6.7-37.2,9C20.9,154.3,20.7,154.4,20.4,154.4
							z M14.4,152.7l5.9,0.5c1.6-3,10.6-9.1,37.9-9.1c26.6,0,36.1,5.6,37.9,9.1l5.8-0.5c-0.6-3.3-5.5-14.3-43.7-14.3
							C19.7,138.4,14.9,149.4,14.4,152.7z"/>
					</g>
					<g class="st3">
						<rect x="51.5" y="99.1" class="st2" width="13.3" height="41"/>
						<path class="st1" d="M64.7,140.6H51.5c-0.3,0-0.5-0.2-0.5-0.5v-41c0-0.3,0.2-0.5,0.5-0.5h13.3c0.3,0,0.5,0.2,0.5,0.5v41
							C65.2,140.4,65,140.6,64.7,140.6z M52,139.6h12.3v-40H52V139.6z"/>
					</g>
					<g class="st3">
						<path class="st2" d="M52.6,133.5h11.1c1.8,0,3.3,1.5,3.3,3.3v6.6c0,1.8-1.5,3.3-3.3,3.3H52.6c-1.8,0-3.3-1.5-3.3-3.3v-6.6
							C49.2,135,50.7,133.5,52.6,133.5z"/>
						<path class="st1" d="M63.6,147.3h-11c-2.1,0-3.8-1.7-3.8-3.8v-6.6c0-2.1,1.7-3.8,3.8-3.8h11.1c2.1,0,3.8,1.7,3.8,3.8v6.6
							C67.5,145.5,65.7,147.3,63.6,147.3z M52.6,134c-1.6,0-2.8,1.3-2.8,2.8v6.6c0,1.6,1.3,2.8,2.8,2.8h11.1c1.6,0,2.8-1.3,2.8-2.8
							v-6.6c0-1.6-1.3-2.8-2.8-2.8H52.6z"/>
					</g>
					<g>
						<g class="st3">
							<path class="st2" d="M58.1,160.1c-1.8,0-3.3-1.5-3.3-3.3v-15.5c0-1.8,1.5-3.3,3.3-3.3s3.3,1.5,3.3,3.3l0,0v15.5
								C61.4,158.6,59.9,160.1,58.1,160.1z"/>
							<path class="st1" d="M58.1,160.5c-2.1,0-3.8-1.7-3.8-3.8v-15.5c0-2.1,1.7-3.8,3.8-3.8s3.8,1.7,3.8,3.8v15.5
								C61.9,158.8,60.2,160.5,58.1,160.5z M58.1,138.4c-1.6,0-2.8,1.3-2.8,2.8v15.5c0,1.6,1.3,2.8,2.8,2.8s2.8-1.3,2.8-2.8v-15.5
								C60.9,139.7,59.7,138.4,58.1,138.4z"/>
						</g>
						<g>
							<path class="st1" d="M55.9,156.7h4.4c1.2,0,2.2,1,2.2,2.2v3.3c0,1.2-1,2.2-2.2,2.2h-4.4c-1.2,0-2.2-1-2.2-2.2v-3.3
								C53.7,157.7,54.7,156.7,55.9,156.7z"/>
						</g>
						<g>
							<path class="st1" d="M14.9,152.3h4.4c1.2,0,2.2,1,2.2,2.2v3.3c0,1.2-1,2.2-2.2,2.2h-4.4c-1.2,0-2.2-1-2.2-2.2v-3.3
								C12.7,153.3,13.7,152.3,14.9,152.3z"/>
						</g>
						<g>
							<path class="st1" d="M33.7,146.8h4.4c1.2,0,2.2,1,2.2,2.2v3.3c0,1.2-1,2.2-2.2,2.2h-4.4c-1.2,0-2.2-1-2.2-2.2V149
								C31.5,147.7,32.5,146.8,33.7,146.8z"/>
						</g>
						<g>
							<path class="st1" d="M78,146.8h4.4c1.2,0,2.2,1,2.2,2.2v3.3c0,1.2-1,2.2-2.2,2.2H78c-1.2,0-2.2-1-2.2-2.2V149
								C75.8,147.7,76.8,146.8,78,146.8z"/>
						</g>
						<g>
							<path class="st1" d="M96.9,152.3h4.4c1.2,0,2.2,1,2.2,2.2v3.3c0,1.2-1,2.2-2.2,2.2h-4.4c-1.2,0-2.2-1-2.2-2.2v-3.3
								C94.6,153.3,95.6,152.3,96.9,152.3z"/>
						</g>
					</g>
				</g>
			</g>
		</g>
	</g>
</g>
<g>
	<g transform="translate(331.0 285.0) rotate(0.0 91.5 91.5) scale(1.8837238028574959 1.8837238028574959)">
		<g transform="translate(-0.0 -0.0)">
			<g>
				<g>
					<circle class="st1" cx="48.6" cy="8.8" r="41.5"/>
					<path class="st1" d="M48.6,50.8c-23.2,0-42-18.8-42-42s18.8-42,42-42s42,18.8,42,42S71.7,50.8,48.6,50.8z M48.6-32.2
						c-22.6,0-41,18.4-41,41s18.4,41,41,41s41-18.4,41-41S71.2-32.2,48.6-32.2z"/>
				</g>
				<g>
					<g>
						<path class="st2" d="M85,6.9l-3.9-1.1l0,0l-0.5-0.1c-3.1-0.6-6.4-0.5-9.5,0.2c-5.8,1.7-2.4,6.1-9.4,4.1
							c-0.9-0.3-0.9-4.4-0.5-5.9c0.2-0.7,3.2-1.3,4.6-1.6c1-0.2,1.8-1.1,1.8-2.1l-1.3-3c0-0.9,0.5-1.8,1.4-2.3L73.1-7
							c1.2-0.5,2.2-1.3,2.8-2.3l6.3-6.1C87.3-8.5,90.1,0,90.1,8.8"/>
						<path class="st1" d="M64.6,10.9c-0.8,0-1.7-0.2-3-0.5c-0.2-0.1-0.5-0.3-0.6-0.5c-0.7-1.2-0.6-4.6-0.2-6c0.2-0.7,1.3-1.1,4-1.7
							C65.1,2.1,65.5,2,65.7,2c0.8-0.2,1.3-0.8,1.4-1.6l-1.3-2.9c0-0.1,0-0.1,0-0.2c0-1.1,0.6-2.2,1.6-2.7l5.4-2.1
							c1.1-0.4,2-1.1,2.6-2.1c0,0,0-0.1,0.1-0.1l6.3-6.1c0.1-0.1,0.2-0.1,0.4-0.1c0.1,0,0.3,0.1,0.4,0.2c5.2,7.2,8,15.7,8,24.7
							c0,0.3-0.2,0.5-0.5,0.5l0,0c-0.3,0-0.5-0.2-0.5-0.5c0-8.5-2.6-16.7-7.5-23.6l-5.8,5.7c-0.7,1.1-1.8,2-3.1,2.5l-5.4,2.1
							c-0.6,0.3-1,1-1,1.7L68.1,0c0,0.1,0,0.2,0,0.2c-0.1,1.2-1,2.3-2.2,2.6C65.7,2.9,65.4,3,65,3.1c-0.9,0.2-3,0.7-3.3,1.1
							c-0.4,1.5-0.2,4.9,0.2,5.3c3.6,1,4,0.3,4.8-0.9c0.7-1,1.6-2.4,4.2-3.2c3.2-0.7,6.5-0.8,9.7-0.2l4.5,1.3
							c0.3,0.1,0.4,0.4,0.3,0.6c-0.1,0.3-0.4,0.4-0.6,0.3l-4.4-1.3c-3-0.5-6.2-0.5-9.2,0.2c-2.3,0.7-3,1.8-3.6,2.7
							C66.9,10.1,66.2,10.9,64.6,10.9z"/>
					</g>
					<g>
						<path class="st2" d="M59.5,33.9L59.5,33.9C59.8,35,61,39.4,62,44c0.2,0.9,0.5,2.1,0.7,3.3c2.8-1.1,5.4-2.5,7.9-4.1
							c2.3-1.6,4.5-3.4,6.4-5.4l-17.7-4.2C59.5,33.8,59.5,33.9,59.5,33.9z"/>
						<path class="st1" d="M62.7,47.9c-0.1,0-0.2,0-0.2-0.1c-0.1-0.1-0.2-0.2-0.3-0.3c-0.3-1.2-0.6-2.4-0.7-3.3
							c-1-4.8-2.2-9.2-2.5-10.1c0-0.1,0-0.2-0.1-0.3c-0.1-0.2,0-0.4,0.1-0.5s0.3-0.2,0.5-0.2l17.7,4.2c0.2,0,0.3,0.2,0.4,0.3
							c0.1,0.2,0,0.4-0.1,0.5c-2,2-4.2,3.8-6.5,5.4c-2.5,1.7-5.2,3.1-8,4.2C62.9,47.8,62.8,47.9,62.7,47.9z M60.1,34.3
							c0.4,1.5,1.5,5.4,2.4,9.6c0.1,0.7,0.4,1.7,0.6,2.7c2.5-1,5-2.3,7.3-3.9c2-1.4,4-2.9,5.7-4.7L60.1,34.3z"/>
					</g>
					<g>
						<path class="st2" d="M48.8-17.7L45.6-6.6c-1.3,4.5-5.1,3.4-8,2.6c-7.2-2-7.9,2.1-8.6,4.8s-1.3,4.5-3.3,3.9s-0.1-4.8-3.4-5.8
							l-2-0.6l-11-3.1c5-14.4,17.4-24.9,32.4-27.4c-1,1.3-1.8,2.7-2.4,4.3c-0.8,2.7,2,4.2,5.8,5.3C49.6-21.4,49-18.4,48.8-17.7z"/>
						<path class="st1" d="M26.4,5.3c-0.3,0-0.5,0-0.8-0.1c-1.2-0.3-1.3-1.5-1.5-2.7c-0.2-1.4-0.3-2.7-1.9-3.1l-2-0.6l-11-3.1
							C9-4.4,8.9-4.5,8.9-4.6C8.8-4.7,8.8-4.8,8.8-5c5-14.5,17.6-25.1,32.8-27.7c0.2,0,0.4,0.1,0.5,0.2c0.1,0.2,0.1,0.4,0,0.6
							c-1,1.3-1.7,2.7-2.3,4.1c-0.3,1,0,1.9,1,2.6c0.9,0.7,2.3,1.4,4.4,1.9c4.9,1.4,4.3,4.8,4.1,5.5L46.1-6.4
							c-0.7,2.4-2.2,3.7-4.5,3.7c-1.3,0-2.8-0.4-4-0.8C36.2-3.9,35.1-4,34.2-4c-3.4,0-4.1,2.4-4.7,4.5L29.4,1
							C28.7,3.4,28.2,5.3,26.4,5.3z M10-5.1l12.4,3.5C24.6-1,24.8,0.9,25,2.3c0.1,1.1,0.3,1.7,0.8,1.9c1.5,0.4,1.9-0.8,2.6-3.5
							l0.1-0.5C29.2-1.9,30-5,34.2-5c1,0,2.2,0.2,3.5,0.5c1.2,0.3,2.6,0.7,3.8,0.7c1.9,0,3-0.9,3.6-2.9l3.2-11.2
							c0.3-0.9,0.5-3.2-3.4-4.3c-2.2-0.6-3.8-1.3-4.8-2.1c-1.3-1-1.7-2.3-1.3-3.8c0.5-1.2,1.1-2.3,1.8-3.4
							C26.5-28.7,14.9-18.7,10-5.1z"/>
					</g>
					<g>
						<path class="st2" d="M41.7,23.8L41.7,23.8l-1.7,6c0,0-3,3.8-3.7,4.6c-3.3,3.1-6.2,6.5-8.9,10.2c-1.8-1-3.4-2.2-5-3.5
							c-0.7-0.6-1.4-1.2-2-1.8l2.5-8.8V13.6l2.5-1.4l0.3-0.2l1.8,0.5l3.6,1c1.6,0.5,3.1,2.6,4.1,4.3C37.2,22.5,39.1,23,41.7,23.8z"
							/>
						<path class="st1" d="M27.5,45c-0.1,0-0.2,0-0.3-0.1c-1.8-1-3.5-2.2-5.1-3.5c-0.7-0.6-1.4-1.2-2-1.8c-0.1-0.1-0.2-0.3-0.1-0.5
							l2.5-8.7V13.6c0-0.2,0.1-0.3,0.3-0.4l2.9-1.6c0.1-0.1,0.3-0.1,0.4,0l5.4,1.5c2,0.6,3.7,3.4,4.4,4.5c1.9,4.5,3.6,5,6.1,5.8
							c0.3,0.1,0.5,0.4,0.4,0.6l-1.7,6c0,0.1,0,0.1-0.1,0.2c-0.1,0.2-3,3.8-3.7,4.6c-3.2,3.1-6.2,6.5-8.8,10.1
							C27.8,44.9,27.6,45,27.5,45z M21,39.1c0.5,0.5,1.1,1,1.8,1.5c1.4,1.2,3,2.2,4.5,3.2c2.6-3.5,5.5-6.8,8.7-9.9
							c0.6-0.7,3.2-3.9,3.6-4.4l1.5-5.4c-2.5-0.8-4.4-1.5-6.3-6.1c-1.2-2.2-2.6-3.7-3.8-4l-5.2-1.4L23.4,14v16.6v0.1L21,39.1z"/>
					</g>
					<g>
						<path class="st2" d="M90.1,8.8c0,13.9-6.9,26.8-18.4,34.5c-2.5-4.3-6.4-7.6-11.1-9.3h-0.1c-0.9-0.4-8.5-3.9-6.3-11.5
							c0.7-2.5,2.6-8.9,13.7-5.8c6.7,1.9,11.8,1,12.4-1.3c1.9-6.7,0.3-9.6,0.3-9.6c0.1,0,0.2-0.1,0.3-0.2H81
							c2.4-1.4,4.2-6.3,7.5-8.1C89.6,1.3,90.1,5,90.1,8.8z"/>
						<path class="st1" d="M71.7,43.8L71.7,43.8c-0.2,0-0.4-0.1-0.4-0.2c-2.4-4.2-6.2-7.4-10.7-9c-0.1,0-0.1,0-0.2,0
							c-0.4-0.2-8.9-3.8-6.6-12.1c0.6-2.1,2-7,8.8-7c1.6,0,3.5,0.3,5.6,0.9c2.3,0.7,4.6,1,6.6,1c2.9,0,4.9-0.8,5.3-2
							c1.8-6.4,0.4-9.2,0.4-9.2c-0.1-0.1-0.1-0.3,0-0.4s0.2-0.2,0.3-0.3c0.1,0,0.2-0.1,0.2-0.1c0.1,0,0.1-0.1,0.2-0.1
							c1-0.6,1.9-1.9,2.9-3.3c1.2-1.8,2.6-3.8,4.6-4.8c0.1-0.1,0.3-0.1,0.4,0s0.2,0.2,0.3,0.3c1,3.6,1.5,7.4,1.5,11.2
							c0,14.1-7,27.1-18.6,34.9C71.8,43.7,71.8,43.8,71.7,43.8z M60.6,33.5C60.7,33.5,60.7,33.5,60.6,33.5c4.7,1.7,8.6,4.9,11.2,9
							C83,34.9,89.6,22.3,89.6,8.8c0-3.5-0.4-6.9-1.3-10.3c-1.4,1-2.6,2.6-3.7,4.1s-2,2.9-3.3,3.6c0.4,1.1,1,4.1-0.5,9.5
							c-0.5,1.7-2.8,2.7-6.2,2.7c-2.1,0-4.4-0.4-6.8-1.1c-2-0.6-3.7-0.8-5.3-0.8c-6,0-7.2,4.2-7.8,6.2C52.7,29.7,59.5,33,60.6,33.5z
							"/>
					</g>
					<g>
						<path class="st2" d="M43,27.8c-2.1,7.4-6.7,6.5-6.7,6.5C33,33.4,25,35.3,22.4,41c-0.7-0.6-1.4-1.2-2-1.8s-1.4-1.3-2-2
							c0.6-4.8-1-13,1-19.8c1.3-4.5-4.4-9-5.8-10.9C11.7,4,9.4,1,8.5-1.8c0.3-1,0.6-2.1,0.9-3.1C11.5-11,15-16.5,19.7-21
							c1.3,2.6,1.7,5.5,1.1,8.3c-1,3.4,2.8,7.3,1.6,11.3c-0.6-0.2-1.3-0.3-2-0.3c-2-0.1-3,0.9-3.3,2l-0.6,2.2
							c-0.3,1.1,0.4,2,1.7,2.4C20,5.5,20,6,19.7,7.1s0.3,3.2,1.6,3.6l4.3,1.2l-0.1,0.3c-2.4,8.5,0.9,12.1,5.4,13.4
							c8.5,2.4,10.9-1.7,10.9-1.7l0,0C43.1,24.2,43.2,26.9,43,27.8z"/>
						<path class="st1" d="M22.4,41.5c-0.1,0-0.2,0-0.3-0.1c-0.7-0.6-1.4-1.2-2-1.8l-0.3-0.3c-0.5-0.5-1.2-1.1-1.7-1.7
							C18,37.5,18,37.3,18,37.2c0.2-1.7,0.1-4,0-6.3c-0.1-4.3-0.3-9.2,1-13.6c0.9-3.3-2.3-6.7-4.4-8.9c-0.6-0.6-1-1.1-1.3-1.5
							L13,6.6c-1.9-2.5-4.1-5.4-5-8.2c0-0.1,0-0.2,0-0.3C8.4-3.1,8.7-4.1,9-5c2.1-6.2,5.7-11.8,10.4-16.3c0.1-0.1,0.3-0.2,0.4-0.1
							c0.2,0,0.3,0.1,0.4,0.3c1.3,2.6,1.7,5.7,1.1,8.6c-0.4,1.5,0.1,3.2,0.8,4.9c0.7,2.1,1.5,4.2,0.8,6.5c0,0.1-0.1,0.2-0.2,0.3
							s-0.3,0.1-0.4,0c-0.6-0.2-1.2-0.3-1.9-0.3h-0.2c-1.9,0-2.5,1.1-2.6,1.6L17,2.7c-0.3,1.1,0.7,1.6,1.4,1.8
							c1.9,0.5,2.3,1.2,1.9,2.8c-0.3,0.9,0.3,2.7,1.3,3l4.3,1.2c0.3,0.1,0.4,0.4,0.3,0.6L26,12.3c-1.9,7-0.2,11.2,5,12.7
							c1.7,0.5,3.3,0.7,4.7,0.7c4.2,0,5.5-2.1,5.6-2.2c0.1-0.2,0.4-0.3,0.6-0.2c1.7,0.5,1.8,3.6,1.5,4.6c-1.8,6.2-5.3,6.9-6.7,6.9
							c-0.3,0-0.5,0-0.5,0c-0.5-0.1-1.1-0.2-1.8-0.2c-3.3,0-9.3,1.8-11.5,6.6c-0.1,0.1-0.2,0.2-0.3,0.3
							C22.5,41.5,22.5,41.5,22.4,41.5z M19,37.1c0.5,0.5,1,1,1.5,1.5l0.4,0.3c0.5,0.4,1,0.9,1.5,1.3c2.6-4.8,8.7-6.6,12.1-6.6
							c0.8,0,1.5,0.1,2,0.2c0,0,0.1,0,0.3,0c1.2,0,4.2-0.6,5.8-6.2c0.2-0.7,0.1-2.6-0.6-3.2c-0.6,0.8-2.4,2.3-6.1,2.3
							c-1.5,0-3.2-0.3-5-0.8c-4-1.1-8.3-4.4-5.8-13.7l-3.8-1.1c-1.7-0.5-2.4-2.9-2-4.2c0.2-0.9,0.3-1.1-1.2-1.5
							c-1.7-0.5-2.5-1.7-2.1-3.1l0.6-2.2c0.4-1.5,1.8-2.4,3.6-2.4h0.2c0.5,0,1.1,0.1,1.6,0.2c0.3-1.8-0.3-3.6-0.9-5.4
							c-0.7-1.9-1.3-3.7-0.8-5.5c0.5-2.4,0.3-5-0.7-7.3C15.3-16,12-10.6,10-4.8c-0.4,1-0.6,1.9-1,3.1c0.9,2.5,3,5.3,4.8,7.7L14,6.2
							c0.3,0.4,0.7,0.8,1.3,1.4c2.2,2.3,5.8,6.1,4.7,9.9c-1.2,4.3-1.1,9-0.9,13.3C19.1,33.1,19.1,35.3,19,37.1z"/>
					</g>
				</g>
			</g>
			<g>
				<path class="st2" d="M48.6-39.3C22-39.3,0.5-17.8,0.5,8.8s21.5,48,48.1,48s48-21.5,48-48S75.1-39.3,48.6-39.3z M48.6,50.3
					C25.7,50.3,7.1,31.7,7.1,8.8s18.6-41.5,41.5-41.5S90.1-14.2,90.1,8.8l0,0C90.1,31.7,71.5,50.3,48.6,50.3L48.6,50.3z"/>
				<path class="st1" d="M48.6,57.3C21.8,57.3,0,35.5,0,8.8s21.8-48.6,48.6-48.6S97.1-18,97.1,8.8S75.4,57.3,48.6,57.3z M48.6-38.8
					C22.3-38.8,1-17.5,1,8.8s21.3,47.6,47.6,47.6S96.1,35,96.1,8.8S74.8-38.8,48.6-38.8z M48.6,50.8c-23.2,0-42-18.8-42-42
					s18.8-42,42-42s42,18.8,42,42S71.7,50.8,48.6,50.8z M48.6-32.2c-22.6,0-41,18.4-41,41s18.4,41,41,41s41-18.4,41-41
					S71.2-32.2,48.6-32.2z"/>
			</g>
		</g>
	</g>
</g>
<g>
	<g transform="translate(735.0 651.0) rotate(0.0 169.0 122.5) scale(1.9539605276849614 1.9661027830385518)">
		<g transform="translate(-0.0 -0.0)">
			<g>
				<g>
					<g>
						<polygon class="st2" points="157.4,27.1 157.4,86 147.8,86 147.8,27.1 147.8,-32.3 157.4,-32.3 						"/>
						<path class="st1" d="M157.5,86.5C157.4,86.5,157.4,86.5,157.5,86.5h-9.7c-0.3,0-0.5-0.2-0.5-0.5V27.2v-59.4
							c0-0.3,0.2-0.5,0.5-0.5h9.7c0.1,0,0.3,0.1,0.4,0.1c0.1,0.1,0.1,0.2,0.1,0.4v59.4v58.7V86C158,86.2,157.7,86.5,157.5,86.5z
							 M148.3,85.5h8.7V27.2v-58.9h-8.7v58.9V85.5z"/>
					</g>
					<g>
						<polygon class="st2" points="111.2,26.6 111.2,86 101.5,86 101.5,26.6 101.5,-32.3 111.2,-32.3 						"/>
						<path class="st1" d="M111.2,86.5L111.2,86.5h-9.7c-0.3,0-0.5-0.2-0.5-0.5V26.6v-58.8c0-0.3,0.2-0.5,0.5-0.5h9.7
							c0.1,0,0.3,0.1,0.4,0.1c0.1,0.1,0.1,0.2,0.1,0.4v58.8v59.2v0.1C111.7,86.2,111.5,86.5,111.2,86.5z M102.1,85.5h8.7V26.6v-58.3
							h-8.7v58.3V85.5z"/>
					</g>
					<g>
						<rect x="0.5" y="-37.6" class="st2" width="172" height="11.8"/>
						<path class="st1" d="M172.5-25.3H0.5c-0.3,0-0.5-0.2-0.5-0.5v-11.8c0-0.3,0.2-0.5,0.5-0.5h172c0.3,0,0.5,0.2,0.5,0.5v11.8
							C173-25.5,172.8-25.3,172.5-25.3z M1-26.3h171v-10.8H1V-26.3z"/>
					</g>
					<g>
						<rect x="58.5" y="75.2" class="st2" width="113.9" height="10.7"/>
						<path class="st1" d="M172.5,86.5h-114c-0.3,0-0.5-0.2-0.5-0.5V75.2c0-0.3,0.2-0.5,0.5-0.5h113.9c0.3,0,0.5,0.2,0.5,0.5V86
							C173,86.2,172.8,86.5,172.5,86.5z M59,85.5h113v-9.7H59V85.5z"/>
					</g>
				</g>
			</g>
		</g>
	</g>
</g>
<path class="st1" d="M55.8,938.1c13.6-16.4,59.5-66.7,152.7-116.5c104.6-55.6,291.4-122.1,588.4-122.1s483.8,66.5,588.4,122.1
	c93.4,49.8,139.4,100.1,152.8,116.5h2.5c-12.1-15.2-58.3-67.1-154.3-118.3c-66.6-35.5-143.9-63.9-229.8-84.2
	c-107.1-25.4-228.2-38.3-359.6-38.3s-252.2,12.8-359.6,38.3c-85.9,20.3-163.2,48.7-229.8,84.2C111.4,871,65.3,922.9,53.2,938.1H55.8
	z"/>
<path class="st1" d="M56.2,938.1C44.1,883.4,38,827,38,770.4C38,348.9,378.4,6,797.1,6c418.4,0,758.9,342.9,758.7,764.4
	c0,56.6-6.1,112.9-18.2,167.6h2c12.2-54.7,18.4-111.1,18.4-167.6c0-103.4-20.1-203.8-59.9-298.3c-38.2-91.3-93.1-173.2-163-243.6
	c-69.9-70.4-151.2-125.7-241.8-164.3C999.5,24.4,899.9,4,797.1,4S594.6,24.4,500.7,64.2c-90.6,38.7-171.9,93.9-241.8,164.3
	s-124.6,152.3-163,243.6C56.1,566.7,36,666.9,36,770.4c0,56.6,6.2,112.9,18.2,167.6H56.2z"/>
</svg>
