<svg xmlns="http://www.w3.org/2000/svg" viewBox="0 0 1028 609"><defs><style>.cls-1{fill:#1d2445;}</style></defs><g id="Layer_2" data-name="Layer 2"><g id="Layer_1-2" data-name="Layer 1"><path class="cls-1" d="M504,595.19c3.88,2.61,14.59,4.41,25.92,3.13"/><path class="cls-1" d="M522.34,602.9c-8.66,0-16.66-1.57-20.63-4.25l4.51-6.93c2.71,1.83,12.29,3.7,23.2,2.46l.91,8.27A71.73,71.73,0,0,1,522.34,602.9Z"/><path class="cls-1" d="M888.21,592.1c4.49-1.23,12.9-8.21,19.44-17.71"/><path class="cls-1" d="M889.27,596.12l-2.12-8c3.14-.87,10.86-6.94,17.16-16.09l6.69,4.77C904.42,586.33,895.28,594.47,889.27,596.12Z"/><path class="cls-1" d="M432.78,589.59c4.65-.33,14.21-5.54,22.43-13.59"/><path class="cls-1" d="M433.07,593.74l-.57-8.3c3.25-.23,12-4.68,19.87-12.43l5.67,6C449.78,587.09,439.27,593.29,433.07,593.74Z"/><polygon class="cls-1" points="710.1 607.55 702.22 596.49 714.36 593.11 720.97 599.52 710.1 607.55"/><path class="cls-1" d="M709.88,609l-9.36-13.12L714.65,592l7.91,7.68Zm-6-11.91,6.42,9,9-6.69-5.3-5.14Z"/><polygon class="cls-1" points="826.6 607.55 818.72 596.49 830.86 593.11 837.47 599.52 826.6 607.55"/><path class="cls-1" d="M826.38,609,817,595.88,831.15,592l7.92,7.68Zm-6-11.91,6.42,9,9-6.69-5.31-5.14Z"/><polygon class="cls-1" points="347.98 599.35 340.09 588.29 352.24 584.91 358.85 591.32 347.98 599.35"/><path class="cls-1" d="M347.75,600.8l-9.36-13.12,14.13-3.93,7.92,7.68Zm-6-11.91,6.41,9,9.05-6.69-5.3-5.14Z"/><path class="cls-1" d="M644.05,574.78s4.27,10.24-6.12,7.5c-12.33-3.26-8.83,10.83-8.83,10.83"/><path class="cls-1" d="M625.14,594.13c-.23-.93-2.12-9.17,2.45-13.79,1.82-1.84,5.27-3.7,11.37-2.09a9.31,9.31,0,0,0,1.86.33,8.12,8.12,0,0,0-.54-2.2l7.54-3.22c.48,1.16,2.73,7.19-.63,11.15-2.17,2.56-5.63,3.22-10.29,2-2.26-.59-3.29-.32-3.55-.06-.77.77-.79,3.79-.29,5.87Z"/><path class="cls-1" d="M250.42,589.57s-7.94,7.65-9-3.21c-1.31-12.91-13.06-4.65-13.06-4.65"/><path class="cls-1" d="M245.23,596.35a7.13,7.13,0,0,1-2.49-.45c-3.1-1.18-4.93-4.24-5.42-9.12-.25-2.37-.86-3.26-1.19-3.41-1.07-.5-4,.73-5.48,1.77L226,578.29c.77-.54,7.7-5.22,13.55-2.47,2.33,1.09,5.25,3.73,5.89,10.11a10.19,10.19,0,0,0,.35,1.89,8,8,0,0,0,1.84-1.28l5.6,6.05C252.48,593.32,249.1,596.35,245.23,596.35Z"/><path class="cls-1" d="M273.56,113.67a23.51,23.51,0,0,1-23.48-23.5h8.43a15.08,15.08,0,0,0,15.05,15.07Z"/><path class="cls-1" d="M110.65,168.42l-2.14-8.16a15.1,15.1,0,0,0,10.75-18.4l8.15-2.13A23.54,23.54,0,0,1,110.65,168.42Z"/><path class="cls-1" d="M21.75,414.76A23.51,23.51,0,0,1,0,400.15L7.8,397a15.05,15.05,0,0,0,19.62,8.25L30.6,413A23.19,23.19,0,0,1,21.75,414.76Z"/><path class="cls-1" d="M615.84,496a23.51,23.51,0,0,1-21.75-14.61l7.8-3.19a15,15,0,0,0,19.62,8.24l3.18,7.81A23.23,23.23,0,0,1,615.84,496Z"/><path class="cls-1" d="M1006.65,463.1a23.38,23.38,0,0,1-9.79-2.16l3.53-7.66a15.06,15.06,0,0,0,20-7.38l7.65,3.53A23.52,23.52,0,0,1,1006.65,463.1Z"/><path class="cls-1" d="M440.7,13.17a23.32,23.32,0,0,1-16.07-6.38L430.4.65A15,15,0,0,0,451.66,0l6.14,5.78A23.39,23.39,0,0,1,440.7,13.17Z"/><path class="cls-1" d="M907.54,181.83a23.51,23.51,0,0,1-15.72-29.27l8.06,2.42A15.07,15.07,0,0,0,910,173.75Z"/><path class="cls-1" d="M528.5,332.07a23.25,23.25,0,0,1-10.32-2.41l3.72-7.57A15.05,15.05,0,0,0,542,315.22l7.56,3.72A23.49,23.49,0,0,1,528.5,332.07Z"/><path class="cls-1" d="M676.89,159.69a23.35,23.35,0,0,1-16.07-6.37l5.77-6.15a15.05,15.05,0,0,0,21.27-.65L694,152.3A23.39,23.39,0,0,1,676.89,159.69Z"/><path class="cls-1" d="M873.81,59.45l-4.34-7.23a15.1,15.1,0,0,0,5.15-20.67l7.22-4.35A23.55,23.55,0,0,1,873.81,59.45Z"/><path class="cls-1" d="M25.79,302.54a23.43,23.43,0,0,1-6.13-.82l2.18-8.14a15.06,15.06,0,0,0,18.44-10.64l8.13,2.19a23.48,23.48,0,0,1-22.62,17.41Z"/><path class="cls-1" d="M396.46,163.87a23.87,23.87,0,0,1-6.14-.81l2.19-8.15A15,15,0,0,0,411,144.27l8.13,2.2a23.48,23.48,0,0,1-22.62,17.4Z"/><path class="cls-1" d="M706.28,444.47a23.36,23.36,0,0,1-6.1-.81l2.19-8.15a15.06,15.06,0,0,0,18.44-10.64l8.13,2.2A23.5,23.5,0,0,1,706.28,444.47Z"/><path class="cls-1" d="M707.12,39.54A23.55,23.55,0,0,1,696.41,8.08L704,11.8A15.11,15.11,0,0,0,710.84,32Z"/><path class="cls-1" d="M283.79,352.74,277.65,347a15.08,15.08,0,0,0-.65-21.3l5.78-6.15a23.55,23.55,0,0,1,1,33.23Z"/><polygon class="cls-1" points="512.97 461.41 503.19 451.61 512.97 441.81 522.76 451.61 512.97 461.41"/><polygon class="cls-1" points="230.06 485.06 220.28 475.26 230.06 465.46 239.85 475.26 230.06 485.06"/><polygon class="cls-1" points="656.3 286.59 646.51 276.79 656.3 266.98 666.09 276.79 656.3 286.59"/><polygon class="cls-1" points="1010.78 235.21 1000.99 225.4 1010.78 215.6 1020.56 225.4 1010.78 235.21"/><polygon class="cls-1" points="209.61 199.75 199.82 189.94 209.61 180.14 219.4 189.94 209.61 199.75"/><polygon class="cls-1" points="375.15 255.2 361.56 257.9 358.84 244.32 372.43 241.62 375.15 255.2"/><polygon class="cls-1" points="404.7 345.93 394.92 336.13 404.7 326.32 414.49 336.13 404.7 345.93"/><polygon class="cls-1" points="91.63 355.29 81.85 345.48 91.63 335.68 101.42 345.48 91.63 355.29"/><polygon class="cls-1" points="367 90.46 357.21 80.66 367 70.85 376.78 80.66 367 90.46"/><polygon class="cls-1" points="574.07 230.79 564.28 220.98 574.07 211.18 583.86 220.98 574.07 230.79"/><path class="cls-1" d="M354.79,459.52c-3-3.07-7.36-10.78-2.59-17.94,2.18-3.29-1.21-6.95-1.6-7.36l6-5.94c3,3,7.49,10.7,2.64,18-2.23,3.35,1.58,7.34,1.62,7.38Z"/><path class="cls-1" d="M906.76,292.82c-3-3.08-7.36-10.78-2.59-17.94,2.27-3.42-1.54-7.3-1.58-7.34l5.95-6c3,3,7.48,10.7,2.64,18-2.19,3.27,1.48,7.23,1.64,7.4Z"/><path class="cls-1" d="M782.46,214.74c-3-3.07-7.36-10.78-2.59-17.94,2.28-3.41-1.54-7.3-1.58-7.34l6-6c3,3,7.48,10.7,2.63,18-2.23,3.35,1.58,7.34,1.62,7.38Z"/><path class="cls-1" d="M715.06,350.85c-3-3.08-7.36-10.78-2.59-18,2.19-3.28-1.2-6.95-1.6-7.36l6-5.94c3,3,7.48,10.7,2.63,18-2.18,3.28,1.49,7.24,1.64,7.41Z"/><path class="cls-1" d="M563.75,57.22c-3-3.07-7.36-10.78-2.59-17.94,2.19-3.28-1.21-7-1.61-7.36l6-5.94c3,3,7.48,10.7,2.64,18-2.23,3.35,1.58,7.34,1.62,7.38Z"/><path class="cls-1" d="M449.67,252.16c4.22.75,12.27,4.45,12.58,13,.15,3.94,5,4.94,5.6,5l-1.38,8.31c-4.23-.69-12.32-4.31-12.64-13.06-.14-4-5.57-5-5.63-5Z"/><path class="cls-1" d="M274.75,265.38c-3-3.07-7.36-10.78-2.59-17.94,2.18-3.28-1.21-6.95-1.6-7.36l6-5.94c3,3,7.49,10.7,2.64,18-2.18,3.28,1.48,7.24,1.64,7.41Z"/><path class="cls-1" d="M827.11,384.5c-3-3.08-7.36-10.78-2.59-17.94,2.19-3.29-1.21-7-1.6-7.37l6-5.94c3,3,7.48,10.7,2.63,18-2.18,3.27,1.49,7.23,1.65,7.4Z"/><path class="cls-1" d="M201,360.34c-3-3.07-7.36-10.77-2.59-17.94,2.19-3.28-1.21-6.95-1.6-7.36l6-5.94c3,3,7.48,10.7,2.63,18-2.23,3.35,1.58,7.34,1.62,7.38Z"/><path class="cls-1" d="M584.43,389.88c-3-3.07-7.36-10.77-2.59-17.94,2.28-3.41-1.54-7.29-1.58-7.33l6-6c3,3,7.48,10.7,2.63,18-2.18,3.28,1.49,7.24,1.64,7.41Z"/><path class="cls-1" d="M519.13,200c-3-3.07-7.36-10.78-2.59-17.94,2.18-3.29-1.21-6.95-1.61-7.36l6-5.95c3,3,7.48,10.7,2.63,18-2.22,3.34,1.59,7.34,1.63,7.38Z"/><path class="cls-1" d="M146.24,270.66c-3-3.08-7.36-10.78-2.59-17.94,2.19-3.29-1.21-6.95-1.6-7.36l6-6c3,3,7.48,10.7,2.63,18-2.18,3.28,1.48,7.23,1.64,7.4Z"/></g></g></svg>