<svg xmlns="http://www.w3.org/2000/svg" viewBox="0 0 726.02 810.95"><defs><style>.cls-1{fill:#f6f5f1;}.cls-2{fill:#1d2445;}.cls-3{fill:#c78982;}.cls-4{fill:#29abe2;}.cls-5{fill:none;}.cls-6{fill:#3269ff;}.cls-7{opacity:0.1;}</style></defs><g id="Layer_2" data-name="Layer 2"><g id="Layer_1-2" data-name="Layer 1"><path class="cls-1" d="M87,464.34l22-58.85-25.19-9.91L73.73,391.7,62,453.15a5,5,0,0,1-2.24,3.12,17.76,17.76,0,0,0-4,2.35l-.14.08h0a17.68,17.68,0,0,0-3.68,4l-.74,1.09a10.21,10.21,0,0,0-1.29,2.84h-.12l-8.17,21c-.74,1.95,1.37,3.45,3.4,4.3l0,0a1.14,1.14,0,0,0,1.1-.21c-.5,1.93,2,4.87,4,5.9h0c.59.38,1.64-.23,2-.74l.22-.33-.19.38c-.83,1.92,1.91,4.95,4.09,6h0c.59.38,1.65-.23,2-.74l.57-.85-1.28,2.57c-.82,1.92.64,3.86,2.81,4.94a3,3,0,0,0,4-1.24l8.74-13c-1.52,3.57-2.84,8.63-2.7,10,.15,1.55.22,3,1.67,3.56l.11,0a3.72,3.72,0,0,0,.74.14A2.91,2.91,0,0,0,75.52,507s3.59-6.57,5.78-10.78a18,18,0,0,1,2.86-4.1A15.1,15.1,0,0,0,87.87,485l1.37-7.41c.77-4.22,1.36-7.37-1.95-12.38Z"/><path class="cls-2" d="M61.76,510.16a3.86,3.86,0,0,1-2-.52c-2.58-1.25-3.9-3.49-3.3-5.62a1.73,1.73,0,0,1-.7-.25,9.39,9.39,0,0,1-4.59-5.15,2,2,0,0,1-1.52-.2c-1.82-.9-4.09-3.25-4.52-5.49a1.61,1.61,0,0,1-.61-.19c-3.24-1.37-4.68-3.4-3.86-5.53l8.17-21a1.11,1.11,0,0,1,.22-.34,11,11,0,0,1,1.29-2.69l.74-1.09a18.68,18.68,0,0,1,3.73-4.06,1.27,1.27,0,0,1,.25-.21,19.55,19.55,0,0,1,4.29-2.48A3.93,3.93,0,0,0,61,452.93l11.74-61.42a1,1,0,0,1,1.33-.74l10.12,3.88,25.19,9.92a1,1,0,0,1,.57,1.26L88.06,464.36l.14.46c3.43,5.24,2.81,8.63,2,12.91l-1.38,7.48a16.17,16.17,0,0,1-3.95,7.61,16.9,16.9,0,0,0-2.71,3.87c-2.17,4.19-5.76,10.74-5.8,10.81a3.9,3.9,0,0,1-3.29,1.8h-.22a4.32,4.32,0,0,1-1-.18,2.88,2.88,0,0,1-.31-.13c-1.81-.64-2-2.55-2.14-4.09l0-.23a12.84,12.84,0,0,1,.51-3.58l-4.74,7.07A4,4,0,0,1,61.76,510.16Zm-2.92-9.81a1,1,0,0,1,.5.14,1,1,0,0,1,.39,1.29l-1.27,2.58c-.6,1.37.75,2.81,2.36,3.61a2.26,2.26,0,0,0,.94.21,2.09,2.09,0,0,0,1.79-1.11l8.74-13A1,1,0,0,1,74,495c-1.57,3.7-2.73,8.47-2.62,9.51l0,.23c.15,1.57.28,2.23,1,2.5a2.15,2.15,0,0,0,.57.12,1.79,1.79,0,0,0,1.7-.84h0s3.58-6.54,5.74-10.69a18.58,18.58,0,0,1,3-4.31,14.32,14.32,0,0,0,3.47-6.66l1.36-7.38c.77-4.25,1.28-7-1.8-11.66a1.15,1.15,0,0,1-.12-.25l-.28-.91a.94.94,0,0,1,0-.64l21.68-57.94-33.29-13L63,453.34a6,6,0,0,1-2.69,3.77,18,18,0,0,0-3.94,2.29l-.07.05,0,0a16.92,16.92,0,0,0-3.48,3.74L52,464.31a9.12,9.12,0,0,0-1.17,2.57.94.94,0,0,1-.28.46l-8,20.58c-.56,1.45,2,2.68,2.85,3l.22-.11a1,1,0,0,1,1.11,0,1,1,0,0,1,.38,1.05c-.32,1.22,1.59,3.81,3.52,4.77a1,1,0,0,0,.71-.37l.24-.36a1,1,0,0,1,1.71,1l-.2.38c-.48,1.12,1.72,3.74,3.65,4.7a1.05,1.05,0,0,0,.71-.37l.58-.87A1,1,0,0,1,58.84,500.35Z"/><path class="cls-1" d="M308.52,22h0a1.24,1.24,0,0,0-1.53.79l-1.56,3.9,1.87-13.87a4.64,4.64,0,0,0-3-4.81h0a1.21,1.21,0,0,0-1.42,1l-1.57,5.79-.44-9.56A4.66,4.66,0,0,0,297,1h0a1.21,1.21,0,0,0-1.23,1.18l-.61,7.16,0-.76a4.66,4.66,0,0,0-3.82-4.22h0A1.21,1.21,0,0,0,290,5.53l-2.77,32.4-3,3.73A13.81,13.81,0,0,0,281.27,49L279.8,65.84l-.12,1.53L260.35,91.92l.86-.18-4.82,6.11-5.57,7.1,18.4,22.51L289,105.81,301.31,77.6a22.69,22.69,0,0,0,4.31-11.36l-1.21-13.55,1.36-5.33,0,0v-.08L311,27.14A4.6,4.6,0,0,0,308.52,22Z"/><path class="cls-2" d="M269.22,128.44h0a1,1,0,0,1-.74-.36l-18.4-22.5a1,1,0,0,1,0-1.24l9.42-12a1,1,0,0,1,.11-1L278.71,67l1.58-18.09a14.68,14.68,0,0,1,3.14-7.85l2.79-3.5L289,5.45a2.17,2.17,0,0,1,2.2-2.09A5.28,5.28,0,0,1,294.46,5l.25-2.93A2.19,2.19,0,0,1,296.92,0a5.64,5.64,0,0,1,4.85,5.09l.15,3.33a2.24,2.24,0,0,1,2.48-1.36,5.58,5.58,0,0,1,3.85,5.84l-1.11,8.31a2.25,2.25,0,0,1,1.64-.13,5.56,5.56,0,0,1,3.15,6.23L306.76,47.5a1,1,0,0,1-.06.26l-1.29,5,1.2,13.38a23.69,23.69,0,0,1-4.43,11.94L289.9,106.21a1.27,1.27,0,0,1-.18.27L270,128.12A1,1,0,0,1,269.22,128.44Zm-17.13-23.5,17.17,21,18.88-20.68L300.4,77.2a1.18,1.18,0,0,1,.11-.19,21.67,21.67,0,0,0,4.12-10.86l-1.21-13.38a.93.93,0,0,1,0-.33l1.36-5.32,0-.08s0,0,0,0L310,26.9a3.61,3.61,0,0,0-1.86-4,.27.27,0,0,0-.22.17l-1.59,4a1,1,0,0,1-1.17.59,1,1,0,0,1-.73-1.09l1.87-13.86A3.65,3.65,0,0,0,304,9a.27.27,0,0,0-.2.19L302.18,15a1,1,0,0,1-1.06.72,1,1,0,0,1-.88-.93l-.44-9.57A3.67,3.67,0,0,0,296.85,2a.25.25,0,0,0-.16.21l-.62,7.24a1,1,0,0,1-1,.91h0a1,1,0,0,1-1-.94l0-.77a3.69,3.69,0,0,0-2.95-3.29.25.25,0,0,0-.16.21L288.17,38a1,1,0,0,1-.21.53l-3,3.73a12.82,12.82,0,0,0-2.72,6.8l-1.6,18.37a1,1,0,0,1-.21.53L262.09,91.31a1,1,0,0,1-.11,1Z"/><path class="cls-2" d="M113.66,155.44c-5.32-10.28,3.8-25.53,20.37-34,14.13-7.27,29.11-7.3,36.51-.76a3.66,3.66,0,0,1-.82,6Z"/><path class="cls-2" d="M108.41,139.73c-4.52-8.76,3.24-21.74,17.35-29,12-6.19,24.78-6.22,31.08-.65a3.11,3.11,0,0,1-.7,5.08Z"/><path class="cls-3" d="M122.39,128.52l-.9.43A7.57,7.57,0,0,0,118,139.07l11.49,23.7,31.67-15.3-3.22-6.63A26.61,26.61,0,0,0,122.39,128.52Z"/><polygon class="cls-3" points="171.2 168.12 151.35 177.71 139.14 152.53 158.99 142.94 171.2 168.12"/><path class="cls-1" d="M177.69,179.47,175.88,176l.17-.08L170,164.15l3.29-1.8a3.67,3.67,0,0,0-.59-6.71l-8.59-2.89-5-9.62A35.32,35.32,0,0,0,111.55,128l-9.27,4.77a20.6,20.6,0,0,0-8.9,27.76L117,206.29l0,0-4.36,22.61,29.54,43.73a2.21,2.21,0,0,0,4-.81l15.38-79.69-1.18-.23,11.43-1.59A7.59,7.59,0,0,0,177.69,179.47Z"/><path class="cls-2" d="M144.08,274.58h0a3.17,3.17,0,0,1-2.64-1.41l-29.55-43.74a1,1,0,0,1-.15-.74l4.29-22.2L92.5,160.94a21.59,21.59,0,0,1,9.32-29.09l9.28-4.77A36.32,36.32,0,0,1,160,142.67l4.78,9.27L173,154.7a4.66,4.66,0,0,1,.74,8.52l-2.44,1.34,5.65,10.93a.92.92,0,0,1,.1.58l1.54,3a8.57,8.57,0,0,1-6.52,12.25l-9.47,1.32L147.25,272A3.2,3.2,0,0,1,144.08,274.58Zm-30.32-45.91,29.32,43.39a1.19,1.19,0,0,0,1,.54h0a1.22,1.22,0,0,0,1.22-1l15.19-78.72-.21,0a1,1,0,0,1,.05-1.95l11.44-1.59a6.57,6.57,0,0,0,4.91-3.43,6.49,6.49,0,0,0,.12-6L175,176.48a1,1,0,0,1-.11-.59l-5.82-11.29a1,1,0,0,1,.4-1.32l3.29-1.79a2.66,2.66,0,0,0,1.4-2.6,2.62,2.62,0,0,0-1.83-2.31l-8.59-2.89a1,1,0,0,1-.56-.49l-5-9.62A34.3,34.3,0,0,0,112,128.84l-9.28,4.77A19.63,19.63,0,0,0,94.26,160l23.56,45.6a1,1,0,0,1,.24.82Z"/><path class="cls-2" d="M140.3,167.46l3.59,6.94a18.07,18.07,0,0,0,17.29,9.72h0a10.22,10.22,0,0,1,4.41-13.77l6-3.08,6.53,12.65a7.36,7.36,0,0,1-5.8,10.7l-20.5,2.09a7.37,7.37,0,0,1-7.3-4l-12.35-23.9h0A6.06,6.06,0,0,1,140.3,167.46Z"/><path class="cls-1" d="M170.06,181.16l5.05-1.28a2.16,2.16,0,0,0,1.38-3.08l-2.81-5.44-4.33,2.22a4.7,4.7,0,0,0-2,6.35h0A2.43,2.43,0,0,0,170.06,181.16Z"/><path class="cls-2" d="M169.46,182.22a3.38,3.38,0,0,1-3-1.84,5.7,5.7,0,0,1,2.46-7.67l4.33-2.23a1,1,0,0,1,.75-.06,1,1,0,0,1,.58.48l2.81,5.45a3.12,3.12,0,0,1,.08,2.73,3.16,3.16,0,0,1-2.09,1.75l-5.06,1.28A2.94,2.94,0,0,1,169.46,182.22Zm3.79-9.53-3.44,1.77a3.72,3.72,0,0,0-1.61,5,1.41,1.41,0,0,0,1.61.72l5.05-1.28a1.18,1.18,0,0,0,.78-.65,1.12,1.12,0,0,0,0-1Z"/><path class="cls-2" d="M119.89,199.16l17.91-1L106,136.55a7.39,7.39,0,0,0-9.94-3.17l-3,1.52a25.73,25.73,0,0,0-9.07,38L94.3,187A29.52,29.52,0,0,0,119.89,199.16Z"/><polygon class="cls-2" points="123.51 166.51 152.57 151.56 150.75 146.42 121.03 161.71 123.51 166.51"/><path class="cls-2" d="M93.42,145.19l23-11.8,24.48,47.4a14.71,14.71,0,0,1-6.35,19.83l-9.83,5.06Z"/><path class="cls-2" d="M106.27,133.16l27-13.9,7.95,15.37a14.71,14.71,0,0,1-6.36,19.83L121,161.62Z"/><path class="cls-2" d="M158.46,144.71a.23.23,0,0,1,.21.12l4.91,9.5a.23.23,0,0,1,0,.18.26.26,0,0,1-.11.14l-6.36,3.27-.1,0a.22.22,0,0,1-.21-.13l-4.91-9.5a.23.23,0,0,1,.1-.31l6.36-3.27a.16.16,0,0,1,.1,0m0-2a2.27,2.27,0,0,0-1,.24l-6.36,3.27a2.21,2.21,0,0,0-1,3l4.91,9.5a2.22,2.22,0,0,0,2,1.2,2.19,2.19,0,0,0,1-.25l6.35-3.27a2.2,2.2,0,0,0,1-3l-4.91-9.51a2.23,2.23,0,0,0-2-1.19Z"/><path class="cls-2" d="M113.9,175.19c-5.32-10.28-23.05-11.71-39.61-3.19-14.14,7.26-22.85,19.43-21.81,29.23a3.67,3.67,0,0,0,5.35,2.8Z"/><path class="cls-2" d="M131.8,182.54c-4.94-9.56-21.43-10.89-36.83-3-13.14,6.76-21.24,18.07-20.27,27.18a3.43,3.43,0,0,0,5,2.61Z"/><path class="cls-2" d="M128.63,194.11c8-4.11,4.9-16.11-4.1-16a35,35,0,0,0-15.3,4c-11.42,5.87-18.09,16.44-16.73,25.36.35,2.3,2.76,3.74,4.6,2.79Z"/><path class="cls-2" d="M136.65,199.58a6.23,6.23,0,0,0-3-11.76,26,26,0,0,0-11.27,3C113.94,195.11,109,202.9,110,209.47a2.5,2.5,0,0,0,3.39,2.06Z"/><path class="cls-2" d="M113,154.13c-5.31-10.28-23-11.71-39.61-3.19-14.13,7.27-22.85,19.43-21.81,29.23a3.67,3.67,0,0,0,5.35,2.8Z"/><path class="cls-2" d="M132.13,128.55c-5.32-10.29-23-11.72-39.62-3.2-14.13,7.27-22.84,19.44-21.8,29.24a3.67,3.67,0,0,0,5.35,2.8Z"/><path class="cls-2" d="M84,730.45,65.62,751.89,55.56,763.6l-3,3.46L43,778.26l-4.74,5.53L31,792.19l-.42.48L11.77,760.46,28.92,733.7,68.2,648.91a59.23,59.23,0,0,1,12.43-17.55l53.57-52.18,54.21,6.27L178,627.3C176.1,631.42,84,730.45,84,730.45Z"/><path class="cls-2" d="M145.6,361.73,133.5,410.1a39.55,39.55,0,0,0-1.18,9.63l.28,195.68,12.07,3.83a42.15,42.15,0,0,0,54.49-34L225,409.1Z"/><path class="cls-2" d="M157.49,622.23h0a43.32,43.32,0,0,1-13.13-2.05l-12.75-4v-.72l-.28-195.68a40.05,40.05,0,0,1,1.21-9.87L145,360.2l81.15,48.39-.1.65L200.13,585.41A43.33,43.33,0,0,1,157.49,622.23Zm-23.9-7.55L145,618.3a41.1,41.1,0,0,0,53.21-33.18L224,409.61l-77.72-46.35-11.78,47.08a38.57,38.57,0,0,0-1.15,9.39Z"/><path class="cls-4" d="M52,800.19Z"/><path class="cls-1" d="M100.9,786.78a7.79,7.79,0,0,0-4.77-2.59l-16.86-2.41a37.24,37.24,0,0,1-14.86-5.53c-.76-.49-1.47-1-2.19-1.58l-1.34-19.83-1.21-.24a3.72,3.72,0,0,0-4.25,2.52l-1.63,5.14-9.56-3.46a18,18,0,0,1-11.78-15l-1.12-10.56a2.23,2.23,0,0,0-3.78-1.34L14.75,744.5l-9,8.87-.77.76L1.33,760.9l22.82,21.37,4,3.74,2,8.1,9.07,2.29,11.77,11,13.31-1.85-.19-2.91,2.11.53,25,.32h.06l.39-.25,4.79-3.11,2.8-1.82a7.72,7.72,0,0,0,1.64-11.56Z"/><path class="cls-2" d="M51,808.41a1,1,0,0,1-.68-.26L38.74,797.29l-8.83-2.22a1,1,0,0,1-.72-.72l-1.94-7.82L.65,761.62a1,1,0,0,1-.19-1.18l3.62-6.78a.88.88,0,0,1,.19-.24L26.86,731.2a3.22,3.22,0,0,1,5.45,1.95l1.13,10.55a17.06,17.06,0,0,0,11.13,14.17L53.16,761l1.31-4.16a4.71,4.71,0,0,1,5.39-3.19l1.21.24a1,1,0,0,1,.8.9l1.31,19.38c.58.44,1.15.88,1.77,1.27a36.41,36.41,0,0,0,14.46,5.39l16.86,2.41a8.72,8.72,0,0,1,3.53,16l-8,5.18a1,1,0,0,1-.54.16l-25.06-.32-.23,0-.79-.2.1,1.55a1,1,0,0,1-.85,1.05l-13.31,1.84ZM31,793.3l8.49,2.14a1,1,0,0,1,.44.23l11.43,10.71,11.92-1.65-.13-2a1,1,0,0,1,.35-.83,1,1,0,0,1,.88-.2l2,.51,24.62.31,7.74-5A6.75,6.75,0,0,0,96,785.17l-16.85-2.41a38.38,38.38,0,0,1-15.26-5.68c-.68-.44-1.33-.92-2-1.41l-.28-.21a1,1,0,0,1-.4-.73l-1.29-19.07-.46-.09a2.72,2.72,0,0,0-3.11,1.85l-1.63,5.13a1,1,0,0,1-.5.59,1,1,0,0,1-.78,0l-9.56-3.45a19.06,19.06,0,0,1-12.43-15.82l-1.12-10.55a1.24,1.24,0,0,0-1.25-1.11,1.18,1.18,0,0,0-.85.36L5.76,754.73l-3.19,6,26.25,24.59a1,1,0,0,1,.29.48Z"/><path class="cls-2" d="M45.4,800.16l-1.82,8.44a.63.63,0,0,0,.62.76H79.8a7.46,7.46,0,0,0,3.66-1l8.67-4.88.45-.25,5.53-3.11Z"/><path class="cls-2" d="M5.23,773.94,27,793.83l16.66,15.22c3.08.08,12.52.17,14,.21L33.61,787.37a3.71,3.71,0,0,1-1.21-2.52,18.58,18.58,0,0,0-6-12.64l-6.13-5.59L5.74,753.37,5.37,753a2.23,2.23,0,0,0-3.63,1l-1,3.3A16.09,16.09,0,0,0,5.23,773.94Z"/><path class="cls-2" d="M109.47,648.5,96.76,717.87,92.43,741.5l-2.37,12.91-.7,3.82L87.1,770.58,86,776.67l-1.7,9.26-.09.53L98,787.77c3.26.32,6.73.64,9.92,1l5.07.5c4,.38,6.85.68,7.21.74l.42-1.14,1.19-3.21,9.35-25.23,10.48-28.31L174,649.24l21.21-46.83-44.67-42.57L114,635.77A44,44,0,0,0,109.47,648.5Z"/><path class="cls-2" d="M242.5,387l-.2,45.58a39.24,39.24,0,0,1-1.47,10.49L197.78,596.52A20.39,20.39,0,0,1,169.85,610c-14.77-6.49-31.58-14-31.49-14.6L160.21,384.1Z"/><path class="cls-2" d="M178.06,612.69a21.23,21.23,0,0,1-8.61-1.82c-32.3-14.2-32.23-14.6-32.07-15.65l21.94-212.13,84.17,3-.2,46.53a40.33,40.33,0,0,1-1.5,10.76L198.73,596.79A21.39,21.39,0,0,1,178.06,612.69ZM139.4,594.94c1.31.79,7.07,3.67,30.85,14.12a19.39,19.39,0,0,0,26.57-12.79l43.06-153.44a38,38,0,0,0,1.43-10.23L241.5,388l-80.4-2.85Z"/><path class="cls-1" d="M171,805.11l8.72-5.18a9.22,9.22,0,0,0,4.44-6.49h0a6.55,6.55,0,0,0-5.58-7.66L162,783.37a30.93,30.93,0,0,1-23.61-16.61L133,755.94,125.73,760a4.15,4.15,0,0,0-2.1,4.72l1.59,4.89-9.94,3.89c-6.73,2.64-13.87,1.42-18.39-3.13l-7-7c-1.22-1.23-3.55-.3-3.91,1.55l-6.1,31.62.86,7.44Z"/><path class="cls-2" d="M171,806.1h0L80.74,805a1,1,0,0,1-1-.88l-.86-7.44a1,1,0,0,1,0-.3L85,764.72a3.64,3.64,0,0,1,3.51-2.92,2.89,2.89,0,0,1,2.08.86l7,7c4.17,4.2,11.06,5.37,17.33,2.91L124,769l-1.3-4a5.14,5.14,0,0,1,2.55-5.88l7.25-4.07a1,1,0,0,1,.77-.08,1,1,0,0,1,.6.5l5.45,10.81a29.89,29.89,0,0,0,22.86,16.08l16.52,2.41a7.54,7.54,0,0,1,6.42,8.78,10.18,10.18,0,0,1-4.92,7.2L171.48,806A1,1,0,0,1,171,806.1ZM81.64,803l89.07,1.14,8.47-5a8.17,8.17,0,0,0,4-5.78,5.54,5.54,0,0,0-4.74-6.54l-16.52-2.41a31.87,31.87,0,0,1-24.35-17.15l-5-9.89-6.35,3.57a3.2,3.2,0,0,0-1.64,3.55l1.59,4.88a1,1,0,0,1-.58,1.23l-9.94,3.89a20.32,20.32,0,0,1-7.46,1.45,16.75,16.75,0,0,1-12-4.8l-7-7c-.59-.58-2-.12-2.24,1L80.9,796.56Z"/><path class="cls-1" d="M271.5,78.14l-42.57,51.19-12.48,18.82-43.26,33.06-.13-.41-14.81,11.83-10.33,7.89a15.5,15.5,0,0,0-2.14,2.06l-45.25,36.14a39.47,39.47,0,0,0-14.48,41.06L78.42,370,71,388.74a28.93,28.93,0,0,0-1.66,6L62,450l28,8,19.24-43.58L120.48,374a10.45,10.45,0,0,0,.28-1.44,7,7,0,0,0,1.28-3.45l2.43-28.65,19.28,24.85v1.41l-8.4,36.6,107,21.64.11-36.52c-.24-20.56-22.77-132.22-32.75-180.75L238.3,186a24.49,24.49,0,0,0,11.21-9.19l29.15-44,17-38.42Z"/><path class="cls-2" d="M89.94,459a1,1,0,0,1-.28,0l-28-8a1,1,0,0,1-.71-1.08l7.36-55.22a30,30,0,0,1,1.72-6.28l7.4-18.64,7.6-89.88a40.38,40.38,0,0,1,14.89-41.92l45.23-36.13a14.48,14.48,0,0,1,2.13-2.06l10.35-7.91L172.44,180a1,1,0,0,1,.9-.18l42.37-32.38,12.39-18.68,42.64-51.28a1,1,0,0,1,1.31-.19L296.2,93.57a1,1,0,0,1,.35,1.21l-17,38.42-29.23,44.11a25.49,25.49,0,0,1-11.55,9.5L210.84,208.1c9.84,47.85,32.4,159.71,32.64,180.33L243.37,425a1,1,0,0,1-1.19,1l-107-21.64a1,1,0,0,1-.64-.44,1,1,0,0,1-.13-.75l8.37-36.49v-1l-17.52-22.58L123,369.19a7.85,7.85,0,0,1-1.32,3.73,9.26,9.26,0,0,1-.28,1.35l-11.3,40.47L90.85,458.45A1,1,0,0,1,89.94,459Zm-26.89-9.75,26.33,7.57,18.9-42.78,11.25-40.34a10.26,10.26,0,0,0,.26-1.32A1,1,0,0,1,120,372a6.06,6.06,0,0,0,1.1-3l2.42-28.64a1,1,0,0,1,.71-.87,1,1,0,0,1,1.06.34l19.28,24.85a1,1,0,0,1,.21.6l0,1.4a1,1,0,0,1,0,.24l-8.17,35.61,104.83,21.2.12-35.31c-.25-20.52-23-133.1-32.74-180.54a1,1,0,0,1,.37-1l28.56-21.74a.76.76,0,0,1,.23-.13,23.52,23.52,0,0,0,10.76-8.82l29.15-44,16.57-37.51L271.69,79.46l-42,50.51L217.27,148.7a1,1,0,0,1-.22.24L173.79,182a1,1,0,0,1-.85.17L158.87,193.4l-10.35,7.91a13.21,13.21,0,0,0-2,1.91l-45.39,36.27A38.45,38.45,0,0,0,87,279.54a1.13,1.13,0,0,1,0,.32L79.4,370a.82.82,0,0,1-.06.28L71.89,389.1a28.54,28.54,0,0,0-1.61,5.84Z"/><path class="cls-2" d="M77.16,798.6l1,3.13A13.56,13.56,0,0,0,91.47,811h68.27a8.26,8.26,0,0,0,3.77-1l13-6.74a.8.8,0,0,0-.37-1.51h-53.3a3.18,3.18,0,0,1-2.44-1h0a16.22,16.22,0,0,0-12.26-5.27H79.62A2.57,2.57,0,0,0,77.16,798.6Z"/><path class="cls-2" d="M183.11,236.82a1,1,0,0,1-.55-.16,1,1,0,0,1-.28-1.37l9.83-15a1.26,1.26,0,0,1,.22-.24l19.38-15.19a1,1,0,0,1,1.39.17,1,1,0,0,1-.17,1.38l-19.25,15.1-9.75,14.92A1,1,0,0,1,183.11,236.82Z"/><path class="cls-2" d="M129.31,348.28a1,1,0,0,1-.81-.43l-20.75-30a1,1,0,1,1,1.62-1.12l20.76,30a1,1,0,0,1-.25,1.38A1,1,0,0,1,129.31,348.28Z"/><polyline class="cls-1" points="305.98 24.92 298.06 47.26 296.69 48.44"/><path class="cls-2" d="M296.69,49.43a1,1,0,0,1-.76-.35,1,1,0,0,1,.11-1.39l1.18-1,7.83-22.1a1,1,0,0,1,1.87.66L299,47.59a1.06,1.06,0,0,1-.29.43l-1.38,1.17A1,1,0,0,1,296.69,49.43Z"/><path class="cls-2" d="M295.88,43.35l-.19,0a1,1,0,0,1-.79-1.15l5.74-30.52a1,1,0,1,1,1.94.36l-5.73,30.52A1,1,0,0,1,295.88,43.35Z"/><path class="cls-2" d="M290.69,41.17l-.15,0a1,1,0,0,1-.83-1.12l4.64-30.79a1,1,0,0,1,2,.29l-4.64,30.79A1,1,0,0,1,290.69,41.17Z"/><path class="cls-1" d="M42.75,491.12h0a3.6,3.6,0,0,1-1.62-4.84l6-12.1A3.63,3.63,0,0,1,52,472.55h0a3.62,3.62,0,0,1,1.62,4.85l-6,12.1A3.62,3.62,0,0,1,42.75,491.12Z"/><path class="cls-2" d="M44.36,492.49a4.6,4.6,0,0,1-4.12-6.66l6-12.09a4.69,4.69,0,0,1,6.18-2.07,4.6,4.6,0,0,1,2.08,6.17l-6,12.1A4.61,4.61,0,0,1,44.36,492.49Zm6-19.33a2.62,2.62,0,0,0-2.36,1.46l-6,12.1a2.64,2.64,0,0,0,1.18,3.52,2.69,2.69,0,0,0,3.54-1.18l6-12.1a2.64,2.64,0,0,0-2.36-3.8Z"/><path class="cls-2" d="M72.59,496.5a1.07,1.07,0,0,1-.48-.12,1,1,0,0,1-.38-1.35l6.15-11.09a1,1,0,0,1,1.73,1L73.46,496A1,1,0,0,1,72.59,496.5Z"/><path class="cls-1" d="M48.24,497h0a4.21,4.21,0,0,1-1.89-5.65l7-14.08A4.21,4.21,0,0,1,59,475.36h0A4.19,4.19,0,0,1,60.93,481l-7,14.09A4.22,4.22,0,0,1,48.24,497Z"/><path class="cls-2" d="M50.12,498.41a5.08,5.08,0,0,1-2.32-.55,5.19,5.19,0,0,1-2.33-7l7-14.08a5.2,5.2,0,1,1,9.32,4.63l-7,14.09A5.19,5.19,0,0,1,50.12,498.41Zm7-22.51a3.2,3.2,0,0,0-2.89,1.79l-7,14.08a3.21,3.21,0,0,0,1.44,4.32A3.3,3.3,0,0,0,53,494.65l7-14.09a3.23,3.23,0,0,0-2.89-4.66Z"/><path class="cls-1" d="M54.78,502.3h0a4.39,4.39,0,0,1-2-5.9l7.35-14.74a4.42,4.42,0,0,1,5.92-2h0a4.39,4.39,0,0,1,2,5.9l-7.36,14.73A4.41,4.41,0,0,1,54.78,502.3Z"/><path class="cls-2" d="M56.74,503.75a5.46,5.46,0,0,1-2.41-.56,5.39,5.39,0,0,1-2.71-3.12,5.3,5.3,0,0,1,.29-4.11l7.36-14.74a5.37,5.37,0,0,1,4.83-3A5.39,5.39,0,0,1,68.94,486l-7.36,14.74A5.38,5.38,0,0,1,56.74,503.75Zm7.36-23.54A3.41,3.41,0,0,0,61,482.1l-7.36,14.74a3.36,3.36,0,0,0-.18,2.6,3.4,3.4,0,0,0,1.72,2,3.48,3.48,0,0,0,4.58-1.54l7.36-14.73a3.42,3.42,0,0,0-1.54-4.58A3.33,3.33,0,0,0,64.1,480.21Z"/><path class="cls-1" d="M59.73,509.08h0a4.4,4.4,0,0,1-2-5.9l7.36-14.73a4.42,4.42,0,0,1,5.92-2h0a4.4,4.4,0,0,1,2,5.9l-7.36,14.74A4.42,4.42,0,0,1,59.73,509.08Z"/><path class="cls-2" d="M61.7,510.53a5.46,5.46,0,0,1-2.41-.56,5.39,5.39,0,0,1-2.71-3.12,5.3,5.3,0,0,1,.29-4.11L64.23,488a5.4,5.4,0,0,1,9.66,4.82l-7.35,14.73A5.38,5.38,0,0,1,61.7,510.53ZM69.06,487a3.41,3.41,0,0,0-3.06,1.9l-7.36,14.73a3.38,3.38,0,0,0-.18,2.61,3.43,3.43,0,0,0,1.71,2,3.48,3.48,0,0,0,4.59-1.53l7.36-14.74a3.42,3.42,0,0,0-1.53-4.58A3.51,3.51,0,0,0,69.06,487Z"/><path class="cls-2" d="M385.37,20.74l-1.69,6.07-1.49,5.3-2.55-13.82-.83-4.51A3.66,3.66,0,0,1,381,9.88a0,0,0,0,1,0,0,1,1,0,0,1,1.14.7Z"/><path class="cls-2" d="M381.24,35.5l.95-3.39,1.49-5.3-4-8.52-1.14-2.41a.93.93,0,0,0-1.21-.56s0,0,0,0a3.64,3.64,0,0,0-1.6,4.14L380,32.84l1.08,3.32Z"/><path class="cls-2" d="M381.24,35.5,380,32.84,374.91,22.1a.92.92,0,0,0-1.21-.53h0a3.64,3.64,0,0,0-1.6,4.15l6.37,19.72,2.6-9.29Z"/><path class="cls-1" d="M469.19,190.58l-36.43-35.89.28-.2-19-36.27L392.62,89.43l.25.07L380.1,72.56a11.2,11.2,0,0,1-1.79-9.88l1-3.36,5-14.38a7.12,7.12,0,0,0-.15-5.12l-1.95-4.68L385,27.49a12.7,12.7,0,0,0,.76-5.46l-1.41-17.2a.93.93,0,0,0-1-.86h-.07a3.72,3.72,0,0,0-3.17,3.44l-1,15.79-8.44,16.43-2.41,2.65a1.06,1.06,0,0,1-1.21.24,1.08,1.08,0,0,1-.63-1.11c.32-2.84,1.5-11.9,1.72-13.42a2.76,2.76,0,0,0-2.31-3.13h-.1a2.85,2.85,0,0,0-3,1.74s-2.23,7-3.55,11.54a17.56,17.56,0,0,1-2,4.52A14.94,14.94,0,0,0,355,50.27l.08,7.45c.06,4.23-.1,8.46,4.06,12.68l4.19,7,30.35,66.66,14.42,24.83h0a8.1,8.1,0,0,0,1.07,1.84l31.1,39.32,36.44,36.69,22.11-23.35v-9.73Z"/><path class="cls-2" d="M476.71,247.73a1,1,0,0,1-.68-.28l-36.44-36.69-31.18-39.4a9.22,9.22,0,0,1-1.19-2.05h0l-14.39-24.73-30.4-66.75L358.37,71c-4.17-4.27-4.21-8.54-4.25-12.67l-.1-8a16,16,0,0,1,2.37-8.13,16,16,0,0,0,1.89-4.27c1.33-4.52,3.56-11.57,3.56-11.57a3.84,3.84,0,0,1,4.06-2.41,3.75,3.75,0,0,1,3.24,4.25c-.23,1.61-1.4,10.58-1.71,13.38l.88.76-.71-.65,2.32-2.56L378.21,23l1-15.59a4.71,4.71,0,0,1,4-4.34l.29,0a1.9,1.9,0,0,1,1.89,1.76L386.75,22a13.69,13.69,0,0,1-.82,5.88l-2.68,7.29,1.81,4.33a8,8,0,0,1,.17,5.81l-5,14.38-1,3.31a10.23,10.23,0,0,0,1.64,9l12.63,16.76a1,1,0,0,1,.36.75l20.94,28.15L433.9,154a1,1,0,0,1,.1.52l35.87,35.34,29.55,23a1,1,0,0,1,.37.76v9.73a1,1,0,0,1-.27.67l-22.11,23.34a1,1,0,0,1-.69.3ZM363.65,27s-2.2,7-3.52,11.45a18,18,0,0,1-2.1,4.75A14,14,0,0,0,356,50.28l.1,8c0,4,.08,7.68,3.77,11.43a.49.49,0,0,1,.14.18l4.19,7,30.4,66.76,14.38,24.75a8,8,0,0,0,1,1.73L441,209.48l35.67,35.9L497.86,223v-8.88l-29.27-22.82-36.5-36a1,1,0,0,1-.29-.75,1.09,1.09,0,0,1,.07-.3l-18.69-35.66L391.84,90a1.06,1.06,0,0,1-.19-.51L379.33,73.14a12.18,12.18,0,0,1-1.94-10.73l1-3.36,5-14.43a6.15,6.15,0,0,0-.12-4.43l-2-4.68a.94.94,0,0,1,0-.7l2.81-7.65a11.76,11.76,0,0,0,.7-5.05l-1.4-17.2a2.81,2.81,0,0,0-2.33,2.58l-1,15.78a.8.8,0,0,1-.11.38l-8.43,16.43a1.53,1.53,0,0,1-.14.21L369,42.94a2,2,0,0,1-3.51-1.62c.31-2.81,1.49-11.81,1.72-13.45a1.79,1.79,0,0,0-1.49-2l-.34,0A1.88,1.88,0,0,0,363.65,27Z"/><path class="cls-2" d="M530,140.85a39.26,39.26,0,0,1,16.5-.69,49.54,49.54,0,0,1,7.67,2c5.32,1.85,9.5,6.14,12.78,10.6a29.29,29.29,0,0,1,4.32,9.16c1.12,3.82.24,5-2.65,7.69-4.71,4.35-9.12,7.77-15.57,9.14-4.23.91-2.59-2.58-2.75-5.72-.13-2.53.15-5-.14-7.52-.74-6.39-3.39-13.52-9.61-16.57a23.88,23.88,0,0,0-8.81-2.61,23.6,23.6,0,0,0-5,.14c-.89.12-2.78,1.38-3.61.94A9.11,9.11,0,0,1,530,140.85Z"/><path class="cls-2" d="M551.89,179.9a2.61,2.61,0,0,1-2-.77c-.85-.92-.73-2.35-.61-3.85a15.77,15.77,0,0,0,.1-2.16c-.06-1.08,0-2.14,0-3.2a30.15,30.15,0,0,0-.12-4.26c-.51-4.5-2.37-12.54-9.07-15.81a21.54,21.54,0,0,0-13.22-2.39,6.21,6.21,0,0,0-1,.38c-1.11.47-2.34.9-3.18.47a1,1,0,0,1-.49-1.06,10.13,10.13,0,0,1,7.55-7.33,40.25,40.25,0,0,1,16.91-.71,51.43,51.43,0,0,1,7.82,2.08c4.7,1.64,9,5.22,13.23,10.94a30,30,0,0,1,4.47,9.46c1.25,4.28.14,5.85-2.92,8.67-4.25,3.92-9,7.88-16,9.38A6.65,6.65,0,0,1,551.89,179.9Zm-22-34.57c.65,0,1.3,0,2,.08a24.48,24.48,0,0,1,9.16,2.71c7.52,3.68,9.59,12.43,10.15,17.32a34.38,34.38,0,0,1,.12,4.51c0,1,0,2,0,3.08a17.33,17.33,0,0,1-.09,2.42c-.08.92-.18,2.08.1,2.38a.93.93,0,0,0,.6.14,4.89,4.89,0,0,0,1-.12c5.94-1.26,10-4.22,15.12-8.91,2.81-2.59,3.33-3.46,2.37-6.71a28,28,0,0,0-4.17-8.86c-4-5.4-8-8.75-12.32-10.26a48.37,48.37,0,0,0-7.52-2,38.57,38.57,0,0,0-16.1.67,8.37,8.37,0,0,0-5.66,4.52l.55-.23a6.32,6.32,0,0,1,1.51-.52A24.1,24.1,0,0,1,529.88,145.33Z"/><polygon class="cls-2" points="466.86 188.28 444.27 214.1 476.71 246.77 498.82 223.42 498.82 213.69 469.19 190.58 466.86 188.28"/><line class="cls-5" x1="381.24" y1="35.5" x2="381.05" y2="36.16"/><path class="cls-1" d="M527.16,578.54l24.51-6,78.09-61.34s-12.36-28.92-11.9-27.94l-94.09,40.12-21.34,25.34,2.14,14.65A18.39,18.39,0,0,0,527.16,578.54Z"/><path class="cls-2" d="M522.75,580h0a19.44,19.44,0,0,1-19.13-16.55l-2.14-14.64a1,1,0,0,1,.22-.76L523,522.75a1,1,0,0,1,.36-.26l93.88-40a1,1,0,0,1,1.46.38h0l0,.06h0c.29.74,7.9,18.58,11.89,27.9a1,1,0,0,1-.29,1.14l-78.09,61.34a1,1,0,0,1-.36.17l-24.52,6A19.19,19.19,0,0,1,522.75,580Zm-19.3-31,2.08,14.22a17.51,17.51,0,0,0,17.22,14.9h0a17.45,17.45,0,0,0,4.18-.51l24.31-6,77.34-60.76c-1.64-3.84-9.4-22-11.24-26.36l-93,39.64Z"/><path class="cls-1" d="M491.53,369.66l-6.86,48.52,20.66,150.75s37.54,2.47,37.58,1.44l5.86-99.65,4.69-93.33Z"/><path class="cls-2" d="M540,571.59h0c-8.8,0-34.44-1.68-34.7-1.7a1,1,0,0,1-.89-.83L483.72,418.31a.57.57,0,0,1,0-.26l6.86-48.52a1,1,0,0,1,1.07-.82l61.93,7.73a1,1,0,0,1,.84,1l-4.68,93.32-5.86,99.66C543.83,571.58,542.55,571.59,540,571.59ZM506.18,568c4.39.28,25.91,1.64,33.78,1.64h0c1,0,1.66,0,2,0l5.82-98.94,4.64-92.43-60.09-7.5-6.71,47.45Z"/><path class="cls-1" d="M538.73,535.54,527.29,607a76.72,76.72,0,0,0-.95,14.12l3.37,135s31.09,4.89,30,4.78l22.44-141.07a36,36,0,0,0-.18-12.33l-10.6-56.36Z"/><path class="cls-2" d="M559.75,761.78h-.13l-.18,0c-1.66-.31-22-3.51-29.88-4.75a1,1,0,0,1-.82-.93l-3.36-135a78.68,78.68,0,0,1,1-14.29l11.45-71.41a1,1,0,0,1,1.37-.72l32.65,15.52a1,1,0,0,1,.53.69l10.6,56.36a36.87,36.87,0,0,1,.18,12.66l-22.4,140.84a.49.49,0,0,1,0,.17A1,1,0,0,1,559.75,761.78Zm-29.1-6.57c4.26.67,23.59,3.71,28.27,4.48L581.2,619.6a34.86,34.86,0,0,0-.17-12l-10.51-55.87-31-14.76L528.24,607.1a75.81,75.81,0,0,0-.93,13.94Z"/><path class="cls-1" d="M576.88,354.53l16.42,33.55a38.49,38.49,0,0,1,3.49,22.63L574,563.15s-39.74.31-39.77-.72l-2.3-110.85-3.88-93.36Z"/><path class="cls-2" d="M561.66,564.16c-28.34,0-28.35-.43-28.39-1.7L531,451.6l-3.88-93.34a1,1,0,0,1,.89-1l48.82-3.69a1,1,0,0,1,.94.54l16.42,33.55a39.32,39.32,0,0,1,3.58,23.19L575,563.3a1,1,0,0,1-.94.82S568.55,564.16,561.66,564.16Zm-26.47-2.45c1.48.19,6.87.52,26.48.52,5.28,0,9.73,0,11.51,0l22.66-151.63a37.34,37.34,0,0,0-3.41-22.06l-16.13-33-47.23,3.57,3.84,92.43Z"/><path class="cls-6" d="M637.14,505.53l-8.9-8.88-8.5,12.15a8.23,8.23,0,0,0,.94,10.54l4,4Z"/><path class="cls-1" d="M656.45,489.37h0l-29.71-29.64-3,3a48,48,0,0,0-9.92,14l-3.74,8.06-3.55,3.55L623.22,505a7.21,7.21,0,0,0,6.16,2l9.89-1.46a21.7,21.7,0,0,1,14.42,2.93l22.78,13.88a7.24,7.24,0,0,0,6.92.33l4.37-2.11Z"/><path class="cls-2" d="M680.23,524.41h0a8.21,8.21,0,0,1-4.26-1.2l-22.78-13.88a20.81,20.81,0,0,0-13.79-2.8L629.52,508a8.15,8.15,0,0,1-7-2.3L605.84,489a1,1,0,0,1,0-1.36l3.43-3.44,3.67-7.9A48.78,48.78,0,0,1,623.05,462l3-3a1,1,0,0,1,1.35,0l61,60.87a1,1,0,0,1,.28.84,1,1,0,0,1-.54.71l-4.37,2.11A8.17,8.17,0,0,1,680.23,524.41Zm-37.8-20a22.58,22.58,0,0,1,11.76,3.3L677,521.56a6.28,6.28,0,0,0,3.26.92h0a6.36,6.36,0,0,0,2.74-.63l3.15-1.52-59.38-59.24-2.34,2.29a47,47,0,0,0-9.71,13.77L611,485.2a1.07,1.07,0,0,1-.19.28l-2.88,2.87,16,16a6.26,6.26,0,0,0,5.34,1.76l9.88-1.46A22.93,22.93,0,0,1,642.43,504.39Z"/><polygon class="cls-2" points="687.23 521.06 626.43 460.42 631 455.85 691.79 516.5 687.23 521.06"/><ellipse class="cls-6" cx="628.4" cy="481.17" rx="7.71" ry="7.7"/><path class="cls-2" d="M548.88,799.91a15.07,15.07,0,0,1-12.94,7.76l-19.37.33a8.78,8.78,0,0,1-7.92-12.25L530.16,746l31.2,8.26L561,778.14Z"/><path class="cls-6" d="M533.68,750.59l22.73-1-.95-22.7a7.46,7.46,0,0,0-7.76-7.12l-7.85.33a7.43,7.43,0,0,0-7.12,7.75Z"/><path class="cls-1" d="M564.47,733.18l-12.78.39a7.54,7.54,0,0,0-7.3,6.67l-.37,3.24-2.24-.59-.3-2.3a7.55,7.55,0,0,0-7.69-6.54l-5.44.14.28,10.38L509.12,789.7A8.78,8.78,0,0,0,517,802l19.37-.33a15.1,15.1,0,0,0,13-7.76l12.09-21.77.38-23.89h0Z"/><path class="cls-2" d="M517,802.91h0a9.73,9.73,0,0,1-8.79-13.59l19.42-44.94-.27-10.16a1,1,0,0,1,.94-1l5.67-.15a8.53,8.53,0,0,1,8.44,7.38l.22,1.67.53.14.25-2.13a8.56,8.56,0,0,1,8.23-7.54l12.78-.38a.93.93,0,0,1,.76.33,1,1,0,0,1,.22.8l-2.64,14.73a.66.66,0,0,1,0,.14l-.38,23.89a1,1,0,0,1-.13.45l-12.09,21.77a16.09,16.09,0,0,1-13.76,8.25l-19.38.34Zm12.3-67.78.25,9.41a.84.84,0,0,1-.08.41L510,790.08A7.82,7.82,0,0,0,517,801l19.36-.33a14.17,14.17,0,0,0,12.11-7.27l12-21.55.38-23.4a1,1,0,0,1,0-.42l2.48-13.84-11.6.35a6.61,6.61,0,0,0-6.36,5.83l-.38,3.23a1,1,0,0,1-1.2.83l-2.24-.6a1,1,0,0,1-.71-.8l-.3-2.3A6.59,6.59,0,0,0,534,735Z"/><path class="cls-2" d="M510.48,196.66,493,198.49l21-64.64a7.22,7.22,0,0,1,9.1-4.64l3.09,1A25.26,25.26,0,0,1,541,165.57l-7.67,15.3A28.91,28.91,0,0,1,510.48,196.66Z"/><path class="cls-2" d="M716.17,429.62a4.24,4.24,0,0,1-4.7,2.13l-18.8-4.9-2.56-.65-9.66-2.52-.91-4.69-.22-1.16a39.42,39.42,0,0,0,10.06-.12l.77.31,25.35,10.21A1.09,1.09,0,0,1,716.17,429.62Z"/><path class="cls-2" d="M704.34,433.66l-15.08-9.05-16.65-10-2.46-.3.31,9.33,9.6,4.2,19.77,8.65a4.23,4.23,0,0,0,5-1.35,1.09,1.09,0,0,0-.44-1.48Z"/><path class="cls-2" d="M694.33,437.75a4.28,4.28,0,0,1-5.05,1.09l-28.63-14.45.24-10.53,33.05,22.38a1.08,1.08,0,0,1,.4,1.48Z"/><path class="cls-2" d="M555.36,216.84l-86.47-14.7L473.94,290,599,284.45l-22-50.62A28.93,28.93,0,0,0,555.36,216.84Z"/><path class="cls-2" d="M459.07,215.13,467,254.84l-6.87,18.75A19,19,0,0,0,464,293l17.92,19.62,2.47,102.53,109.14-31.05-25.7-51.27L566.37,239Z"/><path class="cls-1" d="M725.06,415.82a1.1,1.1,0,0,0-1.17-1l-33.7-.18a23.65,23.65,0,0,1-4.51-.54l-15.24-3.43a12.81,12.81,0,0,1-5.08-2.43l-29.16-68a14.3,14.3,0,0,0-1.81-3.09L613,309.23l-33.17-60.16-22.72,14.1,52.35,98.88,23.73,37.12-.1.13,4,6,9.83,15.38.23-.15.13.58A20.65,20.65,0,0,0,658,434.61l0,0,27.75,14.59a1.49,1.49,0,0,0,1.84-.27l.15-.18a2.88,2.88,0,0,0-.61-4l-10.82-9.33a3.34,3.34,0,0,1-.94-1.4,3.22,3.22,0,0,1,2-4.07l17.69-7.13,26.41-3.26a4.26,4.26,0,0,0,3.59-3.72Z"/><path class="cls-2" d="M686.47,450.4a2.43,2.43,0,0,1-1.24-.34l-27.72-14.57a1,1,0,0,1-.2-.15,21.53,21.53,0,0,1-10.95-13.85,1.11,1.11,0,0,1-.28-.29l-9.83-15.37-4-6a1,1,0,0,1-.16-.54l-23.47-36.73-52.39-98.94a1,1,0,0,1,.34-1.27l22.72-14.1a1,1,0,0,1,.75-.12,1,1,0,0,1,.6.47l33.18,60.16,21.35,27.82a15.41,15.41,0,0,1,1.93,3.3l29.06,67.74a11.64,11.64,0,0,0,4.51,2.09l15.24,3.44a22.43,22.43,0,0,0,4.32.51l33.68.18a2.08,2.08,0,0,1,2.12,1.91,5.16,5.16,0,0,1-4.35,4.75l-26.36,3.26-17.58,7.09a2.27,2.27,0,0,0-1.47,2.87,2.34,2.34,0,0,0,.66,1L687.74,444a3.82,3.82,0,0,1,.75,5.31l-.2.25A2.48,2.48,0,0,1,686.47,450.4Zm-27.82-16.5,27.52,14.48a.49.49,0,0,0,.68-.08,1.93,1.93,0,0,0-.32-2.76l-10.88-9.38a4.19,4.19,0,0,1,1.41-7.12l17.64-7.11a.94.94,0,0,1,.24-.06l26.41-3.26a3.3,3.3,0,0,0,2.74-2.76v0a.81.81,0,0,0-.21-.05l-33.69-.18a25.64,25.64,0,0,1-4.72-.56l-15.24-3.44a13.85,13.85,0,0,1-5.47-2.61,1.1,1.1,0,0,1-.29-.38l-29.15-68a13.54,13.54,0,0,0-1.7-2.89L612.2,309.82l-32.77-59.4-21.08,13.09,51.93,98.09,23.68,37a.91.91,0,0,1,.15.5l3.76,5.63,9.48,14.82.15,0a1,1,0,0,1,.57.68l.13.58a19.6,19.6,0,0,0,10.22,12.84A.91.91,0,0,1,658.65,433.9Z"/><g class="cls-7"><path class="cls-2" d="M490.15,194.19l7,1.13a3.62,3.62,0,0,1,2.5,5.46l-4.82,7.83"/></g><path class="cls-1" d="M517.16,181l-3.49-9.76-11.08,4-3.44-4.85,7.1-21.89-20-6.46L484,149l-5.52-7.78-3.92,12.09a3.49,3.49,0,0,0-.17,1.36l.31,4.51a3.61,3.61,0,0,1-2.13,3.54l-1.25.55v0l-3.75.81a3.61,3.61,0,0,0-2.07,5.77l2.62,3.31-3.93,12.1a7.22,7.22,0,0,0,6.86,9.45l18.31,0L502,230.05a5.79,5.79,0,0,0,9.93,1.72L528.16,212Z"/><path class="cls-2" d="M507.45,234.86h0a6.69,6.69,0,0,1-6.38-4.48l-12.39-34.63-17.63,0a8.17,8.17,0,0,1-7.78-10.7L467,173.4l-2.3-2.9a4.57,4.57,0,0,1,2.63-7.31l3.54-.77h0l1.24-.55a2.67,2.67,0,0,0,1.57-2.6l-.31-4.5a4.65,4.65,0,0,1,.21-1.73l3.92-12.09a.94.94,0,0,1,.77-.65,1,1,0,0,1,.93.39l4.41,6.21,1.69-5.2a1,1,0,0,1,1.22-.62l20,6.46a1,1,0,0,1,.56.48,1,1,0,0,1,.06.74l-6.95,21.43L503,174l10.4-3.72a1,1,0,0,1,1.23.59l14.49,40.72a1,1,0,0,1-.16.93l-16.25,19.82A6.72,6.72,0,0,1,507.45,234.86Zm-35.58-70.75a1.06,1.06,0,0,1-.34.16l-3.75.8a2.64,2.64,0,0,0-1.52,4.23l2.61,3.3a1,1,0,0,1,.16.9l-3.92,12.11a6.26,6.26,0,0,0,5.95,8.18l18.3,0a1,1,0,0,1,.91.64l12.61,35.27a4.79,4.79,0,0,0,4.56,3.19h0a4.73,4.73,0,0,0,3.72-1.76l15.91-19.41-14-39.29-10.17,3.63a1,1,0,0,1-1.11-.35l-3.44-4.84a1,1,0,0,1-.13-.86l6.81-21-18.13-5.86-2,6.11a1,1,0,0,1-1.7.26l-4.41-6.21-3.34,10.26a2.8,2.8,0,0,0-.12,1l.31,4.51a4.6,4.6,0,0,1-2.7,4.5Z"/><path class="cls-2" d="M509.26,126.26l.9.29a7.22,7.22,0,0,1,4.65,9.1l-7.74,23.85-31.84-10.31,2.17-6.68A25.3,25.3,0,0,1,509.26,126.26Z"/><path class="cls-1" d="M511.84,178.23l-17-5.51,5-15.55,17,5.51a6.57,6.57,0,0,1,4.23,8.28l-1,3A6.58,6.58,0,0,1,511.84,178.23Z"/><rect class="cls-1" x="496.75" y="174.38" width="15.98" height="12.76" transform="translate(177.31 605.28) rotate(-72.06)"/><path class="cls-2" d="M493.58,139.91,514,146.53,510.62,157a53.44,53.44,0,0,0,6.75,2.52c.78,0-9.24,5.76-15.51,9.33a2.16,2.16,0,0,1-3.13-2.55l2.17-6.7a2.16,2.16,0,0,0-1.39-2.73l-10.35-3.35Z"/><path class="cls-1" d="M476.1,154.75l4.71,1.52a2.17,2.17,0,0,1,1.26,1.08l1.32,2.59"/><path class="cls-2" d="M483.4,160.9a1,1,0,0,1-.86-.52l-1.33-2.6a1.17,1.17,0,0,0-.7-.59l-4.71-1.53a1,1,0,0,1,.6-1.83l4.71,1.52a3.09,3.09,0,0,1,1.82,1.56l1.33,2.59a1,1,0,0,1-.86,1.4Z"/><path class="cls-1" d="M473.55,177.32l-1.28,1.28a3.6,3.6,0,0,1-2.65,1.05l-3.41-.09,1.38-4.25Z"/><path class="cls-2" d="M469.72,180.62h-.13l-3.4-.09a1,1,0,0,1-.9-1.26l1.38-4.26a1,1,0,0,1,.49-.57,1,1,0,0,1,.74-.05l6,2a1,1,0,0,1,.63.7,1,1,0,0,1-.26.9L473,179.28A4.52,4.52,0,0,1,469.72,180.62Zm-2.19-2,2.11.06.08,1v-1a2.63,2.63,0,0,0,1.87-.77l.18-.18-3.56-1.21Z"/><path class="cls-1" d="M545.39,154.72a3.86,3.86,0,0,1-3.86-3.77,15.57,15.57,0,0,0-3.36-9.84,3.86,3.86,0,0,1,6-4.85,23.3,23.3,0,0,1,5.08,14.52,3.86,3.86,0,0,1-3.78,3.94Z"/><path class="cls-2" d="M545.39,155.69a4.85,4.85,0,0,1-4.82-4.71,14.68,14.68,0,0,0-3.15-9.26,4.83,4.83,0,0,1,.71-6.78,5,5,0,0,1,6.79.71,24.23,24.23,0,0,1,5.29,15.11,4.8,4.8,0,0,1-4.71,4.92Zm-4.22-19.9a2.9,2.9,0,0,0-2.25,4.72,16.43,16.43,0,0,1,3.57,10.42,2.92,2.92,0,0,0,2.9,2.83v1l.07-1a2.9,2.9,0,0,0,2.82-3,22.33,22.33,0,0,0-4.86-13.93A2.86,2.86,0,0,0,541.17,135.79Z"/><polygon class="cls-2" points="594.46 275.65 570.43 287.45 557.07 263.16 579.79 249.07 594.46 275.65"/><path class="cls-2" d="M570,288.72l-14.24-25.9,24.35-15.11,15.64,28.36ZM558.36,263.5l12.47,22.68,22.29-10.95-13.69-24.81Z"/><polygon class="cls-1" points="514.43 406.61 541.2 399.09 541.2 423.04 514.43 423.04 514.43 406.61"/></g></g></svg>