<svg xmlns="http://www.w3.org/2000/svg" viewBox="0 0 1323 692"><defs><style>.cls-1{fill:none;}.cls-2{fill:#f6f5f1;}.cls-3{fill:#1d2445;}</style></defs><g id="Layer_2" data-name="Layer 2"><g id="Layer_1-2" data-name="Layer 1"><rect class="cls-1" width="1323" height="692"/><rect class="cls-2" x="721.54" y="1.04" width="120.08" height="689.92"/><path class="cls-3" d="M841.63,692H721.54a1,1,0,0,1-1-1V1a1,1,0,0,1,1-1H841.63a1,1,0,0,1,1,1V691A1,1,0,0,1,841.63,692Zm-119-2.08h118V2.08h-118Z"/><rect class="cls-2" x="601.46" y="1.04" width="120.08" height="689.92"/><path class="cls-3" d="M721.54,692H601.46a1,1,0,0,1-1-1V1a1,1,0,0,1,1-1H721.54a1,1,0,0,1,1,1V691A1,1,0,0,1,721.54,692Zm-119-2.08h118V2.08h-118Z"/><rect class="cls-2" x="841.63" y="1.04" width="120.08" height="689.92"/><path class="cls-3" d="M961.71,692H841.63a1,1,0,0,1-1-1V1a1,1,0,0,1,1-1H961.71a1,1,0,0,1,1,1V691A1,1,0,0,1,961.71,692Zm-119.05-2.08h118V2.08h-118Z"/><rect class="cls-2" x="1081.79" y="1.04" width="120.08" height="689.92"/><path class="cls-3" d="M1201.88,692H1081.79a1,1,0,0,1-1-1V1a1,1,0,0,1,1-1h120.09a1,1,0,0,1,1,1V691A1,1,0,0,1,1201.88,692Zm-119.05-2.08h118V2.08h-118Z"/><rect class="cls-2" x="361.29" y="1.04" width="120.08" height="689.92"/><path class="cls-3" d="M481.37,692H361.29a1,1,0,0,1-1-1V1a1,1,0,0,1,1-1H481.37a1,1,0,0,1,1,1V691A1,1,0,0,1,481.37,692Zm-119-2.08h118V2.08h-118V689.92Z"/><rect class="cls-2" x="121.12" y="1.04" width="120.08" height="689.92"/><path class="cls-3" d="M241.21,692H121.12a1,1,0,0,1-1-1V1a1,1,0,0,1,1-1H241.21a1,1,0,0,1,1,1V691A1,1,0,0,1,241.21,692Zm-119-2.08h118V2.08h-118Z"/><rect class="cls-2" x="961.71" y="1.04" width="120.08" height="689.92"/><path class="cls-3" d="M1081.79,692H961.71a1,1,0,0,1-1-1V1a1,1,0,0,1,1-1h120.08a1,1,0,0,1,1,1V691A1,1,0,0,1,1081.79,692Zm-119-2.08h118V2.08h-118Z"/><rect class="cls-2" x="1201.88" y="1.04" width="120.08" height="689.92"/><path class="cls-3" d="M1322,692H1201.88a1,1,0,0,1-1-1V1a1,1,0,0,1,1-1H1322a1,1,0,0,1,1,1V691A1,1,0,0,1,1322,692Zm-119-2.08h118V2.08h-118Z"/><rect class="cls-2" x="481.37" y="1.04" width="120.08" height="689.92"/><path class="cls-3" d="M601.46,692H481.37a1,1,0,0,1-1-1V1a1,1,0,0,1,1-1H601.46a1,1,0,0,1,1,1V691A1,1,0,0,1,601.46,692Zm-119-2.08h118V2.08h-118Z"/><rect class="cls-2" x="241.21" y="1.04" width="120.08" height="689.92"/><path class="cls-3" d="M361.29,692H241.21a1,1,0,0,1-1-1V1a1,1,0,0,1,1-1H361.29a1,1,0,0,1,1,1V691A1,1,0,0,1,361.29,692Zm-119-2.08h118V2.08h-118V689.92Z"/><rect class="cls-2" x="1.04" y="1.04" width="120.08" height="689.92"/><path class="cls-3" d="M121.12,692H1a1,1,0,0,1-1-1V1A1,1,0,0,1,1,0H121.12a1,1,0,0,1,1,1V691A1,1,0,0,1,121.12,692Zm-119-2.08h118V2.08H2.08Z"/></g></g></svg>