<svg xmlns="http://www.w3.org/2000/svg" xmlns:xlink="http://www.w3.org/1999/xlink" viewBox="0 0 398 192.5"><defs><style>.cls-1,.cls-7{fill:none;}.cls-2,.cls-6{fill:#f6f5f1;}.cls-3{fill:#1d2445;}.cls-4{clip-path:url(#clip-path);}.cls-5{clip-path:url(#clip-path-2);}.cls-6,.cls-7{stroke:#1d2445;stroke-linecap:round;stroke-linejoin:round;}.cls-8{clip-path:url(#clip-path-3);}.cls-9{clip-path:url(#clip-path-4);}.cls-10{clip-path:url(#clip-path-5);}.cls-11{clip-path:url(#clip-path-6);}.cls-12{clip-path:url(#clip-path-7);}.cls-13{clip-path:url(#clip-path-8);}</style><clipPath id="clip-path" transform="translate(0 0)"><rect class="cls-1" y="79" width="200" height="79"/></clipPath><clipPath id="clip-path-2" transform="translate(0 0)"><rect class="cls-1" x="99.5" y="11.5" width="75" height="74"/></clipPath><clipPath id="clip-path-3" transform="translate(0 0)"><rect class="cls-1" x="111.5" y="92.5" width="43" height="43"/></clipPath><clipPath id="clip-path-4" transform="translate(0 0)"><rect class="cls-1" x="197" width="201" height="80"/></clipPath><clipPath id="clip-path-5" transform="translate(0 0)"><rect class="cls-1" x="197" y="69" width="201" height="80"/></clipPath><clipPath id="clip-path-6" transform="translate(0 0)"><rect class="cls-1" x="234.5" y="14.5" width="75" height="65"/></clipPath><clipPath id="clip-path-7" transform="translate(0 0)"><rect class="cls-1" x="225.5" y="80.5" width="75" height="76"/></clipPath><clipPath id="clip-path-8" transform="translate(0 0)"><rect class="cls-1" x="47.5" y="145.5" width="308" height="18"/></clipPath></defs><g id="Layer_2" data-name="Layer 2"><g id="Layer_1-2" data-name="Layer 1"><polygon class="cls-2" points="169.11 179.28 200.79 177.15 232.89 179.28 232.89 127.77 169.11 127.77 169.11 179.28"/><path class="cls-3" d="M168.77,179.64a.48.48,0,0,1-.16-.36V127.77a.5.5,0,0,1,.5-.5h63.78a.5.5,0,0,1,.5.5v51.51a.48.48,0,0,1-.16.36.5.5,0,0,1-.37.14l-32-2.13-31.68,2.13h0A.48.48,0,0,1,168.77,179.64Zm.84-51.37v50.48l31.21-2.1,31.57,2.1V128.27Z" transform="translate(0 0)"/><rect class="cls-2" x="38" y="3" width="326" height="167.3"/><path class="cls-3" d="M37.5,170.3V3a.5.5,0,0,1,.5-.5H364a.5.5,0,0,1,.5.5V170.3a.5.5,0,0,1-.5.5H38A.5.5,0,0,1,37.5,170.3ZM363.5,3.5H38.5V169.8h325Z" transform="translate(0 0)"/><rect class="cls-2" x="46.5" y="10.2" width="308.99" height="152.9"/><path class="cls-3" d="M46,163.1V10.2a.5.5,0,0,1,.5-.5h309a.5.5,0,0,1,.5.5V163.1a.5.5,0,0,1-.5.5H46.5A.5.5,0,0,1,46,163.1ZM355,10.7H47V162.6H355Z" transform="translate(0 0)"/><path class="cls-2" d="M124.7,190.6a2.49,2.49,0,0,1,1.14-3.34c14.77-7.23,43.57-11.72,75.16-11.72s60.39,4.49,75.16,11.72a2.5,2.5,0,1,1-2.2,4.49c-14.13-6.92-42.08-11.21-73-11.21s-58.83,4.29-73,11.21a2.56,2.56,0,0,1-1.1.25A2.48,2.48,0,0,1,124.7,190.6Z" transform="translate(0 0)"/><path class="cls-3" d="M124.25,190.82a3,3,0,0,1,1.37-4C140.46,179.55,169.34,175,201,175s60.54,4.51,75.38,11.77a3,3,0,0,1,1.37,4,3,3,0,0,1-2.69,1.68,3,3,0,0,1-1.32-.3C259.68,185.31,231.8,181,201,181s-58.68,4.27-72.74,11.16a3,3,0,0,1-1.32.3A3,3,0,0,1,124.25,190.82Zm149.93.48a2,2,0,0,0,2.68-.92,2,2,0,0,0-.92-2.67C261.23,180.51,232.52,176,201,176s-60.23,4.47-74.94,11.67a2,2,0,0,0-.92,2.67,2.05,2.05,0,0,0,2.68.92C142,184.35,170.05,180,201,180S260,184.35,274.18,191.3Z" transform="translate(0 0)"/><g class="cls-4"><rect class="cls-2" x="0.5" y="79.49" width="199" height="78.01"/><path class="cls-3" d="M199.5,158H.5a.49.49,0,0,1-.5-.49v-78A.49.49,0,0,1,.5,79h199a.49.49,0,0,1,.5.49v78A.49.49,0,0,1,199.5,158ZM1,80v77H199V80Z" transform="translate(0 0)"/></g><g class="cls-5"><path class="cls-6" d="M100,77.15V85h74V77.15A13.21,13.21,0,0,0,160.77,64H113.23A13.21,13.21,0,0,0,100,77.15Z" transform="translate(0 0)"/><ellipse class="cls-3" cx="127.91" cy="48.3" rx="14.23" ry="14.2"/><ellipse class="cls-3" cx="139.85" cy="48.3" rx="14.23" ry="14.2"/><path class="cls-6" d="M136.79,78.22,129.3,63.76V46h17.82V64.06l-6.76,14.1A2,2,0,0,1,136.79,78.22Z" transform="translate(0 0)"/><ellipse class="cls-3" cx="125.01" cy="31.09" rx="11.81" ry="11.78"/><path class="cls-3" d="M153.9,25.27A13.79,13.79,0,0,0,140.09,11.5H136a13.79,13.79,0,0,0-13.81,13.77V48.72H153.9Z" transform="translate(0 0)"/><path class="cls-2" d="M125.15,18V41.81a7.42,7.42,0,0,0,2,5.11l5.26,5.54a4,4,0,0,0,2.9,1.25h5.73A4,4,0,0,0,144,52.46l5.26-5.54a7.42,7.42,0,0,0,2-5.11v-.43a4.51,4.51,0,0,0,0-9V29.14A11.18,11.18,0,0,0,140.08,18H125.15Z" transform="translate(0 0)"/><path class="cls-7" d="M125.15,18V41.81a7.42,7.42,0,0,0,2,5.11l5.26,5.54a4,4,0,0,0,2.9,1.25h5.73A4,4,0,0,0,144,52.46l5.26-5.54a7.42,7.42,0,0,0,2-5.11v-.43a4.51,4.51,0,0,0,0-9V29.14A11.18,11.18,0,0,0,140.08,18H125.15Z" transform="translate(0 0)"/><path class="cls-3" d="M121.88,24.56v5.58h6.32a10,10,0,0,0,9.65-7.39l2-7.34h-8.74A9.17,9.17,0,0,0,121.88,24.56Z" transform="translate(0 0)"/><polygon class="cls-3" points="148.38 30.19 152.96 30.19 152.85 32.68 148.38 32.68 148.38 30.19"/><line class="cls-7" x1="136.71" y1="31.6" x2="136.71" y2="41.28"/><path class="cls-3" d="M140.94,31.19H148v4.6a.36.36,0,0,1-.36.36h-6.72a.36.36,0,0,1-.36-.36V31.55a.36.36,0,0,1,.36-.36m0-1a1.36,1.36,0,0,0-1.36,1.36v4.24a1.36,1.36,0,0,0,1.36,1.36h6.72A1.36,1.36,0,0,0,149,35.79v-5.6Z" transform="translate(0 0)"/><path class="cls-3" d="M128.4,31.19h7.09a.36.36,0,0,1,.36.36v4.24a.36.36,0,0,1-.36.36h-6.73a.36.36,0,0,1-.36-.36v-4.6m-1-1v5.6a1.35,1.35,0,0,0,1.35,1.36h6.73a1.35,1.35,0,0,0,1.35-1.36V31.55a1.35,1.35,0,0,0-1.35-1.36Z" transform="translate(0 0)"/><polygon class="cls-6" points="133.73 43.67 134.45 45.43 137.8 46.09 141.16 45.43 141.88 43.67 137.8 43.63 133.73 43.67"/><path class="cls-3" d="M129.41,25.27h-6.78v10.8a3.35,3.35,0,0,1-3.36,3.35h0V49.1c.13-.13,2.43-1.8,4.56-3.34a8.75,8.75,0,0,0,3.65-7.12V32a1.93,1.93,0,0,1,1.93-1.92h0Z" transform="translate(0 0)"/><rect class="cls-3" x="118.52" y="27.88" width="6.34" height="11.54"/><polygon class="cls-3" points="135.97 30.19 140.54 30.19 140.44 32.68 135.97 32.68 135.97 30.19"/></g><g class="cls-8"><circle class="cls-3" cx="133" cy="114" r="21"/><path class="cls-3" d="M111.5,114A21.5,21.5,0,1,1,133,135.5,21.52,21.52,0,0,1,111.5,114Zm1,0A20.5,20.5,0,1,0,133,93.5,20.52,20.52,0,0,0,112.5,114Z" transform="translate(0 0)"/><circle class="cls-2" cx="133" cy="106.81" r="6.36"/><path class="cls-3" d="M126.15,106.81a6.85,6.85,0,1,1,6.85,6.86A6.85,6.85,0,0,1,126.15,106.81Zm1,0A5.86,5.86,0,1,0,133,101,5.87,5.87,0,0,0,127.14,106.81Z" transform="translate(0 0)"/><path class="cls-2" d="M123.47,124.06v5.52h19.06v-5.52a9.53,9.53,0,0,0-9.53-9.53h0A9.53,9.53,0,0,0,123.47,124.06Z" transform="translate(0 0)"/><path class="cls-3" d="M123,129.59v-5.52a10,10,0,1,1,20.06,0v5.51a.5.5,0,0,1-.5.5H123.47A.49.49,0,0,1,123,129.59ZM142,124.07a9,9,0,0,0-18.08,0v5H142Z" transform="translate(0 0)"/></g><g class="cls-9"><rect class="cls-2" x="197.5" y="0.5" width="200" height="79"/><path class="cls-3" d="M197.5,0h200a.5.5,0,0,1,.5.5v79a.5.5,0,0,1-.5.5h-200a.5.5,0,0,1-.5-.5V.5A.5.5,0,0,1,197.5,0ZM397,79V1H198V79Z" transform="translate(0 0)"/></g><g class="cls-10"><rect class="cls-2" x="197.5" y="69.5" width="200" height="79"/><path class="cls-3" d="M197.5,69h200a.5.5,0,0,1,.5.5v79a.5.5,0,0,1-.5.5h-200a.5.5,0,0,1-.5-.5v-79A.5.5,0,0,1,197.5,69ZM397,148V70H198v78Z" transform="translate(0 0)"/></g><g class="cls-11"><path class="cls-3" d="M271.61,62.39V17.26a2.77,2.77,0,0,1,2.77-2.76h4.89a7.9,7.9,0,0,1,7.9,7.89v40Z" transform="translate(0 0)"/><path class="cls-6" d="M272.51,21.41a2.46,2.46,0,0,0-1.49-.76,3.06,3.06,0,0,0-2.42.38,2.49,2.49,0,1,1-3-4A8,8,0,0,1,272,15.77a7.1,7.1,0,0,1,4.81,3.16,2.47,2.47,0,0,1-.92,3.39,2.43,2.43,0,0,1-1.24.33A2.48,2.48,0,0,1,272.51,21.41Z" transform="translate(0 0)"/><path class="cls-3" d="M284.58,40.36V34.07a14.41,14.41,0,0,0-14.42-14.39h-4.09a14.41,14.41,0,0,0-14.42,14.39v7.69L274.87,50h0A9.69,9.69,0,0,0,284.58,40.36Z" transform="translate(0 0)"/><path class="cls-6" d="M235,71.15V79h74V71.15A13.21,13.21,0,0,0,295.77,58H248.23A13.21,13.21,0,0,0,235,71.15Z" transform="translate(0 0)"/><path class="cls-6" d="M265,72.07l14-14.13V40.59H261.56V70.67A2,2,0,0,0,265,72.07Z" transform="translate(0 0)"/><path class="cls-2" d="M276.76,40.41H253v8.68a14.49,14.49,0,0,0,2.06,7.45L257.72,61a1.7,1.7,0,0,0,1.44.83l9.63.09a1.67,1.67,0,0,0,1.21-.49l8.78-8.64V49.93a2,2,0,0,0,.43,0h.15a2.49,2.49,0,0,0,2.48-2.48V40.65a2.48,2.48,0,0,0-2.48-2.47h-.15a2.47,2.47,0,0,0-2.45,2.23Z" transform="translate(0 0)"/><path class="cls-7" d="M276.76,40.41H253v8.68a14.49,14.49,0,0,0,2.06,7.45L257.72,61a1.7,1.7,0,0,0,1.44.83l9.63.09a1.67,1.67,0,0,0,1.21-.49l8.78-8.64V49.93a2,2,0,0,0,.43,0h.15a2.49,2.49,0,0,0,2.48-2.48V40.65a2.48,2.48,0,0,0-2.48-2.47h-.15a2.47,2.47,0,0,0-2.45,2.23Z" transform="translate(0 0)"/><path class="cls-6" d="M263.81,56.58,262,56.46a2,2,0,0,1-1.86-1.94l-.12-5V45" transform="translate(0 0)"/><ellipse class="cls-3" cx="265.32" cy="41.63" rx="13.67" ry="6.36"/></g><g class="cls-12"><path class="cls-6" d="M226,148.18V156h74v-7.83A13.19,13.19,0,0,0,286.77,135H239.23A13.19,13.19,0,0,0,226,148.18Z" transform="translate(0 0)"/><path class="cls-3" d="M244.07,98.17a15.77,15.77,0,0,1,15.82-15.73h4.49a15.77,15.77,0,0,1,15.81,15.73v12.37l-36.12-.36Z" transform="translate(0 0)"/><path class="cls-6" d="M282,111h0c0-3.29-2.1-6-4.69-6h-7.61a1.06,1.06,0,0,0-.92,1.16v9.57a1.07,1.07,0,0,0,.92,1.17h7.61C279.86,117,282,114.31,282,111Z" transform="translate(0 0)"/><path class="cls-6" d="M242.05,111h0c0-3.29,2.11-6,4.7-6h7.61a1.06,1.06,0,0,1,.92,1.16v9.57a1.07,1.07,0,0,1-.92,1.17h-7.61C244.16,117,242.05,114.31,242.05,111Z" transform="translate(0 0)"/><path class="cls-6" d="M247.68,98.6v27.84h28.91V98.6a8.87,8.87,0,0,0-8.9-8.85H256.57A8.87,8.87,0,0,0,247.68,98.6Z" transform="translate(0 0)"/><path class="cls-6" d="M263.83,116.19h-3a2,2,0,0,1-2-2v-5.3h-.06a2.13,2.13,0,0,0,.06-.45v-.36a3,3,0,0,0-3-3h-8" transform="translate(0 0)"/><path class="cls-3" d="M246,121.11h0a3.73,3.73,0,0,0-1.33,2.85v5.13a13.59,13.59,0,0,0,13.63,13.55h5.48l-.5-25.95h-3.06a6,6,0,0,0-3,.79l-3.06,1.73a1.13,1.13,0,0,1-.22.11,2.56,2.56,0,0,1-3.48-2.41v-8.69a3.15,3.15,0,0,0-3.16-3.14v13.19A3.71,3.71,0,0,1,246,121.11Z" transform="translate(0 0)"/><path class="cls-3" d="M278.09,121.11h0a3.73,3.73,0,0,1,1.33,2.85v5.13a13.59,13.59,0,0,1-13.62,13.55h-5.49l.5-25.95h3.06a5.92,5.92,0,0,1,3,.79l3.06,1.73a1.13,1.13,0,0,0,.22.11,2.57,2.57,0,0,0,3.49-2.41v-8.69a3.14,3.14,0,0,1,3.15-3.14v13.19A3.71,3.71,0,0,0,278.09,121.11Z" transform="translate(0 0)"/><path class="cls-3" d="M258.32,92.73h5.08a3,3,0,0,0,2.3-1.07L271,85.39a3,3,0,0,0-2.3-4.89h-8.38a5,5,0,0,0-5,5v4.29A3,3,0,0,0,258.32,92.73Z" transform="translate(0 0)"/><path class="cls-2" d="M264.8,125a18.78,18.78,0,0,0-5.29,0,1,1,0,0,1-1.15-.76l-.42-1.94a1,1,0,0,1,.79-1.19,22.39,22.39,0,0,1,6.74,0,1,1,0,0,1,.83,1.16l-.36,2A1,1,0,0,1,264.8,125Z" transform="translate(0 0)"/></g><g class="cls-13"><rect class="cls-3" x="47.5" y="145.5" width="308" height="18"/><rect class="cls-2" x="283.45" y="150.48" width="7.15" height="7.05"/><rect class="cls-2" x="241.72" y="150.48" width="7.15" height="7.05"/><path class="cls-2" d="M200,154h0a3.55,3.55,0,0,1,3.58-3.53h0a3.56,3.56,0,0,1,3.58,3.53h0a3.56,3.56,0,0,1-3.58,3.52h0A3.55,3.55,0,0,1,200,154Z" transform="translate(0 0)"/><rect class="cls-2" x="158.26" y="150.48" width="7.15" height="7.05"/><path class="cls-2" d="M116.53,154h0a3.56,3.56,0,0,1,3.58-3.53h0a3.55,3.55,0,0,1,3.58,3.53h0a3.55,3.55,0,0,1-3.58,3.52h0A3.56,3.56,0,0,1,116.53,154Z" transform="translate(0 0)"/></g></g></g></svg>