<svg xmlns="http://www.w3.org/2000/svg" xmlns:xlink="http://www.w3.org/1999/xlink" viewBox="0 0 363 241.1"><defs><style>.cls-1{fill:none;}.cls-2{fill:#3269ff;}.cls-3{clip-path:url(#clip-path);}.cls-4{fill:#f6f5f1;}.cls-5{fill:#1d2445;}.cls-6{clip-path:url(#clip-path-2);}.cls-7{clip-path:url(#clip-path-3);}.cls-8{clip-path:url(#clip-path-4);}.cls-9{clip-path:url(#clip-path-5);}</style><clipPath id="clip-path" transform="translate(0 -0.06)"><rect class="cls-1" x="59" y="1.15" width="22" height="83" transform="translate(-5.41 10.53) rotate(-8.28)"/></clipPath><clipPath id="clip-path-2" transform="translate(0 -0.06)"><rect class="cls-1" x="32" y="0.15" width="22" height="83"/></clipPath><clipPath id="clip-path-3" transform="translate(0 -0.06)"><rect class="cls-1" x="6" y="0.15" width="22" height="83"/></clipPath><clipPath id="clip-path-4" transform="translate(0 -0.06)"><rect class="cls-1" x="91" y="64.15" width="65" height="17"/></clipPath><clipPath id="clip-path-5" transform="translate(0 -0.06)"><rect class="cls-1" x="97" y="49.15" width="65" height="17"/></clipPath></defs><g id="Layer_2" data-name="Layer 2"><g id="Layer_1-2" data-name="Layer 1"><path class="cls-2" d="M229.37,60.43h6.39a4.7,4.7,0,0,1,1.41.13A5.3,5.3,0,0,1,240.24,63a5,5,0,0,1,.51,3.8L239,73.11a5.21,5.21,0,0,1-5,3.67h-6.13Zm2.3,2.41-1,11.41H234a2.46,2.46,0,0,0,2.43-1.9L238.19,66h0a2.53,2.53,0,0,0-1.79-3.17c-.12-.12-.38-.12-.64-.12C235.76,62.84,231.67,62.84,231.67,62.84Z" transform="translate(0 -0.06)"/><path class="cls-2" d="M234.36,56.51a1.2,1.2,0,0,0-1.28-1.27H215.19a1.2,1.2,0,0,0-1.28,1.27,138.21,138.21,0,0,0,2.56,24.07H231.8A139.56,139.56,0,0,0,234.36,56.51Z" transform="translate(0 -0.06)"/><g class="cls-3"><rect class="cls-4" x="59.42" y="1.57" width="21.17" height="82.16" transform="translate(-5.41 10.47) rotate(-8.28)"/><path class="cls-5" d="M65,84.89,53.2,3.59a.42.42,0,0,1,.35-.48l21-3A.42.42,0,0,1,75,.42L86.8,81.72a.4.4,0,0,1-.35.47l-21,3A.41.41,0,0,1,65,84.89ZM74.21,1,54.08,3.88,65.79,84.35l20.13-2.93Z" transform="translate(0 -0.06)"/><ellipse class="cls-4" cx="71.73" cy="54.52" rx="6.17" ry="6.27" transform="matrix(0.99, -0.14, 0.14, 0.99, -7.11, 10.84)"/><path class="cls-5" d="M65.21,55.47a6.59,6.59,0,1,1,7.48,5.67A6.64,6.64,0,0,1,65.21,55.47Zm.82-.12a5.76,5.76,0,1,0,4.86-6.61A5.81,5.81,0,0,0,66,55.35Z" transform="translate(0 -0.06)"/><path class="cls-5" d="M77.19,57.46a6.29,6.29,0,0,0,.65-3.82A6.17,6.17,0,1,0,65.74,56a6.11,6.11,0,0,1,4.56-3.27A6.21,6.21,0,0,1,77.19,57.46Z" transform="translate(0 -0.06)"/></g><g class="cls-6"><rect class="cls-4" x="32.42" y="0.52" width="21.17" height="82.16"/><path class="cls-5" d="M32,82.73V.57a.42.42,0,0,1,.42-.42H53.59A.41.41,0,0,1,54,.57V82.73a.42.42,0,0,1-.41.42H32.42A.42.42,0,0,1,32,82.73ZM53.17,1H32.83V82.31H53.17Z" transform="translate(0 -0.06)"/><ellipse class="cls-4" cx="43" cy="53.59" rx="6.17" ry="6.27"/><path class="cls-5" d="M36.41,53.65A6.59,6.59,0,1,1,43,60.34,6.65,6.65,0,0,1,36.41,53.65Zm.83,0A5.76,5.76,0,1,0,43,47.81,5.81,5.81,0,0,0,37.24,53.65Z" transform="translate(0 -0.06)"/><path class="cls-5" d="M48,57.34a6.28,6.28,0,0,0,1.19-3.69,6.17,6.17,0,1,0-12.34,0q0,.32,0,.63a6.1,6.1,0,0,1,5-2.58A6.21,6.21,0,0,1,48,57.34Z" transform="translate(0 -0.06)"/></g><g class="cls-7"><rect class="cls-4" x="6.42" y="0.52" width="21.17" height="82.16"/><path class="cls-5" d="M6,82.73V.57A.42.42,0,0,1,6.42.15H27.59A.41.41,0,0,1,28,.57V82.73a.42.42,0,0,1-.41.42H6.42A.42.42,0,0,1,6,82.73ZM27.17,1H6.83V82.31H27.17Z" transform="translate(0 -0.06)"/><ellipse class="cls-4" cx="17" cy="53.59" rx="6.17" ry="6.27"/><path class="cls-5" d="M10.41,53.65A6.59,6.59,0,1,1,17,60.34,6.65,6.65,0,0,1,10.41,53.65Zm.83,0A5.76,5.76,0,1,0,17,47.81,5.81,5.81,0,0,0,11.24,53.65Z" transform="translate(0 -0.06)"/><path class="cls-5" d="M22,57.34a6.28,6.28,0,0,0,1.19-3.69,6.17,6.17,0,1,0-12.34,0q0,.32,0,.63a6.1,6.1,0,0,1,5-2.58A6.21,6.21,0,0,1,22,57.34Z" transform="translate(0 -0.06)"/></g><path class="cls-4" d="M252.56,38a1,1,0,0,1,.93-1.32h48.26a1,1,0,0,1,.93.64l14.5,38.79H266.81Z" transform="translate(0 -0.06)"/><path class="cls-5" d="M266.35,76.24,252.1,38.14a1.46,1.46,0,0,1,.17-1.36,1.5,1.5,0,0,1,1.22-.63h48.26a1.49,1.49,0,0,1,1.39,1L317.65,75.9a.51.51,0,0,1-.06.45.47.47,0,0,1-.41.21H266.81A.47.47,0,0,1,266.35,76.24Zm35.86-38.79a.5.5,0,0,0-.46-.32H253.49a.51.51,0,0,0-.41.21.52.52,0,0,0-.06.45l14.13,37.79h49.32Z" transform="translate(0 -0.06)"/><polygon class="cls-4" points="256.26 39.13 300.14 39.13 312.98 73.47 269.11 73.47 256.26 39.13"/><path class="cls-5" d="M268.64,73.7,255.8,39.36a.48.48,0,0,1,.06-.45.47.47,0,0,1,.41-.21h43.87a.47.47,0,0,1,.46.32l12.85,34.34a.51.51,0,0,1-.06.45A.51.51,0,0,1,313,74H269.11A.51.51,0,0,1,268.64,73.7Zm31.15-34H257L269.45,73h42.82Z" transform="translate(0 -0.06)"/><path class="cls-4" d="M305.54,75.43h-39V78.7a2,2,0,0,0,2,2h37Z" transform="translate(0 -0.06)"/><path class="cls-5" d="M266,78.7V75.43a.5.5,0,0,1,.5-.49h39a.49.49,0,0,1,.49.49v5.23a.49.49,0,0,1-.49.49h-37A2.47,2.47,0,0,1,266,78.7Zm39-2.78H267V78.7a1.48,1.48,0,0,0,1.49,1.47H305Z" transform="translate(0 -0.06)"/><path class="cls-4" d="M355.51,78.7V75.43H304.73v5.23h48.79A2,2,0,0,0,355.51,78.7Z" transform="translate(0 -0.06)"/><path class="cls-5" d="M304.23,80.66V75.43a.49.49,0,0,1,.5-.49h50.78a.49.49,0,0,1,.49.49V78.7a2.47,2.47,0,0,1-2.48,2.45H304.73A.49.49,0,0,1,304.23,80.66Zm1-4.74v4.25h48.3A1.48,1.48,0,0,0,355,78.7V75.92Z" transform="translate(0 -0.06)"/><g class="cls-8"><path class="cls-4" d="M92.82,72.65h0A7,7,0,0,1,100,65.88H155.5c-5.15,0-5.15,13.54,0,13.54H100A7,7,0,0,1,92.82,72.65Z" transform="translate(0 -0.06)"/><path class="cls-5" d="M92.32,72.65A7.46,7.46,0,0,1,100,65.41H155.5a.47.47,0,1,1,0,.94c-2.21,0-3.36,3.17-3.36,6.3s1.15,6.3,3.36,6.3a.48.48,0,0,1,.5.47.49.49,0,0,1-.5.48H100A7.46,7.46,0,0,1,92.32,72.65Zm58.82,0c0-2.42.66-5,2.06-6.3H100A6.31,6.31,0,1,0,100,79H153.2C151.8,77.62,151.14,75.07,151.14,72.65Z" transform="translate(0 -0.06)"/><path class="cls-5" d="M91.5,72.65a8.26,8.26,0,0,1,8.46-8H155.5v2.51H100a5.53,5.53,0,1,0,0,11H155.5v2.51H100A8.26,8.26,0,0,1,91.5,72.65Z" transform="translate(0 -0.06)"/><path class="cls-5" d="M91,72.65a8.75,8.75,0,0,1,9-8.5H155.5a.48.48,0,0,1,.5.47v2.51a.49.49,0,0,1-.5.48H100a5.05,5.05,0,1,0,0,10.09H155.5a.48.48,0,0,1,.5.47v2.51a.48.48,0,0,1-.5.47H100A8.75,8.75,0,0,1,91,72.65Zm64,6H100a6,6,0,1,1,0-12h55V65.1H100a7.57,7.57,0,1,0,0,15.11h55Z" transform="translate(0 -0.06)"/></g><g class="cls-9"><path class="cls-4" d="M98.82,57.65h0A7,7,0,0,1,106,50.88H161.5c-5.15,0-5.15,13.54,0,13.54H106A7,7,0,0,1,98.82,57.65Z" transform="translate(0 -0.06)"/><path class="cls-5" d="M98.32,57.65A7.46,7.46,0,0,1,106,50.41H161.5a.47.47,0,1,1,0,.94c-2.21,0-3.36,3.17-3.36,6.3s1.15,6.3,3.36,6.3a.48.48,0,0,1,.5.47.49.49,0,0,1-.5.48H106A7.46,7.46,0,0,1,98.32,57.65Zm58.82,0c0-2.42.66-5,2.06-6.3H106A6.31,6.31,0,1,0,106,64H159.2C157.8,62.62,157.14,60.07,157.14,57.65Z" transform="translate(0 -0.06)"/><path class="cls-5" d="M97.5,57.65a8.26,8.26,0,0,1,8.46-8H161.5v2.51H106a5.53,5.53,0,1,0,0,11H161.5v2.51H106A8.26,8.26,0,0,1,97.5,57.65Z" transform="translate(0 -0.06)"/><path class="cls-5" d="M97,57.65a8.75,8.75,0,0,1,9-8.5H161.5a.48.48,0,0,1,.5.47v2.51a.49.49,0,0,1-.5.48H106a5.05,5.05,0,1,0,0,10.09H161.5a.48.48,0,0,1,.5.47v2.51a.48.48,0,0,1-.5.47H106A8.75,8.75,0,0,1,97,57.65Zm64,6H106a6,6,0,1,1,0-12h55V50.1H106a7.57,7.57,0,1,0,0,15.11h55Z" transform="translate(0 -0.06)"/></g><polygon class="cls-4" points="1.43 236.87 42.72 83.66 84.02 236.87 77.31 238.66 42.72 110.35 8.13 238.66 1.43 236.87"/><path class="cls-5" d="M8,239.14l-6.71-1.79a.43.43,0,0,1-.3-.53L42.3,83.61a.45.45,0,0,1,.84,0l41.3,153.21a.43.43,0,0,1-.31.53l-6.71,1.79a.4.4,0,0,1-.32,0,.42.42,0,0,1-.21-.26L42.72,112.07,8.55,238.83a.41.41,0,0,1-.2.26.43.43,0,0,1-.22.06ZM42.72,85.39,2,236.62l5.87,1.57L42.3,110.29a.45.45,0,0,1,.84,0l34.48,127.9,5.87-1.57Z" transform="translate(0 -0.06)"/><polygon class="cls-4" points="279.97 236.87 321.27 83.66 362.57 236.87 355.86 238.66 321.27 110.35 286.68 238.66 279.97 236.87"/><path class="cls-5" d="M286.57,239.14l-6.71-1.79a.43.43,0,0,1-.31-.53l41.3-153.21a.45.45,0,0,1,.84,0L363,236.82a.44.44,0,0,1-.31.53L356,239.14a.43.43,0,0,1-.33,0,.41.41,0,0,1-.2-.26L321.27,112.07,287.1,238.83a.41.41,0,0,1-.2.26.43.43,0,0,1-.22.06Zm34.7-153.75L280.5,236.62l5.87,1.57,34.48-127.9a.45.45,0,0,1,.84,0l34.47,127.9,5.88-1.57Z" transform="translate(0 -0.06)"/><rect class="cls-4" x="33.03" y="91.25" width="19.39" height="17.16"/><path class="cls-5" d="M32.59,108.46V91.31a.44.44,0,0,1,.44-.44H52.42a.44.44,0,0,1,.43.44v17.15a.44.44,0,0,1-.43.44H33A.44.44,0,0,1,32.59,108.46ZM52,91.74H33.46V108H52Z" transform="translate(0 -0.06)"/><rect class="cls-4" x="311.57" y="91.25" width="19.39" height="17.16"/><path class="cls-5" d="M311.14,108.46V91.31a.44.44,0,0,1,.43-.44H331a.44.44,0,0,1,.44.44v17.15a.44.44,0,0,1-.44.44H311.57A.44.44,0,0,1,311.14,108.46Zm19.39-16.72H312V108h18.52Z" transform="translate(0 -0.06)"/><rect class="cls-5" x="33.03" y="90.39" width="19.39" height="8.51"/><path class="cls-5" d="M32.59,99V90.44A.44.44,0,0,1,33,90H52.42a.43.43,0,0,1,.43.43V99a.43.43,0,0,1-.43.43H33A.44.44,0,0,1,32.59,99ZM52,90.87H33.46v7.65H52Z" transform="translate(0 -0.06)"/><rect class="cls-5" x="311.57" y="90.39" width="19.39" height="8.51"/><path class="cls-5" d="M311.14,99V90.44a.43.43,0,0,1,.43-.43H331a.44.44,0,0,1,.44.43V99a.44.44,0,0,1-.44.43H311.57A.43.43,0,0,1,311.14,99Zm19.39-8.09H312v7.65h18.52Z" transform="translate(0 -0.06)"/><rect class="cls-4" x="0.43" y="80.53" width="362" height="15.01"/><path class="cls-5" d="M0,95.6v-15a.43.43,0,0,1,.43-.43h362a.43.43,0,0,1,.43.43v15a.43.43,0,0,1-.43.43H.43A.43.43,0,0,1,0,95.6ZM362,81H.87V95.16H362Z" transform="translate(0 -0.06)"/><path class="cls-4" d="M73.28,161.29v-3.87H83.9a.92.92,0,0,0,.92-.92v-3.66a15.19,15.19,0,1,1,30.38,0V156a.92.92,0,0,0,.92.92h11.6v3.87h-11.6a4.8,4.8,0,0,1-4.79-4.79v-3.17a11.32,11.32,0,1,0-22.64,0v3.66a4.8,4.8,0,0,1-4.79,4.79Z" transform="translate(0 -0.06)"/><path class="cls-5" d="M72.8,161.29v-3.87a.48.48,0,0,1,.48-.49H83.9a.44.44,0,0,0,.44-.43v-3.66a15.67,15.67,0,1,1,31.34,0V156a.44.44,0,0,0,.44.43h11.6a.49.49,0,0,1,.49.49v3.87a.49.49,0,0,1-.49.49h-11.6a5.29,5.29,0,0,1-5.28-5.28v-3.17a10.83,10.83,0,1,0-21.66,0v3.66a5.29,5.29,0,0,1-5.28,5.28H73.28A.48.48,0,0,1,72.8,161.29Zm39-8.45V156a4.32,4.32,0,0,0,4.31,4.31h11.12v-2.91H116.12a1.41,1.41,0,0,1-1.41-1.4v-3.17a14.71,14.71,0,1,0-29.41,0v3.66a1.4,1.4,0,0,1-1.4,1.4H73.76v2.91H83.9a4.31,4.31,0,0,0,4.31-4.31v-3.66a11.8,11.8,0,1,1,23.6,0Z" transform="translate(0 -0.06)"/><rect class="cls-4" x="47.48" y="161.03" width="106.03" height="79.58"/><path class="cls-5" d="M47,240.67V161.09a.49.49,0,0,1,.48-.49h106a.49.49,0,0,1,.48.49v79.58a.49.49,0,0,1-.48.48h-106A.49.49,0,0,1,47,240.67Zm106-79.1H48v78.61H153Z" transform="translate(0 -0.06)"/><path class="cls-5" d="M93.28,218.72v3.89h14.45v-3.89a51.81,51.81,0,0,1-7.23.51A50.09,50.09,0,0,1,93.28,218.72Z" transform="translate(0 -0.06)"/><path class="cls-5" d="M100.5,216.33a48.7,48.7,0,0,0,7.23-.54v-8.55H93.28v8.55A48.47,48.47,0,0,0,100.5,216.33Z" transform="translate(0 -0.06)"/></g></g></svg>