<svg xmlns="http://www.w3.org/2000/svg" viewBox="0 0 304 271"><defs><style>.cls-1{fill:#f6f5f1;}.cls-2{fill:#1d2445;}.cls-3{fill:#c78982;}</style></defs><g id="Layer_2" data-name="Layer 2"><g id="Layer_1-2" data-name="Layer 1"><rect class="cls-1" x="175.31" y="172.96" width="8.45" height="59.5"/><path class="cls-2" d="M174.81,232.46V173a.5.5,0,0,1,.5-.5h8.46a.5.5,0,0,1,.5.5v59.5a.51.51,0,0,1-.5.5h-8.46A.51.51,0,0,1,174.81,232.46Zm8.46-59h-7.46V232h7.46Z"/><path class="cls-1" d="M113.88,247.37v-9.18l1.44-.41A233.67,233.67,0,0,1,179,229l0,4a230.92,230.92,0,0,0-61.14,8.26v6.17Z"/><path class="cls-2" d="M113.38,247.37v-9.18a.51.51,0,0,1,.36-.48l1.44-.41a234.29,234.29,0,0,1,63.8-8.85h0a.51.51,0,0,1,.5.49l0,4a.47.47,0,0,1-.15.35.51.51,0,0,1-.35.15,230.28,230.28,0,0,0-60.64,8.14v5.79a.5.5,0,0,1-.5.5h-4A.5.5,0,0,1,113.38,247.37Zm4-.5V241.2a.5.5,0,0,1,.37-.48,231.17,231.17,0,0,1,60.76-8.28v-3a233.09,233.09,0,0,0-63,8.81l-1.08.31v8.3Z"/><path class="cls-1" d="M140.48,238.46v8.91h4v-6.43a80.71,80.71,0,0,1,34.5-8h0a230.92,230.92,0,0,1,61.14,8.26v6.17h4v-9.18l-1.44-.41A233.65,233.65,0,0,0,179,229v0l-.07,0a84.49,84.49,0,0,0-37.35,9Z"/><path class="cls-2" d="M140,247.37v-8.91a.48.48,0,0,1,.27-.44l1.1-.56a85.24,85.24,0,0,1,37.57-9s0,0,0,0h0a234.23,234.23,0,0,1,63.8,8.85l1.44.41a.5.5,0,0,1,.36.48v9.18a.5.5,0,0,1-.5.5h-4a.5.5,0,0,1-.5-.5v-5.79a230.39,230.39,0,0,0-60.6-8.14h0a80.11,80.11,0,0,0-34,7.81v6.12a.5.5,0,0,1-.5.5h-4A.49.49,0,0,1,140,247.37Zm4-6.43a.5.5,0,0,1,.28-.45A81.12,81.12,0,0,1,179,232.44a231.41,231.41,0,0,1,61.26,8.28.5.5,0,0,1,.37.48v5.67h3v-8.3l-1.08-.31A233.27,233.27,0,0,0,179,229.45h-.11a84,84,0,0,0-37.1,8.91l-.83.41v8.1h3Z"/><path class="cls-2" d="M152.09,253.4v1H139.82v-5.59a2.13,2.13,0,0,1,2.12-2.13h3.51A6.64,6.64,0,0,1,152.09,253.4Z"/><path class="cls-2" d="M139.32,248.83a2.63,2.63,0,0,1,2.62-2.63h3.51a7.15,7.15,0,0,1,7.14,7.2v1.52H139.32Zm12.27,4.56a6.15,6.15,0,0,0-6.14-6.19h-3.51a1.63,1.63,0,0,0-1.62,1.63v5.09h11.26Z"/><path class="cls-2" d="M233.53,253.4v1H245.8v-5.59a2.13,2.13,0,0,0-2.13-2.13h-3.5A6.64,6.64,0,0,0,233.53,253.4Z"/><path class="cls-2" d="M233,253.4a7.15,7.15,0,0,1,7.14-7.2h3.5a2.63,2.63,0,0,1,2.63,2.63v6.09H233Zm12.27-4.57a1.63,1.63,0,0,0-1.63-1.63h-3.5a6.15,6.15,0,0,0-6.14,6.19v.53H245.3Z"/><path class="cls-2" d="M124.77,253.4v1H112.5v-5.59a2.13,2.13,0,0,1,2.12-2.13h3.51A6.66,6.66,0,0,1,124.77,253.4Z"/><path class="cls-2" d="M112,254.92v-6.09a2.62,2.62,0,0,1,2.62-2.63h3.51a7.14,7.14,0,0,1,7.13,7.2v1.52Zm12.27-1.53a6.16,6.16,0,0,0-6.14-6.19h-3.51a1.62,1.62,0,0,0-1.62,1.63v5.09h11.26Z"/><circle class="cls-1" cx="145.24" cy="254.08" r="5.42"/><path class="cls-2" d="M139.32,254.08a5.92,5.92,0,1,1,5.92,5.92A5.92,5.92,0,0,1,139.32,254.08Zm1,0a4.92,4.92,0,1,0,4.92-4.92A4.92,4.92,0,0,0,140.32,254.08Z"/><circle class="cls-1" cx="117.92" cy="254.08" r="5.42"/><path class="cls-2" d="M112,254.08a5.92,5.92,0,1,1,5.92,5.92A5.92,5.92,0,0,1,112,254.08Zm1,0a4.92,4.92,0,1,0,4.92-4.92A4.92,4.92,0,0,0,113,254.08Z"/><circle class="cls-1" cx="240.38" cy="254.08" r="5.42"/><path class="cls-2" d="M234.46,254.08a5.92,5.92,0,1,1,5.92,5.92A5.92,5.92,0,0,1,234.46,254.08Zm1,0a4.92,4.92,0,1,0,4.92-4.92A4.92,4.92,0,0,0,235.46,254.08Z"/><rect class="cls-2" x="175.11" y="171.74" width="8.45" height="5.93"/><path class="cls-2" d="M174.61,177.67v-5.93a.5.5,0,0,1,.5-.5h8.45a.5.5,0,0,1,.5.5v5.93a.5.5,0,0,1-.5.5h-8.45A.5.5,0,0,1,174.61,177.67Zm8.45-5.43h-7.45v4.93h7.45Z"/><path class="cls-1" d="M128.29,169.26a5,5,0,0,1,5-5h75a8.57,8.57,0,0,0,8.55-8.55V137.64a19.22,19.22,0,0,1,1.31-7l29.74-77a5,5,0,1,1,9.31,3.6l-29.74,77a9.4,9.4,0,0,0-.63,3.4v18.08a18.56,18.56,0,0,1-18.54,18.53h-75A5,5,0,0,1,128.29,169.26Z"/><path class="cls-2" d="M127.79,169.26a5.5,5.5,0,0,1,5.49-5.49h75a8.06,8.06,0,0,0,8.05-8.05V137.64a19.74,19.74,0,0,1,1.34-7.17l29.74-77A5.47,5.47,0,0,1,252.51,50a5.34,5.34,0,0,1,2,.37,5.48,5.48,0,0,1,3.15,7.1l-29.74,76.95a8.88,8.88,0,0,0-.6,3.22v18.08a19.06,19.06,0,0,1-19,19h-75A5.49,5.49,0,0,1,127.79,169.26ZM248.31,53.87l-29.74,77a18.87,18.87,0,0,0-1.27,6.81v18.08a9.06,9.06,0,0,1-9.05,9.05h-75a4.49,4.49,0,1,0,0,9h75a18.06,18.06,0,0,0,18-18V137.64a10,10,0,0,1,.66-3.58L256.7,57.11a4.5,4.5,0,0,0-8.39-3.24Z"/><path class="cls-1" d="M161.05,174.61v-2.22l-7.54-26.17a6.27,6.27,0,0,1,1.09-5.61A9.24,9.24,0,0,1,162,137.2h36.8a9.14,9.14,0,0,1,7.58,3.6,6.28,6.28,0,0,1,.83,5.81l-9.42,26.23v1.6a2,2,0,0,1-4,0v-2.3l9.66-26.88a2.29,2.29,0,0,0-.34-2.17,5.27,5.27,0,0,0-4.31-1.9H162a5.36,5.36,0,0,0-4.25,1.82,2.32,2.32,0,0,0-.44,2.11l7.7,26.7v2.78a2,2,0,0,1-4,0Z"/><path class="cls-2" d="M160.56,174.6v-2.14L153,146.36a6.77,6.77,0,0,1,1.17-6.05A9.77,9.77,0,0,1,162,136.7h36.8a9.65,9.65,0,0,1,8,3.81,6.81,6.81,0,0,1,.89,6.27l-9.39,26.14v1.52a2.5,2.5,0,0,1-5,0v-2.3a.52.52,0,0,1,0-.17L203,145.09a1.76,1.76,0,0,0-.28-1.71,4.76,4.76,0,0,0-3.9-1.69H162a4.83,4.83,0,0,0-3.85,1.62,1.8,1.8,0,0,0-.36,1.67l7.7,26.7a.78.78,0,0,1,0,.14v2.78a2.5,2.5,0,1,1-5,0Zm-3.69-29.35a2.83,2.83,0,0,1,.52-2.54,5.83,5.83,0,0,1,4.65-2h36.8a5.75,5.75,0,0,1,4.72,2.12,2.77,2.77,0,0,1,.4,2.62l-9.63,26.8v2.21a1.5,1.5,0,0,0,3,0v-1.6a.47.47,0,0,1,0-.17l9.42-26.23a5.83,5.83,0,0,0-.77-5.36,8.65,8.65,0,0,0-7.17-3.39H162a8.74,8.74,0,0,0-7,3.22,5.75,5.75,0,0,0-1,5.17l7.54,26.17a.32.32,0,0,1,0,.14v2.21a1.5,1.5,0,0,0,3,0v-2.71Z"/><path class="cls-3" d="M263.75,21l30.85,3.57a6,6,0,0,1,2.62.94L298,26a10,10,0,0,1,2.21,14.71l-3,3.66a4.94,4.94,0,0,1-5.27.86L255.49,29.4Z"/><path class="cls-1" d="M226.13,15.62a1.93,1.93,0,0,0,1.74,1.69L236,18l8.37,4.6,1.33,1.28a.54.54,0,0,1,.11.63.57.57,0,0,1-.57.31h0c-1.46-.21-6.13-.95-6.91-1.09a1.43,1.43,0,0,0-1.65,1.15l0,.14a1.46,1.46,0,0,0,.86,1.49s3.61,1.26,5.92,2a8.55,8.55,0,0,1,2.3,1.1,7.86,7.86,0,0,0,3.91,1.25l3.85.07c2.19,0,3.82.07,6.07-2L271.4,23l-15.88-4.26h0a7.15,7.15,0,0,1-.79-.23l-.06,0-7.36-2.8a3.67,3.67,0,0,0-2.65,0l-2.45.94-3.91-1.56a6.59,6.59,0,0,0-2.81-.48l-8.91.47a.5.5,0,0,0-.46.51v0Z"/><path class="cls-2" d="M253.49,31.48l-3.87-.07a8.3,8.3,0,0,1-4.16-1.34,8.76,8.76,0,0,0-2.18-1c-2.31-.75-5.92-2-6-2a2,2,0,0,1-1.16-2l0-.18a1.94,1.94,0,0,1,2.23-1.54c.75.12,5.42.87,6.9,1.08l.06-.09-1.29-1.23-8.22-4.52-8-.72a2.46,2.46,0,0,1-2.19-2.2,1,1,0,0,1,.93-1l8.92-.47a6.81,6.81,0,0,1,3,.51l3.73,1.49,2.26-.87a4.22,4.22,0,0,1,3,0l7.4,2.81a6.91,6.91,0,0,0,.74.22l.11,0,15.78,4.23a.5.5,0,0,1,.37.43.51.51,0,0,1-.27.5l-11.77,5.9a7.12,7.12,0,0,1-5.56,2.12Zm1.9-12.23-.09,0a7.45,7.45,0,0,1-.79-.24l-7.37-2.8a3.23,3.23,0,0,0-2.29,0l-2.45.94a.5.5,0,0,1-.36,0l-3.92-1.57a6.05,6.05,0,0,0-2.59-.44l-8.9.46v0a1.43,1.43,0,0,0,1.28,1.23l8.15.73a.6.6,0,0,1,.19.06l8.37,4.59.11.08,1.33,1.29a1,1,0,0,1,.21,1.2,1.05,1.05,0,0,1-1,.59h-.14c-1.48-.2-6.17-1-6.93-1.08a.93.93,0,0,0-1.07.7v.14a.94.94,0,0,0,.53,1s3.6,1.26,5.9,2A9.31,9.31,0,0,1,246,29.24a7.37,7.37,0,0,0,3.64,1.18l3.89.06c2,0,3.52.14,5.69-1.89a.36.36,0,0,1,.12-.08L270,23.16Z"/><path class="cls-2" d="M88.39,148.68v3.75a12.2,12.2,0,0,0,12.2,12.19H174.4a6,6,0,0,0,6-6V125.7L98.34,137.17A11.64,11.64,0,0,0,88.39,148.68Z"/><path class="cls-2" d="M88.93,151c-1.11-.47.47,26.81.7,28l9.06,73.44,18.41,2,1.55-18.57,3.57-45.58a14.59,14.59,0,0,0,0-1.87l-1.08-23.76Z"/><path class="cls-2" d="M95.93,151.23l16.81-32.63L94.55,108a4,4,0,0,0-5.51.8L69.78,131.53l-41.36,59.9-2.23,2.68c.16.09,10.77,5.53,12.1,6.31,3,1.78,6.64,4.32,6.64,4.32l1.18-1.18,21.86-24,24.32-23.44A18.83,18.83,0,0,0,95.93,151.23Z"/><path class="cls-2" d="M202.6,125.38l.27,23.65a15,15,0,0,1-14.61,15.19l-9.43.27c-12,.51-20.56-.48-28.57-3.39L83.25,129,87,113.38a13.16,13.16,0,0,1,15.61-9.8L189,122.5Z"/><path class="cls-1" d="M151.4,114.29l30.85,13.87a29.93,29.93,0,0,1,16,13.36l4.59,9.42.52-.46,34.8-32.9a56.1,56.1,0,0,0,12.66-17.83l4.89-10.91,7.07-7.1,37.67-38.35a10.76,10.76,0,0,0,.18-14.88A9.77,9.77,0,0,0,298,26l-1.12-.73a4.5,4.5,0,0,0-1.94-.7L263.75,21l-8.26,8.4,18,7.84L252.05,54.06a15,15,0,0,0-4.68-.42l-26.27,3.9,2.19-45.76-9.82,0a13,13,0,0,0-13,11.88l-3.23,38.29a14.75,14.75,0,0,0-4.58,3.79l-41.19,48.42Z"/><path class="cls-2" d="M202.71,151.43a.5.5,0,0,1-.35-.27l-4.57-9.39A29.38,29.38,0,0,0,182,128.62L151.2,114.74a.5.5,0,0,1-.2-.75L192.31,65.4a15.29,15.29,0,0,1,4.49-3.78l3.22-38a13.56,13.56,0,0,1,13.46-12.34l9.81,0a.51.51,0,0,1,.36.15.57.57,0,0,1,.14.37L221.63,57l25.7-3.81a15.38,15.38,0,0,1,4.6.38l20.63-16.16-17.27-7.5a.5.5,0,0,1-.29-.37.51.51,0,0,1,.13-.44l8.26-8.4a.53.53,0,0,1,.42-.15L295,24.11a5.12,5.12,0,0,1,2.16.78l1.11.74A10,10,0,0,1,301,28.17a11.25,11.25,0,0,1-.2,15.57L263.11,82.09l-7,7L251.25,100a56.53,56.53,0,0,1-12.78,18l-34.81,32.91-.52.46a.5.5,0,0,1-.33.12Zm53.64-122.2,17.37,7.55a.5.5,0,0,1,.3.4.52.52,0,0,1-.19.46L252.36,54.45a.48.48,0,0,1-.43.09,14.68,14.68,0,0,0-3.55-.43l-.94,0L221.17,58a.47.47,0,0,1-.41-.12.5.5,0,0,1-.16-.4l2.16-45.23-9.31,0A12.55,12.55,0,0,0,201,23.68L197.77,62a.47.47,0,0,1-.26.39A14.44,14.44,0,0,0,193.08,66L152.2,114.1l30.21,13.59a30.39,30.39,0,0,1,16.26,13.61l4.3,8.84,34.82-32.92a55.35,55.35,0,0,0,12.54-17.67l4.89-10.91a.42.42,0,0,1,.11-.15l7.07-7.1L300.06,43a10.29,10.29,0,0,0,.14-14.24,9.51,9.51,0,0,0-2.44-2.34l-1.12-.73a4,4,0,0,0-1.73-.63l-31-3.58Z"/><path class="cls-3" d="M240.17,45l-24.23-.42a3.86,3.86,0,0,1-3.58-5.1l7.79-20.66Z"/><rect class="cls-3" x="215.41" y="22.86" width="14.21" height="11.18" transform="translate(123.69 229.83) rotate(-71.15)"/><path class="cls-1" d="M213,37.6,225,42.06l-8.65,23.38a1.12,1.12,0,0,0,1.52,1.4l24.33-11.23,8-21.59h0l3.43-9.27a10.46,10.46,0,0,0-6.19-13.45l-5-1.83a17.9,17.9,0,0,0-23,10.56l-1.91,5.16-4.15,2a1.87,1.87,0,0,0,.12,3.42l1.77.71Z"/><path class="cls-2" d="M216.09,66.75a1.64,1.64,0,0,1-.19-1.49l8.49-22.91L212.8,38.07a.5.5,0,0,1-.3-.64l2.17-5.86-1.31-.52a2.37,2.37,0,0,1-.15-4.34l4-1.9,1.84-5A18.38,18.38,0,0,1,242.65,9l5,1.84a11,11,0,0,1,6.48,14.08L250.73,34a.47.47,0,0,1,0,.17l-8,21.59a.48.48,0,0,1-.26.28L218.11,67.3a1.63,1.63,0,0,1-2-.55ZM249.7,34a.51.51,0,0,1,0-.17l3.43-9.26a10,10,0,0,0-5.89-12.81l-5-1.84A17.41,17.41,0,0,0,220,20.2L218,25.35a.49.49,0,0,1-.25.28l-4.15,2a1.37,1.37,0,0,0-.78,1.28,1.35,1.35,0,0,0,.87,1.23l1.77.7a.5.5,0,0,1,.28.64l-2.17,5.85,11.6,4.28a.5.5,0,0,1,.29.64l-8.66,23.38a.6.6,0,0,0,.07.57.64.64,0,0,0,.78.21l24.14-11.15Z"/><path class="cls-1" d="M222.27,25.43l-.63-1.37a1.12,1.12,0,0,0-.63-.58l-2.41-.89"/><path class="cls-2" d="M221.81,25.64l-.63-1.37a.61.61,0,0,0-.35-.32l-2.4-.89a.49.49,0,0,1-.29-.64.5.5,0,0,1,.64-.3l2.4.89a1.6,1.6,0,0,1,.91.84l.63,1.37a.5.5,0,0,1-.24.67.52.52,0,0,1-.67-.25Z"/><path class="cls-1" d="M234.38,29.32h0l-5,13.63A3.63,3.63,0,0,1,226,45.33l-10.48.21a3.78,3.78,0,0,1-3.62-5.08l2.75-7.5,3.2,1.18A5.2,5.2,0,0,1,221,40.81h0a9.15,9.15,0,0,0,8.11-6l1.37-3.72A3.07,3.07,0,0,1,234.38,29.32Z"/><path class="cls-2" d="M212,44.21a4.25,4.25,0,0,1-.51-3.92l2.75-7.5a.48.48,0,0,1,.26-.28.5.5,0,0,1,.38,0l3.2,1.18a5.7,5.7,0,0,1,3.58,6.58,8.67,8.67,0,0,0,7-5.57L230,31a3.59,3.59,0,0,1,3.35-2.33,3.77,3.77,0,0,1,1.24.22.5.5,0,0,1,.29.64l-5,13.63a4.11,4.11,0,0,1-3.8,2.71L215.57,46h-.08A4.3,4.3,0,0,1,212,44.21Zm18.93-12.9L229.53,35A9.64,9.64,0,0,1,221,41.31a.48.48,0,0,1-.43-.2.49.49,0,0,1-.06-.47,4.7,4.7,0,0,0-2.78-6l-2.72-1-2.58,7a3.27,3.27,0,0,0,3.08,4.4v.5l.06-.5L226,44.83a3.11,3.11,0,0,0,2.88-2l4.82-13.12A2.63,2.63,0,0,0,230.91,31.31Z"/><path class="cls-1" d="M217.61,39.08h0A2.4,2.4,0,0,0,216.2,36l-2.32-.85-1.08,2.92a1.1,1.1,0,0,0,.89,1.46l2.62.33A1.21,1.21,0,0,0,217.61,39.08Z"/><path class="cls-2" d="M216.24,40.36,213.62,40a1.57,1.57,0,0,1-1.16-.75,1.6,1.6,0,0,1-.13-1.38L213.41,35a.5.5,0,0,1,.64-.29l2.32.85a2.9,2.9,0,0,1,1.71,3.72,1.73,1.73,0,0,1-1.62,1.12Zm-3-2.12a.57.57,0,0,0,0,.51.56.56,0,0,0,.43.28l2.62.34a.71.71,0,0,0,.77-.47A1.89,1.89,0,0,0,216,36.47l-1.84-.68Z"/><path class="cls-1" d="M224.91,16l.5.19a8.2,8.2,0,0,0,5.61,0l1.59-.57a3,3,0,0,1,3.95,3.56L235,25.42l-.22.59a11.94,11.94,0,0,0-.72,4.13l.55-1.43a4.22,4.22,0,0,1,5.26-2.5l.23.08a3.37,3.37,0,0,1,1.63,5.24l-2.7,3.56A3.37,3.37,0,0,1,236,36.4,11.62,11.62,0,0,0,241.7,41l5.18,1.92-2.17,7.36a6,6,0,0,0,7.7-3.54l.58-1.56h0l6.58-17.79a14.69,14.69,0,0,0-8.69-18.88l-6.57-2.43a2,2,0,0,0-2,.41L231.59,2.55l-5-1.83a3.48,3.48,0,0,0-4.47,2.05l-1.49,4A7.17,7.17,0,0,0,224.91,16Z"/><path class="cls-2" d="M244.53,50.76a.5.5,0,0,1-.3-.61l2-6.92-4.74-1.75a12.14,12.14,0,0,1-6-4.81.52.52,0,0,1,0-.54.49.49,0,0,1,.48-.23,2.89,2.89,0,0,0,2.64-1.11l2.7-3.56A2.87,2.87,0,0,0,240,26.76l-.23-.07a3.53,3.53,0,0,0-1.16-.19,3.73,3.73,0,0,0-3.47,2.39l-.55,1.43a.52.52,0,0,1-.56.31.5.5,0,0,1-.41-.49,12.2,12.2,0,0,1,.75-4.3l.2-.54,1.55-6.21a2.52,2.52,0,0,0-3.3-3l-1.59.57a8.87,8.87,0,0,1-2.94.51h0a8.85,8.85,0,0,1-3-.54l-.5-.19a7.67,7.67,0,0,1-4.54-9.85l1.5-4A4,4,0,0,1,225.42,0a3.83,3.83,0,0,1,1.38.25l15.37,5.68a2.51,2.51,0,0,1,2.31-.31l6.57,2.43a15.2,15.2,0,0,1,9,19.53l-7.16,19.35a6.52,6.52,0,0,1-8.35,3.83Zm-1.92-43.9a.52.52,0,0,1-.52.11L226.45,1.18a3,3,0,0,0-3.82,1.76l-1.49,4a6.68,6.68,0,0,0,4,8.57l.49.18a7.64,7.64,0,0,0,2.67.48h0a7.65,7.65,0,0,0,2.6-.45l1.6-.57a3.51,3.51,0,0,1,4.6,4.16l-1.56,6.26-.22.59c-.12.33-.23.67-.32,1a4.83,4.83,0,0,1,5.1-1.46l.23.08a3.88,3.88,0,0,1,1.87,6l-2.7,3.55a3.86,3.86,0,0,1-2.54,1.49,11,11,0,0,0,5,3.67l5.18,1.91a.5.5,0,0,1,.3.61l-2,6.9a5.59,5.59,0,0,0,1.47.19,5.53,5.53,0,0,0,5.15-3.58l7.16-19.35A14.19,14.19,0,0,0,250.71,9l-6.57-2.43a1.52,1.52,0,0,0-.51-.09A1.49,1.49,0,0,0,242.61,6.86Z"/><path class="cls-1" d="M122.78,267l.43-3.75-3.07-16a1.24,1.24,0,0,0-2-.79L114.65,250a8.54,8.54,0,0,1-9.28,1.58l-5-2,.8-2.46a2.09,2.09,0,0,0-1.06-2.38l-3.65-2.06-2.75,5.46a15.59,15.59,0,0,1-11.9,8.39l-8.34,1.21a3.32,3.32,0,0,0-2.81,3.87h0a4.65,4.65,0,0,0,2.24,3.28l4.4,2.61Z"/><path class="cls-2" d="M77,268l-4.39-2.61a5.1,5.1,0,0,1-2.48-3.64,3.81,3.81,0,0,1,3.23-4.43l8.33-1.21A15.11,15.11,0,0,0,93.25,248L96,242.51a.51.51,0,0,1,.3-.26.49.49,0,0,1,.39.05l3.66,2a2.59,2.59,0,0,1,1.28,3l-.65,2,4.57,1.8a8.14,8.14,0,0,0,8.74-1.47l3.52-3.55a1.45,1.45,0,0,1,1-.43,1.83,1.83,0,0,1,1.77,1.47l3.07,16a.76.76,0,0,1,0,.15l-.43,3.76a.5.5,0,0,1-.49.44l-45.5.58h0A.48.48,0,0,1,77,268Zm45.68-4.74-3.06-15.89c-.12-.59-.84-.82-1.13-.53L115,250.37a8.43,8.43,0,0,1-6,2.42,10.14,10.14,0,0,1-3.76-.73l-5-2a.5.5,0,0,1-.3-.62l.8-2.47a1.59,1.59,0,0,0-.82-1.79l-3.2-1.8-2.51,5a16.06,16.06,0,0,1-12.28,8.66l-8.33,1.22a2.8,2.8,0,0,0-2.4,3.3,4.16,4.16,0,0,0,2,2.92l4.27,2.54,44.91-.57Z"/><path class="cls-2" d="M123.35,262.67H109a8.17,8.17,0,0,0-6.19,2.66h0a1.62,1.62,0,0,1-1.23.53H74.86a.2.2,0,0,0-.09.37L82.05,270a4.06,4.06,0,0,0,1.9.48h33.43a6.84,6.84,0,0,0,6.69-4.65l.52-1.58A1.29,1.29,0,0,0,123.35,262.67Z"/><path class="cls-2" d="M81.81,270.46l-7.27-3.79a.7.7,0,0,1-.36-.78.71.71,0,0,1,.68-.53h26.72a1.14,1.14,0,0,0,.86-.36,8.6,8.6,0,0,1,6.56-2.83h14.35a1.81,1.81,0,0,1,1.46.76,1.68,1.68,0,0,1,.26,1.49l-.53,1.58a7.34,7.34,0,0,1-7.16,5H84A4.71,4.71,0,0,1,81.81,270.46ZM109,263.17a7.61,7.61,0,0,0-5.8,2.49,2.15,2.15,0,0,1-1.61.7H76.1l6.18,3.22A3.6,3.6,0,0,0,84,270h33.43a6.38,6.38,0,0,0,6.22-4.31l.52-1.58a.65.65,0,0,0-.12-.59.81.81,0,0,0-.65-.35Z"/><path class="cls-1" d="M45.8,219.09l2-3.23,3.89-15.78c.23-.93-.65-1.84-1.47-1.54l-4.68,1.75a8.51,8.51,0,0,1-9.08-2.44L32.7,194l1.76-1.9a2.1,2.1,0,0,0,0-2.61L32,186.07l-4.78,3.81a15.58,15.58,0,0,1-14.32,2.64l-8.08-2.38a3.31,3.31,0,0,0-4.17,2.34h0a4.64,4.64,0,0,0,.66,3.92l2.9,4.21Z"/><path class="cls-2" d="M45.6,219.55,4,201.06a.48.48,0,0,1-.21-.17L.93,196.68a5.12,5.12,0,0,1-.73-4.34,3.81,3.81,0,0,1,3.66-2.84,4,4,0,0,1,1.13.17l8.08,2.38a16.5,16.5,0,0,0,4.59.67,14.75,14.75,0,0,0,9.28-3.23l4.78-3.81a.52.52,0,0,1,.38-.1.47.47,0,0,1,.34.2l2.46,3.39a2.6,2.6,0,0,1-.08,3.24L33.38,194l3.41,3.54a8.16,8.16,0,0,0,8.55,2.32L50,198.08a1.56,1.56,0,0,1,1.78.56,1.8,1.8,0,0,1,.34,1.56L48.25,216a.58.58,0,0,1,0,.14l-2,3.23a.49.49,0,0,1-.43.24A.45.45,0,0,1,45.6,219.55ZM51.17,200a.81.81,0,0,0-.16-.7.57.57,0,0,0-.64-.25l-4.68,1.75a9.15,9.15,0,0,1-9.62-2.56l-3.73-3.88a.49.49,0,0,1,0-.68l1.76-1.91a1.6,1.6,0,0,0,0-2l-2.15-3-4.38,3.48a15.69,15.69,0,0,1-9.9,3.45,17,17,0,0,1-4.87-.72l-8.08-2.38a2.86,2.86,0,0,0-3.56,2,4.11,4.11,0,0,0,.6,3.48l2.82,4.1,41,18.25,1.7-2.79Z"/><path class="cls-2" d="M48.12,215.42l-13-6a8.14,8.14,0,0,0-6.72-.16h0a1.61,1.61,0,0,1-1.34,0L2.47,197.93a.13.13,0,0,0-.15.19l5.21,6.72a4.16,4.16,0,0,0,1.52,1.23l30.37,14a6.85,6.85,0,0,0,8-1.43l1.13-1.22A1.29,1.29,0,0,0,48.12,215.42Z"/><path class="cls-2" d="M39.21,220.49l-30.37-14a4.71,4.71,0,0,1-1.71-1.38l-5.2-6.72a.6.6,0,0,1-.07-.65.62.62,0,0,1,.56-.35.82.82,0,0,1,.26.06l24.54,11.29a1.16,1.16,0,0,0,.93,0,8.69,8.69,0,0,1,7.14.17l13,6a1.77,1.77,0,0,1,1,1.3,1.65,1.65,0,0,1-.38,1.46L47.81,219a7.13,7.13,0,0,1-5.27,2.29h0A7.88,7.88,0,0,1,39.21,220.49ZM28.56,209.71a2.14,2.14,0,0,1-1.75,0L3.66,199l4.26,5.5a3.67,3.67,0,0,0,1.34,1.09l30.37,14a6.41,6.41,0,0,0,7.45-1.32l1.14-1.22a.65.65,0,0,0,.13-.59.79.79,0,0,0-.43-.58l-13-6a8.14,8.14,0,0,0-3.41-.77A7.19,7.19,0,0,0,28.56,209.71Z"/><path class="cls-2" d="M242.75,60.48a.5.5,0,0,1,.12-.69l9.45-6.56a.5.5,0,0,1,.57.81l-9.45,6.57a.47.47,0,0,1-.28.09A.49.49,0,0,1,242.75,60.48Z"/><path class="cls-1" d="M132.32,152.76l-17.08-9.83a8.67,8.67,0,0,0-4.3-1.14l-3.21,0a8.44,8.44,0,0,0-6.41,3l-3,3.51a.5.5,0,1,1-.76-.64l3-3.52a9.5,9.5,0,0,1,7.16-3.34l3.22,0a9.59,9.59,0,0,1,4.8,1.26l17.08,9.83a.52.52,0,0,1,.19.69.51.51,0,0,1-.44.25A.59.59,0,0,1,132.32,152.76Z"/></g></g></svg>